{"glyphs":{"0":{"ha":711,"x_min":53,"x_max":657,"o":"m 53 431 q 144 801 53 667 q 396 935 236 935 q 588 828 518 935 q 657 540 657 722 q 575 120 657 268 q 340 -28 493 -28 q 132 100 211 -28 q 53 431 53 228 m 549 482 q 506 765 549 674 q 372 856 463 856 q 219 744 278 856 q 161 446 161 632 q 215 160 161 269 q 357 50 268 50 q 497 167 444 50 q 549 482 549 285 z "},"1":{"ha":471,"x_min":31,"x_max":483,"o":"m 311 -50 q 292 -56 303 -54 q 265 -60 281 -58 q 244 -61 254 -61 q 222 -60 233 -61 q 233 102 226 35 q 249 251 239 169 q 285 518 261 379 q 338 782 308 657 q 224 695 285 739 q 89 604 163 651 q 56 640 68 622 q 31 682 43 657 q 242 815 144 744 q 421 964 340 886 q 458 942 444 951 q 483 921 471 932 q 383 511 431 785 q 311 -50 335 238 z "},"2":{"ha":549,"x_min":3,"x_max":524,"o":"m 524 49 q 515 -2 521 21 q 500 -46 510 -25 q 221 -17 343 -35 q 3 28 99 1 q 8 67 4 49 q 17 101 11 85 q 319 390 226 258 q 413 663 413 521 q 381 774 413 732 q 296 815 350 815 q 200 760 240 815 q 142 600 160 704 q 92 606 117 600 q 42 622 67 611 q 136 821 69 751 q 299 890 203 890 q 459 825 399 890 q 519 653 519 760 q 419 373 519 517 q 119 79 319 229 q 324 56 233 63 q 524 49 415 50 z "},"3":{"ha":564,"x_min":13,"x_max":557,"o":"m 557 218 q 485 3 557 86 q 303 -79 414 -79 q 120 5 190 -79 q 43 238 50 89 q 89 250 64 246 q 144 257 114 254 q 188 66 144 135 q 304 -3 231 -3 q 410 48 372 -3 q 449 190 449 99 q 373 392 449 324 q 158 451 297 461 q 152 486 154 471 q 150 518 150 501 q 308 639 242 575 q 426 781 375 703 q 201 755 294 769 q 21 718 107 740 q 14 765 15 740 q 15 813 13 789 q 276 855 147 840 q 525 871 404 869 q 531 830 529 851 q 532 788 533 808 q 430 645 486 707 q 286 517 374 583 q 488 415 419 492 q 557 218 557 339 z "},"4":{"ha":700,"x_min":24,"x_max":701,"o":"m 468 192 q 462 76 464 138 q 458 -56 460 14 q 429 -58 440 -57 q 408 -57 418 -58 q 390 -54 399 -56 q 374 -49 382 -53 q 372 40 372 11 q 371 92 371 68 q 371 160 371 138 q 372 201 371 182 q 204 224 283 213 q 49 250 125 236 q 34 278 40 264 q 24 313 28 293 q 227 657 150 497 q 375 1046 304 817 q 426 1035 399 1043 q 482 1014 453 1026 q 328 649 411 818 q 144 331 244 481 q 264 306 207 317 q 376 289 321 296 q 390 434 382 367 q 411 560 399 501 q 440 569 426 567 q 471 572 454 572 q 500 572 485 574 q 525 568 515 571 q 497 444 510 515 q 475 278 485 372 q 581 270 526 274 q 701 264 636 267 q 694 220 700 243 q 681 178 689 197 q 568 184 621 181 q 468 192 515 188 z "},"5":{"ha":567,"x_min":7,"x_max":568,"o":"m 521 261 q 451 35 521 122 q 271 -51 382 -51 q 85 34 154 -51 q 7 275 15 119 q 43 273 17 275 q 111 265 69 271 q 151 85 111 147 q 268 24 192 24 q 376 80 339 24 q 413 243 413 136 q 363 416 413 353 q 225 479 314 479 q 174 473 199 479 q 126 456 149 467 q 100 478 111 467 q 82 501 89 490 q 78 553 79 529 q 78 601 78 576 q 85 765 78 681 q 107 922 93 850 q 337 881 238 893 q 568 867 436 869 q 560 817 567 843 q 543 767 553 792 q 350 789 428 778 q 189 818 272 800 q 172 668 176 739 q 169 539 167 597 q 217 553 190 549 q 271 558 244 558 q 453 478 386 558 q 521 261 521 399 z "},"6":{"ha":656,"x_min":53,"x_max":621,"o":"m 382 529 q 554 455 488 529 q 621 268 621 381 q 544 25 621 119 q 338 -69 467 -69 q 128 58 204 -69 q 53 407 53 186 q 142 813 53 665 q 390 960 232 960 q 542 897 486 960 q 617 706 599 833 q 570 685 593 693 q 518 674 547 678 q 474 829 507 779 q 381 879 440 879 q 222 753 283 879 q 161 419 161 628 q 161 403 161 411 q 161 388 161 396 q 256 493 200 457 q 382 529 313 529 m 172 265 q 237 76 190 143 q 350 8 283 8 q 466 73 419 8 q 513 228 513 138 q 469 390 513 331 q 353 450 426 450 q 248 401 296 450 q 172 265 200 351 z "},"7":{"ha":525,"x_min":-18,"x_max":533,"o":"m 533 826 q 287 419 376 600 q 111 -15 197 239 q 57 -13 82 -17 q 6 0 32 -10 q 195 436 94 239 q 425 821 296 633 q 185 822 281 817 q -17 843 90 828 q -14 891 -18 867 q -1 939 -10 915 q 273 903 163 911 q 515 899 383 894 q 528 861 524 878 q 533 826 532 844 z "},"8":{"ha":632,"x_min":49,"x_max":586,"o":"m 586 314 q 503 83 586 174 q 290 -8 421 -8 q 117 61 185 -8 q 49 236 49 131 q 85 387 49 317 q 188 497 122 457 q 94 587 129 526 q 60 719 60 647 q 135 927 60 850 q 335 1004 210 1004 q 502 941 436 1004 q 568 779 568 878 q 537 624 568 690 q 447 521 506 558 q 549 436 511 492 q 586 314 586 381 m 314 546 q 419 601 379 546 q 460 742 460 656 q 422 881 460 832 q 318 931 385 931 q 210 872 253 931 q 168 728 168 814 q 208 597 168 647 q 314 546 247 546 m 306 64 q 429 131 381 64 q 478 299 478 197 q 436 424 478 376 q 325 472 394 472 q 206 410 256 472 q 156 254 156 349 q 197 115 156 167 q 306 64 238 64 z "},"9":{"ha":676,"x_min":46,"x_max":631,"o":"m 171 665 q 214 503 171 561 q 332 444 257 444 q 445 499 396 444 q 515 647 494 553 q 453 841 500 774 q 338 908 407 908 q 218 840 265 908 q 171 665 171 771 m 631 536 q 526 124 631 290 q 263 -42 421 -42 q 144 -14 197 -42 q 46 71 92 14 q 73 115 58 94 q 107 154 88 135 q 179 68 136 97 q 276 39 222 39 q 447 167 376 39 q 522 490 517 294 q 427 397 482 429 q 307 365 372 365 q 132 444 201 365 q 63 643 63 524 q 141 890 63 793 q 340 988 219 988 q 553 867 475 988 q 631 536 631 747 z "},"\u0000":{"ha":0,"x_min":0,"x_max":0,"o":""},"\r":{"ha":0,"x_min":0,"x_max":0,"o":""}," ":{"ha":258,"x_min":0,"x_max":0,"o":""},"!":{"ha":301,"x_min":83,"x_max":208,"o":"m 104 290 q 88 616 93 469 q 83 924 83 763 q 83 976 83 958 q 85 1006 83 994 q 124 1019 107 1015 q 158 1024 140 1024 q 175 1023 167 1024 q 206 1018 183 1022 q 184 678 189 861 q 185 288 179 494 q 168 285 175 286 q 153 285 161 285 q 126 286 138 285 q 104 290 114 288 m 153 -7 q 127 -6 140 -7 q 101 0 114 -4 q 100 42 100 19 q 101 107 100 64 q 157 108 135 108 q 201 106 179 107 q 203 79 203 93 q 206 40 204 65 q 208 15 207 24 q 208 -1 208 7 q 181 -6 194 -4 q 153 -7 168 -7 z "},"\"":{"ha":350,"x_min":39,"x_max":292,"o":"m 94 1026 q 113 1026 104 1026 q 135 1022 121 1025 q 130 873 135 947 q 113 694 125 799 q 86 690 103 692 q 47 690 69 689 q 45 876 47 804 q 39 1021 43 947 q 63 1025 47 1024 q 94 1026 78 1026 m 251 1026 q 269 1026 261 1026 q 292 1022 278 1025 q 287 873 292 947 q 269 694 282 799 q 243 690 260 692 q 204 690 226 689 q 202 876 204 804 q 196 1021 200 947 q 219 1025 204 1024 q 251 1026 235 1026 z "},"#":{"ha":838,"x_min":13,"x_max":826,"o":"m 279 318 q 390 309 332 313 q 511 304 449 306 q 540 404 526 354 q 565 504 554 454 q 444 507 500 504 q 333 515 388 510 q 309 419 322 468 q 279 318 296 369 m 567 228 q 515 87 542 157 q 456 -54 488 17 q 411 -42 426 -49 q 382 -28 396 -36 q 437 98 411 33 q 486 229 463 163 q 373 235 431 231 q 256 246 315 239 q 203 108 232 181 q 139 -49 175 35 q 97 -37 113 -43 q 65 -21 81 -31 q 124 115 96 46 q 178 257 153 185 q 93 272 133 264 q 14 288 53 279 q 15 324 13 307 q 24 361 17 342 q 110 343 65 351 q 200 328 154 335 q 229 426 215 376 q 254 524 243 475 q 142 541 197 532 q 31 563 86 550 q 32 601 29 583 q 40 636 35 618 q 147 614 90 624 q 269 596 203 604 q 293 735 283 668 q 308 863 303 801 q 349 851 329 858 q 386 832 368 843 q 372 714 381 774 q 350 588 363 654 q 465 581 407 583 q 581 579 524 579 q 604 713 594 644 q 621 856 614 782 q 663 844 644 851 q 699 826 681 838 q 684 708 693 768 q 663 582 675 649 q 740 586 700 583 q 825 593 781 589 q 824 556 826 575 q 814 517 821 536 q 724 510 765 513 q 646 506 683 507 q 623 409 636 458 q 592 304 610 360 q 693 308 640 306 q 808 318 746 311 q 806 276 808 294 q 797 240 803 257 q 681 232 739 235 q 567 228 624 229 z "},"$":{"ha":493,"x_min":35,"x_max":472,"o":"m 285 60 q 288 -30 288 0 q 285 -83 288 -60 q 247 -91 267 -90 q 203 -87 228 -92 q 212 -5 210 -37 q 213 61 214 28 q 82 145 129 75 q 35 324 35 215 q 85 336 60 332 q 132 339 110 340 q 160 187 126 242 q 258 132 193 132 q 338 163 310 132 q 365 249 365 193 q 339 340 365 296 q 211 471 313 383 q 76 615 110 556 q 43 743 43 674 q 88 882 43 828 q 214 946 133 936 q 206 1013 208 983 q 206 1067 204 1043 q 242 1076 222 1074 q 289 1075 263 1078 q 286 1007 286 1039 q 288 946 286 975 q 401 887 360 938 q 458 738 443 836 q 418 722 440 728 q 368 715 396 717 q 329 838 357 800 q 251 875 301 875 q 177 844 204 875 q 150 760 150 814 q 181 653 150 704 q 300 532 213 603 q 438 390 403 447 q 472 264 472 332 q 421 125 472 181 q 285 60 369 69 z "},"%":{"ha":1101,"x_min":51,"x_max":1050,"o":"m 708 1085 q 753 1067 732 1078 q 792 1040 774 1056 q 568 527 683 771 q 278 -42 453 283 q 259 -35 268 -39 q 240 -25 250 -32 q 222 -13 233 -21 q 207 -3 211 -6 q 473 535 360 290 q 708 1085 586 781 m 51 729 q 117 963 51 878 q 294 1049 182 1049 q 428 983 379 1049 q 476 804 476 918 q 416 540 476 636 q 247 444 356 444 q 105 524 158 444 q 51 729 51 603 m 379 764 q 353 931 379 878 q 274 985 328 985 q 182 918 217 985 q 147 742 147 851 q 179 574 147 639 q 264 508 211 508 q 348 578 317 508 q 379 764 379 649 m 624 268 q 689 502 624 417 q 867 588 754 588 q 1001 522 953 588 q 1050 343 1050 457 q 990 80 1050 175 q 821 -15 929 -15 q 677 63 731 -15 q 624 268 624 142 m 953 303 q 927 470 953 417 q 847 524 901 524 q 755 457 790 524 q 719 281 719 390 q 752 113 719 178 q 838 47 785 47 q 922 117 890 47 q 953 303 953 188 z "},"&":{"ha":1054,"x_min":56,"x_max":985,"o":"m 514 932 q 436 878 465 932 q 407 733 407 825 q 410 665 407 699 q 419 600 414 632 q 555 674 508 622 q 601 804 601 726 q 578 898 601 864 q 514 932 556 932 m 161 272 q 241 74 161 149 q 451 0 321 0 q 561 21 508 0 q 657 81 614 42 q 454 278 536 168 q 336 513 372 388 q 207 422 253 485 q 161 272 161 358 m 985 14 q 957 -28 975 -8 q 915 -60 939 -47 q 822 -19 868 -42 q 733 31 776 4 q 600 -51 675 -22 q 443 -79 525 -79 q 162 14 268 -79 q 56 256 56 107 q 124 453 56 371 q 321 569 193 535 q 309 647 313 608 q 306 724 306 686 q 365 926 306 851 q 526 1001 424 1001 q 654 949 606 1001 q 703 814 703 897 q 633 645 703 714 q 432 546 564 576 q 537 335 464 432 q 721 157 610 238 q 768 265 751 206 q 785 388 785 325 q 781 462 785 429 q 769 532 778 494 q 821 537 793 538 q 878 529 849 536 q 883 461 882 493 q 883 394 885 429 q 860 238 882 311 q 799 106 839 165 q 886 58 839 81 q 985 14 933 35 z "},"'":{"ha":193,"x_min":39,"x_max":135,"o":"m 94 1026 q 113 1026 104 1026 q 135 1022 121 1025 q 130 873 135 947 q 113 694 125 799 q 86 690 103 692 q 47 690 69 689 q 45 876 47 804 q 39 1021 43 947 q 63 1025 47 1024 q 94 1026 78 1026 z "},"(":{"ha":469,"x_min":33,"x_max":463,"o":"m 463 1050 q 214 790 299 947 q 129 435 129 633 q 210 92 129 243 q 454 -167 292 -58 q 417 -203 433 -190 q 381 -226 400 -217 q 122 62 210 -103 q 33 426 33 226 q 124 816 33 643 q 389 1111 214 989 q 424 1088 407 1103 q 463 1050 442 1074 z "},")":{"ha":489,"x_min":1,"x_max":436,"o":"m 1 -165 q 253 98 165 -62 q 342 449 342 258 q 263 794 342 639 q 35 1051 183 950 q 72 1090 56 1076 q 107 1111 88 1103 q 351 827 265 997 q 436 457 436 657 q 343 70 436 246 q 75 -226 250 -106 q 40 -203 58 -218 q 1 -165 22 -189 z "},"*":{"ha":611,"x_min":43,"x_max":567,"o":"m 335 653 q 340 547 336 597 q 349 438 343 497 q 321 432 338 435 q 292 429 304 429 q 281 430 286 429 q 260 433 275 431 q 260 517 258 471 q 269 651 263 564 q 178 593 219 621 q 90 533 136 565 q 63 570 67 564 q 56 582 58 576 q 49 596 53 588 q 43 610 46 604 q 127 658 83 635 q 238 713 171 681 q 147 760 190 739 q 47 807 103 782 q 58 837 51 822 q 69 861 64 851 q 79 876 74 868 q 88 886 85 883 q 171 838 128 865 q 274 769 214 811 q 268 892 271 846 q 261 982 265 938 q 288 987 272 985 q 318 989 304 989 q 337 988 326 989 q 350 986 347 986 q 349 890 351 939 q 340 765 347 840 q 429 821 388 793 q 519 885 471 849 q 542 858 533 869 q 554 838 550 846 q 561 822 558 831 q 567 808 564 814 q 485 763 529 786 q 371 708 442 740 q 467 658 422 681 q 563 613 511 636 q 552 583 558 597 q 540 558 546 568 q 530 542 536 550 q 522 532 524 533 q 440 581 482 554 q 335 653 397 608 z "},"+":{"ha":507,"x_min":39,"x_max":469,"o":"m 293 429 q 289 341 292 385 q 281 254 286 297 q 244 251 263 251 q 207 254 225 251 q 214 334 211 293 q 218 428 217 375 q 125 433 169 429 q 39 442 81 436 q 41 479 39 461 q 47 515 43 497 q 133 507 92 510 q 218 503 175 504 q 215 589 217 547 q 208 674 213 631 q 243 678 225 678 q 281 676 261 679 q 289 592 286 635 q 293 504 292 549 q 366 506 325 504 q 469 514 407 508 q 467 476 469 494 q 461 442 465 458 q 378 433 421 436 q 293 429 336 431 z "},",":{"ha":193,"x_min":1,"x_max":163,"o":"m 60 113 q 113 113 88 114 q 163 107 139 111 q 138 -94 160 4 q 74 -308 117 -192 q 40 -303 57 -307 q 1 -293 22 -299 q 43 -85 29 -179 q 60 113 57 10 z "},"-":{"ha":392,"x_min":39,"x_max":351,"o":"m 343 349 q 168 340 250 338 q 40 357 86 343 q 41 408 39 386 q 49 451 43 429 q 131 440 82 444 q 225 436 179 436 q 299 438 269 436 q 351 443 329 439 q 349 394 351 417 q 343 349 347 371 z "},".":{"ha":232,"x_min":53,"x_max":185,"o":"m 53 106 q 121 115 89 114 q 185 110 153 115 q 181 42 183 65 q 175 -3 179 19 q 113 -7 140 -7 q 57 -3 86 -7 q 56 15 57 6 q 56 40 56 24 q 53 79 54 65 q 53 106 53 93 z "},"/":{"ha":644,"x_min":-46,"x_max":636,"o":"m 558 1036 q 599 1018 579 1029 q 636 992 618 1007 q 358 371 515 701 q 35 -278 201 40 q -6 -262 14 -272 q -46 -237 -26 -251 q 226 295 71 -33 q 558 1036 382 624 z "},":":{"ha":233,"x_min":50,"x_max":188,"o":"m 126 760 q 155 758 140 760 q 183 753 169 756 q 182 680 183 703 q 178 639 181 657 q 119 636 147 636 q 56 640 90 636 q 55 664 56 651 q 53 699 54 676 q 51 731 51 719 q 50 751 50 742 q 85 758 67 756 q 126 760 104 760 m 54 110 q 124 117 92 117 q 188 115 156 118 q 185 47 186 72 q 181 -1 183 22 q 118 -4 150 -4 q 57 0 86 -4 q 56 42 57 4 q 54 110 54 81 z "},";":{"ha":233,"x_min":7,"x_max":188,"o":"m 188 753 q 186 680 188 703 q 182 639 185 657 q 123 636 151 636 q 60 640 94 636 q 59 664 60 651 q 57 699 58 676 q 55 731 56 719 q 54 751 54 742 q 90 758 71 756 q 131 760 108 760 q 159 758 144 760 q 188 753 174 756 m 65 113 q 120 113 93 114 q 171 107 147 111 q 149 -92 172 7 q 76 -307 126 -190 q 41 -301 57 -304 q 7 -292 25 -297 q 52 -71 39 -161 q 65 113 65 19 z "},"<":{"ha":506,"x_min":42,"x_max":465,"o":"m 461 299 q 454 266 460 282 q 439 232 449 250 q 220 331 321 276 q 42 444 119 385 l 46 499 q 227 612 129 560 q 442 711 325 664 q 458 669 451 686 q 465 644 464 653 q 285 559 364 601 q 135 469 206 517 q 274 386 196 428 q 461 299 353 344 z "},"=":{"ha":507,"x_min":31,"x_max":475,"o":"m 44 497 q 47 536 44 518 q 53 572 49 554 q 253 559 156 560 q 475 569 351 558 q 473 533 475 551 q 467 497 471 515 q 256 485 365 485 q 44 497 147 485 m 31 321 q 32 356 31 339 q 38 396 33 372 q 239 383 140 383 q 461 393 338 382 q 459 357 461 375 q 453 321 457 339 q 242 308 351 308 q 31 321 133 308 z "},">":{"ha":506,"x_min":40,"x_max":464,"o":"m 64 232 q 48 274 54 257 q 40 300 42 290 q 221 385 142 343 q 371 475 300 428 q 234 557 313 515 q 44 646 156 599 q 52 679 46 663 q 68 713 58 696 q 287 614 186 668 q 464 500 388 560 l 460 446 q 281 333 378 386 q 64 232 183 281 z "},"?":{"ha":532,"x_min":21,"x_max":490,"o":"m 276 289 q 250 285 265 286 q 203 285 235 285 q 188 456 193 392 q 182 543 183 521 q 331 629 281 565 q 382 793 382 693 q 348 933 382 881 q 257 986 314 986 q 153 922 190 986 q 117 742 117 857 q 67 746 92 742 q 21 757 42 750 q 91 984 31 908 q 265 1060 151 1060 q 428 987 365 1060 q 490 797 490 914 q 435 617 490 693 q 279 506 379 540 q 278 464 279 486 q 278 397 278 442 q 277 332 278 354 q 276 289 276 310 m 301 40 q 303 17 303 25 q 304 0 304 8 q 277 -4 290 -3 q 249 -6 264 -6 q 228 -4 239 -6 q 199 0 217 -3 q 197 53 197 26 q 197 108 196 79 q 253 109 231 110 q 297 107 275 108 q 299 80 299 93 q 301 40 300 67 z "},"@":{"ha":1224,"x_min":58,"x_max":1135,"o":"m 889 -50 q 741 -113 821 -92 q 574 -135 661 -135 q 200 13 342 -135 q 58 401 58 160 q 213 838 58 675 q 632 1000 368 1000 q 1001 861 867 1000 q 1135 494 1135 722 q 1058 224 1135 329 q 867 118 982 118 q 756 153 800 118 q 694 258 713 189 q 631 164 669 194 q 539 133 593 133 q 404 209 456 133 q 353 407 353 285 q 422 648 353 557 q 601 739 490 739 q 637 735 618 739 q 675 726 656 732 q 675 745 675 736 q 675 763 675 754 q 728 772 701 771 q 782 768 756 774 q 770 576 774 654 q 767 431 767 497 q 791 244 767 303 q 871 186 815 186 q 997 273 947 186 q 1046 497 1046 360 q 931 809 1046 692 q 615 926 815 926 q 278 788 407 926 q 150 424 150 650 q 266 69 150 199 q 585 -61 382 -61 q 728 -42 665 -61 q 840 18 790 -22 q 860 -3 851 8 q 889 -50 869 -15 m 449 421 q 476 264 449 321 q 553 207 504 207 q 631 247 599 207 q 682 365 664 286 q 680 478 682 368 q 676 660 678 588 q 646 667 661 665 q 613 669 631 669 q 494 601 540 669 q 449 421 449 533 z "},"A":{"ha":854,"x_min":26,"x_max":826,"o":"m 826 -111 q 781 -132 804 -124 q 719 -146 757 -140 q 678 106 699 -3 q 635 304 657 214 q 442 299 536 306 q 265 281 347 293 q 201 132 236 208 q 122 -29 165 56 q 72 -12 96 -24 q 26 21 49 0 q 228 448 150 239 q 381 979 307 657 q 443 975 418 978 q 492 967 468 972 q 702 463 628 703 q 826 -111 776 222 m 439 849 q 372 585 406 703 q 297 363 338 468 q 443 378 364 372 q 614 388 522 385 q 538 621 579 510 q 439 849 496 732 z "},"B":{"ha":797,"x_min":100,"x_max":742,"o":"m 742 360 q 616 85 742 199 q 310 -28 490 -28 q 208 -14 260 -28 q 121 22 157 0 q 106 410 110 254 q 101 747 101 567 q 101 783 101 764 q 101 842 101 801 q 100 919 100 892 q 100 974 100 947 q 221 1014 157 1000 q 350 1028 285 1028 q 588 968 503 1028 q 672 801 672 908 q 632 672 672 728 q 513 579 592 617 q 683 506 625 563 q 742 360 742 450 m 561 789 q 507 909 561 867 q 351 951 453 951 q 286 947 319 951 q 219 933 253 942 q 210 769 213 854 q 207 564 207 683 q 476 634 390 581 q 561 789 561 688 m 215 74 q 268 56 240 63 q 324 50 296 50 q 539 135 449 50 q 629 333 629 219 q 576 470 629 425 q 415 515 524 515 q 310 505 368 515 q 207 478 251 494 q 207 419 207 449 q 207 358 207 389 q 209 208 207 275 q 215 74 211 140 z "},"C":{"ha":760,"x_min":64,"x_max":683,"o":"m 589 308 q 637 306 615 310 q 679 290 658 301 q 594 38 671 124 q 381 -49 518 -49 q 147 65 229 -49 q 64 390 64 179 q 170 804 64 646 q 449 963 276 963 q 626 884 569 963 q 679 646 683 806 q 633 627 660 633 q 571 622 606 621 q 547 821 581 760 q 429 882 514 882 q 253 751 325 882 q 181 414 181 621 q 236 131 181 229 q 396 32 292 32 q 542 106 490 32 q 589 308 593 181 z "},"D":{"ha":800,"x_min":89,"x_max":743,"o":"m 743 617 q 597 233 743 406 q 206 -15 451 61 q 158 -11 196 -15 q 111 -4 121 -7 q 94 381 99 218 q 89 706 89 544 q 90 826 89 763 q 93 938 92 889 q 217 981 153 967 q 354 996 281 996 q 644 899 544 996 q 743 617 743 801 m 211 893 q 201 672 204 774 q 197 318 197 569 q 198 187 197 246 q 201 68 199 128 q 521 288 413 149 q 629 619 629 428 q 553 840 629 764 q 333 915 478 915 q 273 910 303 915 q 211 893 243 904 z "},"E":{"ha":722,"x_min":81,"x_max":669,"o":"m 667 -18 q 437 -44 557 -35 q 175 -57 317 -53 q 109 485 135 210 q 81 960 83 761 q 390 1006 274 993 q 635 1021 507 1018 q 633 973 635 996 q 626 931 631 950 q 408 920 513 929 q 201 894 303 911 q 201 722 199 811 q 211 531 204 633 q 417 565 344 554 q 563 581 490 575 q 570 540 568 561 q 571 494 572 519 q 388 477 465 486 q 217 453 311 468 q 238 232 226 339 q 265 28 250 125 q 476 42 381 31 q 660 72 571 53 q 667 26 665 53 q 667 -18 669 0 z "},"F":{"ha":703,"x_min":79,"x_max":642,"o":"m 243 453 q 248 123 247 235 q 246 -100 249 11 q 197 -108 224 -106 q 144 -108 169 -110 q 134 488 150 214 q 79 1001 118 763 q 357 1030 239 1014 q 629 1075 475 1046 q 636 1052 633 1064 q 640 1029 639 1040 q 641 1008 642 1019 q 639 979 640 997 q 383 940 474 951 q 207 922 293 929 q 226 760 218 846 q 239 576 235 674 q 391 601 314 592 q 550 615 468 611 q 558 570 556 590 q 560 528 560 550 q 410 516 489 524 q 242 496 331 508 q 242 488 242 492 q 243 475 242 483 q 243 461 243 465 q 243 453 243 457 z "},"G":{"ha":789,"x_min":64,"x_max":747,"o":"m 675 483 q 690 224 672 349 q 747 -29 708 100 q 708 -36 731 -33 q 663 -40 686 -39 q 628 56 643 8 q 600 154 613 104 q 487 15 551 60 q 336 -29 422 -29 q 138 90 211 -29 q 64 415 64 210 q 164 842 64 678 q 428 1006 264 1006 q 604 918 540 1006 q 668 681 668 831 q 615 669 642 674 q 557 664 588 665 q 515 859 554 793 q 401 925 475 925 q 241 790 304 925 q 178 449 178 656 q 226 162 178 264 q 360 60 274 60 q 488 118 433 60 q 574 288 543 176 q 563 373 568 328 q 556 471 558 418 q 612 480 581 476 q 675 483 643 483 z "},"H":{"ha":838,"x_min":90,"x_max":735,"o":"m 706 1017 q 726 452 718 765 q 735 -76 735 139 q 678 -72 710 -76 q 626 -64 646 -68 q 624 172 626 29 q 619 475 622 315 q 390 467 489 474 q 204 449 290 461 q 208 214 206 325 q 217 18 211 103 q 169 10 197 13 q 119 10 142 8 q 98 490 106 246 q 90 978 90 733 q 123 988 104 985 q 160 992 142 992 q 188 990 175 992 q 217 983 201 988 q 206 788 210 907 q 204 529 203 668 q 399 554 299 546 q 617 564 500 563 q 606 840 611 728 q 594 1021 601 951 q 631 1029 619 1028 q 656 1031 643 1031 q 683 1027 669 1031 q 706 1017 696 1024 z "},"I":{"ha":326,"x_min":92,"x_max":217,"o":"m 217 676 q 215 237 217 365 q 207 -28 213 108 q 168 -35 193 -32 q 115 -39 143 -37 q 113 479 118 238 q 92 926 107 721 q 127 940 108 936 q 165 944 146 944 q 187 944 176 944 q 210 940 197 943 q 215 821 214 882 q 217 676 217 760 z "},"J":{"ha":636,"x_min":46,"x_max":528,"o":"m 488 82 q 407 -70 460 -18 q 279 -122 354 -122 q 124 -33 185 -122 q 46 219 64 56 q 86 240 64 232 q 142 256 108 249 q 192 27 161 93 q 282 -39 224 -39 q 381 49 349 -39 q 414 318 414 138 q 403 628 414 468 q 369 983 393 788 q 400 995 382 990 q 439 1003 418 1000 q 465 1005 451 1004 q 496 1004 479 1006 q 519 735 511 863 q 528 497 528 607 q 518 253 528 351 q 488 82 508 156 z "},"K":{"ha":781,"x_min":92,"x_max":768,"o":"m 768 -43 q 729 -87 750 -69 q 682 -117 708 -104 q 501 159 585 51 q 296 385 418 267 q 235 335 251 349 q 203 311 218 322 q 213 117 206 207 q 235 -86 221 26 q 186 -94 214 -90 q 139 -97 158 -97 q 102 255 113 99 q 92 611 92 411 q 95 778 92 690 q 106 965 99 867 q 149 975 133 972 q 179 978 165 978 q 207 976 193 978 q 236 969 221 974 q 210 735 218 854 q 201 460 201 617 q 201 428 201 444 q 201 397 201 413 q 422 631 340 521 q 601 951 503 742 q 645 925 624 942 q 688 883 667 908 q 533 635 607 735 q 365 446 460 536 q 567 239 486 338 q 768 -43 647 140 z "},"L":{"ha":667,"x_min":93,"x_max":653,"o":"m 643 -8 q 650 -58 647 -32 q 653 -100 653 -83 q 414 -109 524 -101 q 163 -136 304 -117 q 109 406 125 133 q 99 921 93 679 q 140 933 121 929 q 185 936 160 936 q 203 935 193 936 q 222 933 213 935 q 211 763 214 854 q 210 538 208 671 q 223 232 213 367 q 253 -40 233 97 q 453 -17 351 -25 q 643 -8 554 -8 z "},"M":{"ha":1028,"x_min":90,"x_max":925,"o":"m 914 -60 q 863 -74 889 -69 q 804 -78 836 -78 q 823 371 818 147 q 825 879 828 594 q 672 585 739 738 q 549 249 606 432 q 514 241 533 243 q 475 242 494 239 q 352 571 419 421 q 196 863 285 721 q 194 806 194 835 q 193 704 193 776 q 210 372 193 549 q 260 7 226 194 q 210 -2 239 1 q 158 -6 182 -6 q 106 490 122 214 q 99 1007 90 767 q 156 1034 129 1024 q 207 1049 183 1044 q 385 741 306 907 q 517 406 465 575 q 640 719 567 563 q 815 1049 713 876 q 869 1036 844 1044 q 915 1018 894 1028 q 924 551 925 826 q 914 -60 924 275 z "},"N":{"ha":875,"x_min":93,"x_max":769,"o":"m 208 460 q 216 248 210 365 q 235 -44 222 131 q 193 -51 217 -49 q 144 -56 169 -54 q 104 497 115 275 q 93 940 93 719 q 96 941 94 940 q 97 942 97 942 q 158 966 132 958 q 217 979 183 974 q 466 610 360 794 q 664 207 572 426 q 667 310 667 253 q 668 489 668 368 q 662 812 668 675 q 643 1031 656 949 q 705 1046 678 1042 q 761 1051 732 1050 q 768 874 767 933 q 769 763 769 815 q 763 381 769 544 q 740 33 756 217 q 698 27 719 29 q 650 24 676 25 q 438 458 549 263 q 206 808 326 653 q 206 611 204 735 q 208 460 208 488 z "},"O":{"ha":832,"x_min":61,"x_max":767,"o":"m 453 1018 q 687 898 607 1018 q 767 547 767 778 q 745 349 767 447 q 683 175 724 251 q 555 24 632 75 q 381 -28 478 -28 q 149 111 238 -28 q 61 471 61 250 q 171 864 61 710 q 453 1018 281 1018 m 392 54 q 583 185 513 54 q 653 524 653 317 q 600 834 653 735 q 435 933 547 933 q 249 809 321 933 q 176 488 176 685 q 234 176 176 299 q 392 54 292 54 z "},"P":{"ha":764,"x_min":93,"x_max":710,"o":"m 199 322 q 206 140 200 233 q 224 -94 211 46 q 174 -96 204 -97 q 128 -90 143 -94 q 101 313 108 142 q 93 747 93 483 q 96 871 93 799 q 103 993 99 943 q 237 1022 175 1013 q 356 1031 299 1031 q 617 959 525 1031 q 710 760 710 888 q 585 508 710 615 q 199 322 460 400 m 221 936 q 204 708 210 818 q 199 467 199 597 q 199 437 199 451 q 199 407 199 422 q 496 545 396 460 q 596 746 596 631 q 533 901 596 847 q 353 954 471 954 q 288 950 321 954 q 221 936 256 946 z "},"Q":{"ha":822,"x_min":57,"x_max":804,"o":"m 804 -72 q 776 -110 794 -92 q 735 -146 758 -129 q 662 -44 696 -89 q 594 38 628 0 q 490 -32 547 -8 q 367 -56 432 -56 q 142 65 226 -56 q 57 385 57 185 q 167 781 57 626 q 451 935 278 935 q 678 821 599 935 q 757 500 757 707 q 729 284 757 386 q 650 104 701 182 q 715 34 681 74 q 804 -72 750 -6 m 171 401 q 226 128 171 229 q 376 26 281 26 q 463 46 422 26 q 535 103 503 65 q 477 158 507 131 q 410 217 447 186 q 419 230 413 221 q 428 244 425 239 q 441 259 435 253 q 453 269 447 265 q 524 217 493 240 q 581 171 554 193 q 627 309 611 231 q 643 476 643 388 q 592 756 643 663 q 438 850 540 850 q 244 726 318 850 q 171 401 171 601 z "},"R":{"ha":781,"x_min":92,"x_max":753,"o":"m 753 8 q 710 -19 739 -4 q 656 -39 681 -33 q 519 243 576 139 q 392 442 461 347 q 317 413 358 426 q 229 388 276 400 q 219 179 225 276 q 206 -7 214 82 q 158 -8 185 -10 q 114 -1 131 -6 q 123 176 121 108 q 125 317 125 243 q 118 671 125 540 q 92 976 111 801 q 231 1044 153 1019 q 386 1069 310 1069 q 603 997 524 1069 q 683 804 683 925 q 632 622 683 701 q 476 482 581 542 q 613 284 543 403 q 753 8 682 165 m 213 950 q 226 733 222 826 q 231 547 231 640 q 231 506 231 526 q 231 465 231 486 q 488 586 404 508 q 571 785 571 664 q 520 937 571 883 q 375 990 469 990 q 292 980 333 990 q 213 950 251 969 z "},"S":{"ha":660,"x_min":43,"x_max":611,"o":"m 547 400 q 588 310 575 358 q 601 206 601 263 q 528 17 601 90 q 339 -56 454 -56 q 122 47 200 -56 q 43 313 43 149 q 92 332 65 324 q 143 342 118 340 q 192 108 142 193 q 335 24 243 24 q 447 70 404 24 q 489 193 489 117 q 456 324 489 267 q 311 464 422 382 q 214 544 244 514 q 163 606 183 574 q 121 696 135 647 q 107 801 107 744 q 176 994 107 922 q 360 1065 244 1065 q 524 1005 465 1065 q 611 800 583 944 q 569 783 592 789 q 511 776 546 778 q 463 935 499 886 q 356 983 426 983 q 256 940 290 983 q 221 815 221 897 q 255 681 221 740 q 400 539 289 622 q 497 460 467 489 q 547 400 526 431 z "},"T":{"ha":819,"x_min":29,"x_max":779,"o":"m 501 47 q 456 38 483 42 q 399 33 428 35 q 393 511 406 257 q 350 981 381 765 q 203 963 279 974 q 40 940 128 953 q 32 988 35 964 q 31 1031 29 1011 q 401 1081 239 1065 q 769 1099 563 1096 q 776 1076 774 1089 q 779 1049 778 1064 q 779 1036 779 1043 q 776 1003 779 1029 q 619 999 693 1001 q 474 990 546 996 q 500 651 492 810 q 508 319 508 492 q 507 193 508 260 q 501 47 506 126 z "},"U":{"ha":760,"x_min":75,"x_max":679,"o":"m 615 981 q 664 733 649 846 q 679 514 679 619 q 593 44 679 199 q 333 -111 507 -111 q 139 10 203 -111 q 75 378 75 131 q 96 646 75 506 q 146 872 117 786 q 175 878 157 876 q 208 881 193 881 q 232 879 221 881 q 253 875 243 878 q 207 629 222 747 q 192 408 192 511 q 229 77 192 179 q 353 -25 267 -25 q 509 99 454 -25 q 564 446 564 222 q 549 701 564 581 q 497 960 533 821 q 552 973 522 968 q 615 981 582 978 z "},"V":{"ha":776,"x_min":31,"x_max":724,"o":"m 724 1038 q 617 458 688 708 q 392 -121 546 207 q 351 -129 372 -126 q 304 -132 331 -132 q 136 344 204 100 q 31 850 68 588 q 85 870 58 863 q 142 881 111 878 q 224 428 169 650 q 361 -3 279 206 q 533 510 475 272 q 619 1057 592 749 q 672 1052 647 1057 q 724 1038 696 1047 z "},"W":{"ha":1036,"x_min":22,"x_max":1015,"o":"m 506 467 q 432 197 474 326 q 331 -74 390 67 q 290 -84 311 -81 q 250 -89 269 -87 q 97 444 146 231 q 22 911 49 657 q 80 926 53 921 q 138 933 107 932 q 188 535 150 733 q 303 75 226 336 q 413 436 378 292 q 467 740 449 581 q 520 750 492 746 q 574 756 549 754 q 610 418 583 572 q 689 88 638 264 q 833 535 781 324 q 910 986 885 746 q 963 977 938 985 q 1015 954 989 969 q 904 441 972 668 q 719 -39 836 214 q 683 -46 701 -43 q 633 -51 664 -49 q 547 251 575 138 q 506 467 519 365 z "},"X":{"ha":892,"x_min":22,"x_max":824,"o":"m 800 17 q 763 -15 783 0 q 719 -39 742 -29 q 590 246 650 122 q 475 471 531 369 q 271 228 364 333 q 82 26 178 124 q 47 54 64 39 q 22 85 31 69 q 246 334 150 222 q 425 556 342 446 q 274 779 354 674 q 90 996 194 885 q 143 1037 117 1019 q 197 1064 169 1054 q 367 843 294 944 q 499 642 439 742 q 629 836 569 740 q 743 1031 689 932 q 785 1001 764 1019 q 824 958 807 982 q 697 763 764 861 q 547 557 629 664 q 664 328 606 454 q 800 17 722 203 z "},"Y":{"ha":713,"x_min":19,"x_max":665,"o":"m 665 950 q 460 305 558 535 q 221 -115 361 75 q 172 -99 196 -108 q 132 -76 149 -89 q 242 93 193 10 q 331 261 292 176 q 150 575 222 410 q 19 978 78 740 q 76 1001 47 993 q 136 1011 104 1010 q 229 673 171 828 q 378 367 288 518 q 474 653 433 500 q 546 993 515 806 q 608 975 579 986 q 665 950 638 964 z "},"Z":{"ha":813,"x_min":31,"x_max":775,"o":"m 725 64 q 717 8 724 35 q 699 -47 711 -19 q 360 -32 536 -46 q 32 7 185 -18 q 33 53 31 29 q 39 96 35 76 q 401 505 250 317 q 643 854 551 693 q 375 884 500 868 q 125 922 250 900 q 133 976 126 951 q 156 1025 140 1001 q 413 976 282 999 q 775 921 544 954 q 769 877 774 906 q 761 842 764 849 q 499 483 650 668 q 140 76 349 299 q 444 58 297 61 q 725 64 590 54 z "},"[":{"ha":493,"x_min":83,"x_max":478,"o":"m 469 -100 q 476 -137 474 -115 q 478 -181 478 -160 q 335 -194 411 -190 q 175 -197 258 -199 q 106 414 129 104 q 83 1046 83 724 q 235 1076 160 1064 q 389 1092 311 1088 q 390 1049 390 1069 q 388 1011 389 1029 q 274 1004 321 1008 q 190 994 228 1000 q 194 458 179 710 q 253 -119 208 207 q 361 -114 303 -119 q 469 -100 419 -108 z "},"\\":{"ha":644,"x_min":10,"x_max":692,"o":"m 88 1038 q 47 1019 67 1031 q 10 993 28 1008 q 288 372 131 703 q 611 -276 444 42 q 652 -260 632 -271 q 692 -236 672 -250 q 419 297 575 -32 q 88 1038 264 625 z "},"]":{"ha":460,"x_min":15,"x_max":367,"o":"m 325 1117 q 362 590 357 929 q 343 -119 367 251 q 196 -145 269 -135 q 40 -160 122 -156 q 40 -128 39 -146 q 42 -81 40 -110 q 165 -72 115 -76 q 251 -61 215 -67 q 269 503 274 226 q 233 1039 265 779 q 136 1034 190 1039 q 22 1019 82 1029 q 17 1058 19 1035 q 15 1099 15 1081 q 158 1113 81 1108 q 325 1117 236 1118 z "},"^":{"ha":549,"x_min":33,"x_max":514,"o":"m 514 301 q 466 283 475 286 q 447 279 457 281 q 365 453 407 374 q 271 610 322 533 q 188 472 229 550 q 100 282 147 393 q 67 289 83 283 q 33 306 51 294 q 133 525 79 425 q 247 701 188 625 l 301 697 q 415 516 363 614 q 514 301 467 418 z "},"_":{"ha":535,"x_min":43,"x_max":544,"o":"m 535 -140 q 284 -151 410 -154 q 43 -128 158 -147 q 47 -87 44 -106 q 51 -49 49 -68 q 193 -65 117 -60 q 347 -71 269 -71 q 444 -69 394 -71 q 544 -62 493 -67 q 542 -98 544 -78 q 535 -140 539 -118 z "},"`":{"ha":361,"x_min":94,"x_max":256,"o":"m 200 1042 q 219 928 206 986 q 256 806 232 871 q 215 798 231 800 q 183 794 199 796 q 123 919 144 861 q 94 1035 101 978 q 144 1044 114 1042 q 200 1042 175 1046 z "},"a":{"ha":628,"x_min":38,"x_max":549,"o":"m 549 474 q 524 231 549 382 q 464 -47 499 79 q 419 -43 443 -47 q 374 -32 396 -39 q 376 -19 375 -26 q 382 1 378 -11 q 389 34 386 24 q 393 53 392 44 q 327 21 364 32 q 249 10 290 10 q 96 60 154 10 q 38 194 38 111 q 114 332 38 285 q 339 379 190 379 q 382 378 361 379 q 438 376 403 378 q 439 407 439 390 q 439 460 439 424 q 412 621 439 571 q 322 671 385 671 q 215 615 258 671 q 169 472 172 558 q 107 491 131 478 q 71 526 83 504 q 163 682 88 618 q 336 746 239 746 q 495 677 442 746 q 549 474 549 608 m 147 192 q 181 110 147 140 q 268 81 214 81 q 342 92 307 81 q 408 128 378 104 q 426 229 419 185 q 435 318 432 274 q 219 295 292 326 q 147 192 147 264 z "},"b":{"ha":622,"x_min":76,"x_max":567,"o":"m 567 417 q 480 79 567 206 q 251 -47 393 -47 q 163 -32 203 -47 q 86 15 122 -17 q 79 197 82 92 q 76 443 76 303 q 83 748 76 596 q 101 990 90 900 q 135 999 117 996 q 178 1001 154 1001 q 199 1000 189 1001 q 228 994 208 999 q 204 820 215 918 q 185 606 193 722 q 265 684 219 658 q 369 710 311 710 q 516 635 465 710 q 567 417 567 560 m 176 61 q 214 39 193 46 q 258 32 235 32 q 404 135 353 32 q 456 422 456 238 q 425 578 456 526 q 333 631 394 631 q 247 585 289 631 q 178 463 204 540 q 175 375 176 418 q 174 292 174 332 q 174 138 174 181 q 176 61 175 94 z "},"c":{"ha":589,"x_min":38,"x_max":538,"o":"m 538 511 q 489 495 515 500 q 432 490 463 490 q 406 631 432 583 q 331 678 381 678 q 199 558 254 678 q 143 283 143 438 q 181 106 143 171 q 289 40 219 40 q 387 84 342 40 q 467 210 432 128 q 504 192 488 203 q 533 165 521 181 q 437 24 511 82 q 271 -35 363 -35 q 98 47 158 -35 q 38 275 38 128 q 121 615 38 479 q 332 751 204 751 q 483 688 429 751 q 538 511 538 624 z "},"d":{"ha":640,"x_min":46,"x_max":556,"o":"m 546 -46 q 506 -55 529 -51 q 467 -58 483 -58 q 460 31 463 -14 q 456 121 457 76 q 386 -2 429 38 q 278 -42 343 -42 q 108 58 171 -42 q 46 324 46 158 q 128 615 46 506 q 349 724 211 724 q 394 721 371 724 q 438 713 418 718 q 435 897 436 843 q 435 994 435 951 q 467 1006 447 1001 q 504 1010 486 1010 q 528 1008 515 1010 q 556 1003 540 1006 q 545 756 549 917 q 542 169 542 596 q 542 60 542 107 q 546 -46 543 14 m 151 339 q 189 117 151 196 q 293 39 226 39 q 394 108 354 39 q 447 310 433 176 q 442 471 444 388 q 439 639 440 554 q 403 647 422 644 q 361 649 383 649 q 209 566 267 649 q 151 339 151 483 z "},"e":{"ha":604,"x_min":42,"x_max":560,"o":"m 165 435 q 252 413 206 421 q 350 406 299 406 q 383 407 364 406 q 410 411 401 408 q 426 485 421 451 q 431 547 431 519 q 410 635 431 608 q 346 661 390 661 q 239 599 288 661 q 165 435 190 536 m 475 236 q 520 219 497 232 q 560 190 543 207 q 452 48 533 111 q 283 -15 371 -15 q 106 72 171 -15 q 42 307 42 160 q 134 604 42 472 q 354 736 226 736 q 484 684 436 736 q 532 543 532 632 q 523 448 532 496 q 499 357 514 400 q 431 342 471 347 q 333 338 392 338 q 242 345 289 338 q 153 368 196 353 q 149 335 150 351 q 149 304 149 319 q 187 127 149 194 q 289 60 225 60 q 400 112 344 60 q 475 236 456 164 z "},"f":{"ha":529,"x_min":42,"x_max":496,"o":"m 229 529 q 250 240 233 381 q 293 -8 267 99 q 233 -24 260 -19 q 183 -29 206 -29 q 148 226 165 53 q 129 542 131 400 q 76 552 97 547 q 42 563 54 557 q 44 600 42 582 q 53 624 47 618 q 83 619 67 621 q 131 614 100 617 q 187 913 136 815 q 338 1010 238 1010 q 453 961 411 1010 q 496 835 496 913 q 491 788 496 813 q 479 750 486 764 q 435 754 457 750 q 393 765 414 758 q 402 803 399 783 q 406 843 406 824 q 387 909 406 885 q 338 933 368 933 q 256 852 285 933 q 228 622 228 771 q 228 615 228 618 q 228 607 228 611 q 294 605 271 606 q 339 604 318 604 q 399 606 372 604 q 443 613 425 608 q 440 571 443 594 q 435 532 438 547 q 397 526 421 528 q 336 525 372 525 q 281 526 308 525 q 229 529 254 528 z "},"g":{"ha":628,"x_min":49,"x_max":546,"o":"m 171 357 q 207 158 171 231 q 303 86 243 86 q 381 133 349 86 q 438 278 414 179 q 423 469 435 382 q 389 631 411 556 q 362 637 376 635 q 332 639 347 639 q 211 569 251 639 q 171 357 171 499 m 546 235 q 472 -194 546 -46 q 269 -343 399 -343 q 122 -283 181 -343 q 49 -121 64 -224 q 95 -94 69 -106 q 147 -78 121 -83 q 192 -221 161 -176 q 276 -265 222 -265 q 388 -167 346 -265 q 438 118 429 -69 q 373 33 410 61 q 288 6 336 6 q 120 99 182 6 q 58 353 58 193 q 134 620 58 522 q 338 718 210 718 q 420 708 378 718 q 499 681 463 699 q 533 466 519 590 q 546 235 546 342 z "},"h":{"ha":649,"x_min":78,"x_max":578,"o":"m 578 453 q 544 190 578 340 q 474 -44 510 39 q 427 -35 450 -42 q 383 -17 404 -28 q 448 219 425 96 q 471 451 471 343 q 449 603 471 560 q 374 647 428 647 q 261 584 317 647 q 175 414 206 521 l 175 410 q 182 217 175 332 q 196 49 189 101 q 153 41 181 44 q 100 38 125 38 q 83 312 89 183 q 78 549 78 440 q 86 809 78 661 q 106 1029 94 957 q 143 1044 124 1039 q 182 1049 163 1049 q 214 1044 196 1049 q 238 1038 232 1039 q 200 809 215 932 q 179 564 185 686 q 278 688 222 644 q 393 731 333 731 q 534 665 490 731 q 578 453 578 599 z "},"i":{"ha":286,"x_min":65,"x_max":269,"o":"m 208 1029 q 242 1024 228 1028 q 269 1014 257 1021 q 241 941 256 983 q 218 858 226 899 q 179 855 203 856 q 131 856 156 854 q 127 878 128 868 q 126 900 126 889 q 133 963 126 929 q 150 1019 139 996 q 178 1028 165 1026 q 208 1029 190 1031 m 101 692 q 135 706 118 701 q 172 711 153 711 q 192 710 183 711 q 211 706 201 708 q 172 364 183 560 q 172 -1 161 168 q 147 -10 163 -7 q 117 -12 132 -12 q 103 -12 110 -12 q 89 -10 97 -11 q 69 355 65 167 q 101 692 72 543 z "},"j":{"ha":318,"x_min":-190,"x_max":228,"o":"m 178 1025 q 154 949 165 993 q 138 865 143 906 q 102 859 124 861 q 50 856 81 857 q 42 890 44 874 q 40 921 40 907 q 40 976 38 950 q 50 1025 43 1001 q 79 1035 64 1032 q 114 1039 94 1039 q 150 1035 136 1038 q 178 1025 164 1032 m 228 272 q 167 -130 228 10 q -6 -269 107 -269 q -110 -239 -64 -269 q -190 -149 -157 -208 q -165 -108 -181 -126 q -133 -76 -150 -89 q -80 -154 -108 -129 q -15 -179 -51 -179 q 86 -80 51 -179 q 121 210 121 19 q 106 419 121 308 q 43 733 90 531 q 101 746 69 743 q 169 746 133 749 q 215 472 201 581 q 228 272 228 364 z "},"k":{"ha":621,"x_min":71,"x_max":593,"o":"m 171 328 q 176 131 171 225 q 194 -58 182 36 q 144 -67 171 -64 q 99 -69 118 -69 q 76 201 82 96 q 71 422 71 307 q 81 731 71 575 q 111 1019 92 886 q 174 1019 142 1022 q 226 1010 206 1017 q 189 719 203 863 q 172 433 175 575 q 340 599 271 519 q 488 803 408 679 q 527 777 508 793 q 560 743 546 761 q 426 565 489 636 q 272 419 363 494 q 406 260 335 328 q 593 114 476 193 q 553 63 569 79 q 519 36 538 46 q 364 177 431 106 q 208 368 297 249 q 190 353 199 361 q 171 339 181 346 q 171 333 171 336 q 171 328 171 331 z "},"l":{"ha":281,"x_min":68,"x_max":204,"o":"m 192 -74 q 148 -81 178 -78 q 97 -85 118 -85 q 72 484 75 225 q 83 1014 68 743 q 115 1026 97 1021 q 149 1031 132 1031 q 176 1028 163 1031 q 204 1022 189 1026 q 178 513 182 807 q 192 -74 175 219 z "},"m":{"ha":982,"x_min":67,"x_max":899,"o":"m 175 232 q 178 78 175 151 q 185 -26 181 6 q 142 -36 167 -32 q 93 -40 117 -40 q 75 350 83 124 q 67 725 67 576 q 100 736 81 732 q 140 740 119 740 q 173 739 161 740 q 196 735 185 738 q 191 680 194 721 q 183 571 188 639 q 277 671 226 638 q 386 704 328 704 q 469 681 436 704 q 519 608 501 657 q 623 738 568 694 q 742 781 678 781 q 861 718 824 781 q 899 521 899 656 q 876 244 899 399 q 819 -31 853 90 q 766 -24 794 -29 q 718 -12 738 -19 q 774 270 756 138 q 793 525 793 403 q 773 651 793 613 q 707 689 753 689 q 617 643 661 689 q 539 515 572 597 q 541 476 540 492 q 542 446 542 460 q 525 222 542 347 q 488 15 508 97 q 440 22 467 17 q 390 33 413 26 q 427 269 417 174 q 438 447 438 365 q 417 574 438 536 q 351 613 397 613 q 256 569 303 613 q 179 451 210 526 q 176 338 178 396 q 175 232 175 281 z "},"n":{"ha":640,"x_min":69,"x_max":557,"o":"m 175 232 q 178 84 175 167 q 185 -36 181 1 q 142 -46 167 -42 q 93 -50 117 -50 q 76 328 83 96 q 69 721 69 560 q 103 732 83 728 q 143 736 122 736 q 170 735 157 736 q 197 731 183 733 q 191 651 194 706 q 186 579 188 596 q 283 693 232 656 q 392 731 335 731 q 517 667 478 731 q 557 469 557 604 q 540 226 557 361 q 503 15 522 92 q 453 22 481 17 q 404 33 426 26 q 440 275 429 169 q 451 474 451 381 q 430 600 451 561 q 360 639 408 639 q 263 590 311 639 q 181 457 215 542 q 176 311 178 357 q 175 232 175 265 z "},"o":{"ha":624,"x_min":42,"x_max":569,"o":"m 42 336 q 124 631 42 517 q 338 744 207 744 q 507 663 444 744 q 569 444 569 582 q 491 115 569 243 q 283 -14 413 -14 q 107 83 172 -14 q 42 336 42 179 m 458 386 q 422 597 458 528 q 313 667 386 667 q 197 575 246 667 q 147 350 147 483 q 189 145 147 228 q 301 63 231 63 q 411 158 364 63 q 458 386 458 253 z "},"p":{"ha":629,"x_min":83,"x_max":576,"o":"m 188 119 q 224 94 204 103 q 265 86 243 86 q 406 202 346 86 q 465 489 465 318 q 436 626 465 576 q 357 676 407 676 q 254 622 299 676 q 183 463 210 568 q 182 425 182 446 q 182 363 182 404 q 183 256 182 311 q 188 119 185 200 m 193 24 q 208 -133 199 -57 q 231 -292 217 -210 q 185 -302 211 -299 q 138 -306 160 -306 q 99 89 114 -128 q 83 483 83 306 q 86 631 83 565 q 96 760 89 696 q 135 774 114 769 q 181 779 157 779 q 197 778 188 779 q 221 774 207 776 q 205 696 211 733 q 194 622 199 658 q 284 733 232 694 q 399 772 336 772 q 528 697 479 772 q 576 497 576 622 q 486 152 576 290 q 265 14 396 14 q 229 16 247 14 q 193 24 211 18 z "},"q":{"ha":681,"x_min":54,"x_max":615,"o":"m 531 -325 q 504 -332 521 -329 q 472 -335 488 -335 q 456 -333 463 -335 q 440 -329 449 -332 q 433 -180 436 -301 q 428 58 429 -58 q 359 -37 399 -6 q 269 -69 319 -69 q 113 26 172 -69 q 54 272 54 121 q 143 592 54 472 q 383 711 232 711 q 428 707 403 711 q 475 696 454 703 q 481 728 476 703 q 490 768 486 754 q 526 780 510 776 q 561 783 542 783 q 589 781 574 783 q 615 775 604 779 q 540 300 563 594 q 531 -325 518 6 m 160 279 q 194 85 160 158 q 285 13 229 13 q 372 56 339 13 q 429 197 406 100 q 440 406 431 293 q 464 619 450 518 q 424 631 444 628 q 375 635 403 635 q 219 540 279 635 q 160 279 160 446 z "},"r":{"ha":499,"x_min":53,"x_max":467,"o":"m 206 -3 q 179 -10 194 -7 q 149 -12 164 -12 q 128 -12 138 -14 q 111 -8 119 -11 q 65 361 76 168 q 63 750 53 554 q 86 756 72 754 q 128 758 100 758 q 155 756 142 758 q 182 750 168 754 q 169 649 174 690 q 164 569 165 607 q 249 740 196 678 q 358 803 301 803 q 440 762 414 803 q 467 636 467 721 q 465 600 467 619 q 463 558 464 581 q 423 552 446 554 q 374 551 400 550 q 378 591 376 572 q 379 628 379 610 q 368 694 379 672 q 335 715 357 715 q 240 616 288 715 q 165 358 193 517 q 179 190 169 279 q 206 -3 189 100 z "},"s":{"ha":519,"x_min":32,"x_max":471,"o":"m 308 400 q 440 277 408 328 q 471 165 471 226 q 410 7 471 69 q 254 -56 349 -56 q 94 15 156 -56 q 32 203 32 86 q 76 213 53 210 q 121 215 99 217 q 153 69 118 122 q 256 17 189 17 q 335 51 306 17 q 365 143 365 85 q 339 231 365 190 q 225 336 313 272 q 90 465 122 411 q 58 583 58 518 q 111 723 58 671 q 254 775 164 775 q 390 725 340 775 q 458 565 439 675 q 416 551 438 556 q 371 543 394 546 q 331 663 360 625 q 253 700 303 700 q 187 672 211 700 q 163 597 163 644 q 190 507 163 549 q 308 400 218 465 z "},"t":{"ha":515,"x_min":29,"x_max":463,"o":"m 378 288 q 422 278 400 285 q 458 263 443 272 q 412 80 456 146 q 293 14 368 14 q 161 113 206 14 q 117 407 117 213 q 121 535 117 471 q 133 665 125 599 q 81 671 107 667 q 29 681 56 675 q 35 718 31 700 q 46 751 39 736 q 96 742 72 746 q 143 736 119 738 q 158 815 149 772 q 182 919 167 857 q 240 913 211 918 q 294 900 268 908 q 269 811 281 854 q 251 728 258 768 q 360 728 307 726 q 463 735 413 731 q 459 703 463 721 q 450 667 456 686 q 345 659 399 661 q 239 658 292 657 q 224 525 229 593 q 218 392 218 457 q 240 167 218 244 q 301 90 261 90 q 358 138 339 90 q 378 288 376 186 z "},"u":{"ha":569,"x_min":54,"x_max":515,"o":"m 260 -14 q 106 85 158 -14 q 54 375 54 183 q 70 570 54 472 q 110 711 86 668 q 135 717 122 715 q 160 719 147 719 q 183 717 172 719 q 203 710 193 715 q 171 557 182 643 q 160 371 160 471 q 191 150 160 236 q 275 64 222 64 q 374 164 340 64 q 408 444 408 264 q 403 560 408 500 q 392 644 397 621 q 443 660 413 654 q 501 665 474 665 q 512 589 508 633 q 515 499 515 544 q 451 118 515 250 q 260 -14 386 -14 z "},"v":{"ha":607,"x_min":7,"x_max":564,"o":"m 564 710 q 460 356 514 501 q 308 19 406 210 q 281 14 299 15 q 225 13 264 13 q 132 404 186 219 q 7 757 78 589 q 60 778 31 771 q 121 789 89 786 q 210 501 171 650 q 289 147 249 353 q 403 457 357 304 q 467 742 449 610 q 516 731 490 739 q 564 710 542 722 z "},"w":{"ha":917,"x_min":18,"x_max":881,"o":"m 629 -35 q 588 -43 613 -39 q 546 -49 564 -47 q 497 228 524 106 q 435 467 471 350 q 367 246 403 344 q 279 26 332 147 q 237 17 263 21 q 189 11 211 13 q 79 367 119 196 q 18 739 39 539 q 68 753 42 749 q 124 760 94 758 q 169 422 140 569 q 244 128 197 275 q 331 372 296 250 q 389 640 365 493 q 440 651 418 647 q 481 653 461 654 q 556 397 522 540 q 611 97 589 254 q 723 410 679 261 q 783 689 767 560 q 828 678 806 686 q 881 654 851 671 q 774 291 828 436 q 629 -35 721 146 z "},"x":{"ha":671,"x_min":-3,"x_max":638,"o":"m 625 10 q 585 -17 607 -4 q 544 -37 563 -31 q 451 152 499 63 q 356 322 404 242 q 217 165 290 243 q 51 -3 144 88 q 21 24 35 8 q -3 56 7 39 q 156 219 78 132 q 308 399 235 306 q 199 560 254 483 q 88 704 144 636 q 144 742 115 725 q 200 768 172 758 q 299 619 254 689 q 382 482 343 549 q 470 610 425 543 q 564 757 515 678 q 590 735 578 747 q 638 679 603 724 q 531 532 582 600 q 429 401 479 464 q 533 204 486 300 q 625 10 581 108 z "},"y":{"ha":618,"x_min":54,"x_max":536,"o":"m 536 269 q 466 -158 536 -10 q 272 -307 396 -307 q 135 -249 189 -307 q 63 -85 81 -190 q 110 -58 86 -69 q 161 -42 135 -47 q 203 -187 176 -143 q 279 -231 231 -231 q 380 -137 342 -231 q 426 133 418 -44 q 351 52 393 79 q 261 25 310 25 q 112 113 169 25 q 54 343 54 200 q 67 520 54 438 q 124 738 81 603 q 174 731 147 736 q 222 719 201 726 q 175 513 188 590 q 163 346 163 435 q 197 179 163 243 q 290 115 232 115 q 367 153 332 115 q 429 268 401 190 q 415 496 428 393 q 372 690 401 599 q 426 714 393 707 q 489 715 458 721 q 523 505 510 629 q 536 269 536 381 z "},"z":{"ha":613,"x_min":19,"x_max":569,"o":"m 533 68 q 526 23 532 46 q 510 -25 521 0 q 248 -11 364 -24 q 21 29 132 1 q 21 68 19 50 q 25 101 22 86 q 246 381 143 260 q 461 617 349 503 q 307 641 382 632 q 90 661 232 650 q 97 710 93 692 q 111 751 101 728 q 345 722 244 740 q 569 667 446 704 q 566 628 569 649 q 557 593 563 608 q 327 342 428 460 q 119 82 226 225 q 331 64 238 67 q 533 68 425 61 z "},"{":{"ha":410,"x_min":54,"x_max":357,"o":"m 357 -211 q 312 -226 333 -222 q 257 -231 290 -231 q 135 -180 182 -231 q 88 -50 88 -129 q 101 37 88 -4 q 149 135 114 78 q 204 235 190 200 q 218 299 218 269 q 191 370 218 342 q 124 399 164 399 q 95 397 110 399 q 63 392 81 396 q 55 456 56 421 q 60 515 54 490 q 87 510 74 511 q 118 508 100 508 q 186 535 161 508 q 211 610 211 563 q 201 660 211 635 q 142 764 192 685 q 92 863 106 822 q 78 950 78 904 q 126 1080 78 1029 q 249 1131 174 1131 q 302 1126 279 1131 q 346 1111 325 1121 q 344 1076 349 1094 q 329 1039 339 1057 q 299 1051 313 1047 q 265 1054 285 1054 q 201 1025 225 1054 q 176 946 176 996 q 188 879 176 913 q 236 785 200 846 q 288 686 276 722 q 300 614 300 650 q 270 516 300 558 q 188 456 240 474 q 274 398 243 440 q 306 296 306 356 q 294 224 306 260 q 244 122 282 188 q 196 25 207 60 q 185 -44 185 -10 q 208 -124 185 -94 q 274 -153 232 -153 q 307 -150 293 -153 q 339 -139 321 -147 q 352 -174 347 -156 q 357 -211 357 -193 z "},"|":{"ha":368,"x_min":129,"x_max":238,"o":"m 238 -226 q 198 -234 222 -231 q 158 -236 174 -237 q 136 331 143 13 q 131 990 129 649 q 180 1006 151 1001 q 236 1007 208 1010 q 225 409 224 781 q 238 -226 226 38 z "},"}":{"ha":435,"x_min":60,"x_max":360,"o":"m 268 136 q 315 40 301 81 q 326 -49 328 -1 q 275 -176 325 -126 q 149 -225 225 -226 q 98 -220 118 -224 q 61 -208 78 -217 q 63 -170 60 -189 q 76 -135 67 -151 q 110 -147 96 -143 q 140 -150 124 -150 q 205 -122 181 -151 q 229 -44 229 -93 q 219 23 231 -11 q 172 119 208 57 q 125 217 136 182 q 115 288 114 251 q 147 388 117 346 q 232 446 178 429 q 144 506 175 463 q 117 611 114 549 q 129 683 117 647 q 182 783 142 718 q 233 881 221 846 q 246 951 244 917 q 224 1030 247 1000 q 160 1061 200 1060 q 126 1058 139 1061 q 97 1047 113 1056 q 87 1081 90 1063 q 85 1121 83 1099 q 125 1134 104 1131 q 175 1136 146 1138 q 299 1084 251 1135 q 344 956 346 1033 q 328 869 343 908 q 276 771 314 829 q 218 667 232 701 q 204 603 204 632 q 230 531 204 558 q 294 503 256 503 q 331 503 319 503 q 354 507 343 504 q 360 441 360 476 q 353 383 360 406 q 323 390 335 389 q 297 392 311 392 q 231 366 256 393 q 204 293 206 339 q 212 242 203 267 q 268 136 221 217 z "},"~":{"ha":492,"x_min":35,"x_max":456,"o":"m 253 485 q 303 467 288 471 q 331 463 318 463 q 375 478 360 463 q 388 524 390 494 q 418 522 404 525 q 450 513 432 519 q 425 426 456 460 q 342 392 394 392 q 294 397 319 392 q 225 421 269 403 q 178 438 192 435 q 153 442 164 442 q 109 428 122 442 q 99 383 96 414 q 74 385 88 382 q 40 393 60 388 q 64 479 35 446 q 146 513 93 513 q 188 507 165 513 q 253 485 210 501 z "}," ":{"ha":306,"x_min":0,"x_max":0,"o":""},"¡":{"ha":301,"x_min":81,"x_max":206,"o":"m 136 771 q 158 769 147 771 q 188 765 169 768 q 190 709 190 736 q 188 657 190 682 q 135 656 158 656 q 88 657 113 656 q 85 679 86 668 q 85 711 85 690 q 83 743 83 732 q 81 765 82 754 q 108 769 94 768 q 136 771 121 771 m 186 474 q 201 161 196 306 q 206 -160 206 17 q 206 -211 206 -193 q 204 -242 206 -229 q 167 -254 183 -250 q 132 -258 150 -258 q 106 -257 117 -258 q 85 -253 94 -256 q 106 94 101 -92 q 106 475 111 279 q 119 478 111 478 q 138 479 126 479 q 157 478 147 479 q 186 474 167 476 z "},"¢":{"ha":594,"x_min":51,"x_max":569,"o":"m 553 267 q 454 126 532 188 q 286 64 376 64 q 247 67 265 64 q 208 75 228 69 q 181 3 196 39 q 149 -68 167 -33 q 103 -60 125 -67 q 65 -43 82 -54 q 108 39 90 1 q 140 115 126 76 q 74 221 97 154 q 51 376 51 288 q 136 716 51 581 q 351 851 221 851 q 399 847 376 851 q 439 835 421 843 q 464 908 451 876 q 490 965 476 940 q 526 959 507 965 q 569 939 546 953 q 526 853 542 886 q 500 789 511 819 q 538 715 525 760 q 551 613 551 671 q 504 596 531 601 q 446 590 478 590 q 420 732 446 685 q 344 779 394 779 q 213 659 268 779 q 157 383 157 539 q 195 205 157 269 q 303 140 233 140 q 399 183 354 140 q 481 311 444 226 q 524 294 501 308 q 553 267 546 281 z "},"£":{"ha":596,"x_min":31,"x_max":585,"o":"m 267 4 q 204 11 224 10 q 168 13 185 13 q 117 6 143 13 q 54 -15 90 0 q 39 14 44 -1 q 32 49 33 29 q 91 72 60 63 q 154 83 122 81 q 211 146 193 111 q 229 224 229 181 q 222 277 229 253 q 200 329 215 301 q 106 328 147 328 q 35 331 65 329 q 31 381 31 368 q 35 403 32 393 q 86 399 57 400 q 151 397 115 397 q 75 533 97 471 q 53 658 53 594 q 126 856 53 778 q 313 935 199 935 q 490 850 429 935 q 549 603 551 765 q 500 599 525 599 q 447 607 475 600 q 419 796 453 733 q 311 858 385 858 q 201 804 242 858 q 161 657 161 750 q 167 587 161 621 q 186 521 174 553 q 201 489 193 506 q 254 400 210 472 q 396 413 332 406 q 511 428 460 419 q 513 415 513 422 q 513 396 513 408 q 509 368 511 376 q 506 354 507 360 q 402 342 457 347 q 290 333 347 336 q 304 288 300 311 q 308 240 308 264 q 290 154 308 194 q 231 78 271 114 q 294 71 268 72 q 349 69 321 69 q 456 77 400 69 q 567 99 511 85 q 581 49 578 72 q 581 -1 585 25 q 437 -10 506 -10 q 267 4 368 -10 z "},"¤":{"ha":785,"x_min":18,"x_max":760,"o":"m 544 517 q 509 692 544 632 q 406 753 474 753 q 285 679 331 753 q 239 486 239 606 q 281 307 239 378 q 388 236 324 236 q 499 319 454 236 q 544 517 544 401 m 564 269 q 481 194 529 219 q 374 168 432 168 q 288 185 328 168 q 218 238 249 203 q 156 159 189 197 q 88 89 122 121 q 51 110 69 96 q 18 140 32 124 q 104 224 67 183 q 174 310 142 264 q 151 386 158 344 q 143 471 143 428 q 158 601 143 542 q 204 706 174 660 q 134 776 168 738 q 72 853 100 814 q 95 888 81 871 q 129 918 110 906 q 197 827 169 860 q 256 764 224 794 q 331 806 290 792 q 419 821 372 821 q 502 806 464 821 q 569 760 540 790 q 633 842 603 806 q 694 906 664 878 q 726 888 710 900 q 760 854 743 875 q 684 780 719 818 q 614 694 649 742 q 633 631 626 665 q 640 557 640 596 q 631 440 640 496 q 601 336 621 383 q 681 258 644 297 q 747 181 718 219 q 724 151 739 165 q 688 122 710 136 q 619 213 643 185 q 564 269 594 240 z "},"¥":{"ha":663,"x_min":29,"x_max":624,"o":"m 350 -57 q 307 -63 331 -61 q 261 -65 283 -65 q 269 83 267 17 q 274 210 272 150 q 165 214 214 211 q 71 221 117 217 q 72 265 71 246 q 78 296 74 283 q 177 288 129 290 q 274 283 225 285 q 273 303 274 293 q 272 336 272 314 q 272 367 272 357 q 271 388 271 378 q 270 391 271 389 q 268 394 269 393 q 172 397 219 394 q 75 404 124 399 q 76 448 75 429 q 82 479 78 467 q 169 472 132 474 q 240 468 207 469 q 149 670 199 574 q 29 882 100 767 q 48 899 38 892 q 71 913 58 907 q 90 921 79 917 q 117 931 101 925 q 233 701 188 803 q 324 465 278 600 q 448 699 399 590 q 542 944 497 807 q 578 935 561 943 q 624 906 596 926 q 539 695 588 794 q 411 468 490 596 q 490 473 447 469 q 594 483 532 476 q 595 464 596 476 q 594 449 594 451 q 590 430 593 439 q 583 411 588 421 q 472 400 524 404 q 369 394 419 396 q 371 340 371 368 q 369 285 371 313 q 469 290 417 286 q 586 300 522 293 q 586 279 586 286 q 585 265 586 272 q 581 249 583 258 q 575 226 579 239 q 456 217 504 219 q 368 213 408 214 q 361 66 365 129 q 350 -57 357 3 z "},"¦":{"ha":374,"x_min":129,"x_max":238,"o":"m 236 1007 q 228 778 231 903 q 225 522 225 653 q 183 516 206 518 q 133 515 160 514 q 130 737 131 621 q 131 990 129 853 q 180 1006 151 1001 q 236 1007 208 1010 m 238 -226 q 198 -234 222 -231 q 158 -236 174 -237 q 147 -3 151 -131 q 138 307 142 125 q 181 310 158 310 q 225 306 203 310 q 229 29 226 169 q 238 -226 232 -111 z "},"§":{"ha":511,"x_min":43,"x_max":468,"o":"m 243 489 q 164 445 192 476 q 136 367 136 414 q 165 283 136 321 q 260 200 193 244 q 337 244 310 213 q 364 322 364 275 q 336 406 364 368 q 243 489 308 443 m 449 -61 q 393 -198 449 -142 q 256 -254 338 -254 q 116 -203 167 -254 q 44 -46 65 -153 q 83 -29 63 -35 q 124 -24 104 -24 q 168 -145 136 -106 q 253 -185 200 -185 q 322 -155 296 -185 q 349 -76 349 -125 q 317 25 349 -19 q 206 122 285 69 q 78 236 113 185 q 43 350 43 288 q 78 459 43 411 q 178 533 113 507 q 93 628 119 579 q 67 740 67 678 q 123 883 67 825 q 263 940 179 940 q 400 891 350 940 q 468 735 450 842 q 432 720 451 725 q 388 714 413 715 q 347 833 376 796 q 267 869 318 869 q 193 840 219 869 q 167 757 167 811 q 197 656 167 699 q 299 565 226 613 q 424 453 390 504 q 458 338 458 401 q 424 229 458 276 q 325 154 390 182 q 419 53 390 104 q 449 -61 449 3 z "},"¨":{"ha":361,"x_min":28,"x_max":346,"o":"m 110 1035 q 144 1030 129 1033 q 171 1019 158 1026 q 142 947 157 989 q 119 864 128 904 q 85 862 107 863 q 32 863 63 861 q 28 884 29 874 q 28 906 28 894 q 34 969 28 935 q 51 1025 40 1003 q 79 1034 67 1032 q 110 1035 92 1036 m 285 1035 q 319 1030 304 1033 q 346 1019 333 1026 q 317 947 332 989 q 294 864 303 904 q 260 862 282 863 q 207 863 238 861 q 203 884 204 874 q 203 906 203 894 q 209 969 203 935 q 226 1025 215 1003 q 254 1034 242 1032 q 285 1035 267 1036 z "},"©":{"ha":1038,"x_min":58,"x_max":979,"o":"m 556 971 q 867 838 756 971 q 979 474 979 704 q 853 105 979 239 q 508 -29 728 -29 q 182 100 306 -29 q 58 442 58 229 q 195 826 58 681 q 556 971 332 971 m 519 43 q 792 156 696 43 q 888 476 888 269 q 796 785 888 674 q 539 897 704 897 q 263 770 376 897 q 150 457 150 643 q 249 154 150 265 q 519 43 349 43 m 622 394 q 663 392 644 396 q 694 382 682 389 q 642 246 689 293 q 513 199 596 199 q 378 259 426 199 q 331 431 331 319 q 394 656 331 567 q 560 744 458 744 q 661 702 626 744 q 697 576 696 660 q 662 563 681 567 q 611 558 643 558 q 597 654 614 624 q 543 685 581 685 q 463 618 496 685 q 429 451 429 551 q 456 309 429 358 q 532 260 482 260 q 602 296 578 260 q 622 394 626 332 z "},"ª":{"ha":354,"x_min":8,"x_max":319,"o":"m 319 872 q 306 741 319 824 q 272 586 292 658 q 238 589 257 586 q 200 596 219 592 q 205 617 203 607 q 208 638 207 628 q 174 623 193 628 q 132 618 154 618 q 42 647 76 618 q 8 722 8 675 q 51 798 8 772 q 176 824 93 824 q 213 824 204 824 q 231 822 222 824 q 231 835 231 829 q 231 849 231 842 q 218 942 231 914 q 176 969 206 969 q 128 941 147 969 q 107 869 108 913 q 59 881 78 871 q 31 907 40 890 q 85 990 43 957 q 185 1022 128 1022 q 285 984 251 1022 q 319 872 319 946 m 99 718 q 114 679 99 693 q 156 665 129 665 q 188 670 172 665 q 217 685 203 675 q 224 723 221 703 q 229 781 226 743 q 131 767 164 783 q 99 718 99 751 z "},"«":{"ha":654,"x_min":13,"x_max":617,"o":"m 617 154 q 583 111 597 125 q 549 88 568 97 q 406 218 467 150 q 301 367 346 286 q 428 470 367 407 q 542 614 489 533 q 585 582 569 596 q 613 551 601 568 q 510 436 561 485 q 404 350 460 388 q 498 248 444 297 q 617 154 551 199 m 326 154 q 294 114 310 129 q 260 88 279 99 q 117 218 178 150 q 13 367 57 286 q 137 469 76 407 q 253 614 197 532 q 297 581 281 596 q 322 551 313 567 q 224 440 274 489 q 115 350 174 390 q 207 248 154 297 q 326 154 260 199 z "},"¬":{"ha":506,"x_min":35,"x_max":471,"o":"m 465 554 q 469 436 471 499 q 460 304 468 374 q 425 306 442 304 q 385 311 408 307 q 394 390 392 353 q 394 475 396 428 q 215 469 307 468 q 35 482 122 471 q 37 519 35 501 q 43 557 39 536 q 243 544 146 544 q 465 554 340 543 z "},"­":{"ha":0,"x_min":0,"x_max":0,"o":""},"®":{"ha":1038,"x_min":58,"x_max":979,"o":"m 556 971 q 867 838 756 971 q 979 474 979 704 q 853 105 979 239 q 508 -29 728 -29 q 182 100 306 -29 q 58 442 58 229 q 195 826 58 681 q 556 971 332 971 m 150 457 q 249 154 150 265 q 519 43 349 43 q 792 156 696 43 q 888 476 888 269 q 796 785 888 674 q 539 897 704 897 q 263 770 376 897 q 150 457 150 643 m 736 211 q 701 188 724 199 q 654 169 679 176 q 583 320 613 265 q 518 424 553 375 q 478 411 492 415 q 453 403 465 407 q 449 297 451 350 q 440 193 446 244 q 400 193 421 192 q 364 199 379 194 q 367 272 367 239 q 368 340 368 304 q 363 538 368 456 q 347 719 358 621 q 428 759 382 744 q 519 774 474 774 q 649 733 601 774 q 697 626 697 693 q 670 532 697 574 q 588 457 643 490 q 662 353 625 414 q 736 211 699 292 m 447 704 q 453 583 451 631 q 454 493 454 536 q 454 476 454 485 q 454 460 454 468 q 569 517 532 479 q 606 614 606 554 q 581 691 606 664 q 511 718 556 718 q 479 715 496 718 q 447 704 463 711 z "},"¯":{"ha":361,"x_min":42,"x_max":317,"o":"m 314 885 q 158 878 228 875 q 43 896 89 881 q 43 935 42 913 q 47 974 44 958 q 183 959 115 961 q 315 965 250 957 q 317 928 317 947 q 314 885 317 910 z "},"°":{"ha":340,"x_min":14,"x_max":326,"o":"m 14 874 q 59 987 14 944 q 182 1029 104 1029 q 288 994 249 1029 q 326 900 326 958 q 283 771 326 818 q 163 724 239 724 q 55 765 96 724 q 14 874 14 807 m 249 888 q 229 950 249 928 q 175 972 210 972 q 112 944 136 972 q 88 872 88 917 q 109 808 88 832 q 167 785 131 785 q 225 813 201 785 q 249 888 249 842 z "},"±":{"ha":506,"x_min":29,"x_max":465,"o":"m 289 440 q 285 352 288 396 q 276 265 282 308 q 240 263 258 263 q 203 265 221 263 q 210 345 207 304 q 214 439 213 386 q 121 444 165 440 q 35 453 76 447 q 37 490 35 472 q 43 526 39 508 q 129 518 88 521 q 214 514 171 515 q 210 600 213 558 q 204 685 208 642 q 239 690 221 689 q 276 688 257 690 q 285 603 282 646 q 289 515 288 560 q 362 517 321 515 q 465 525 403 519 q 463 488 465 506 q 457 453 461 469 q 374 444 417 447 q 289 440 332 442 m 29 149 q 31 183 29 167 q 36 224 32 200 q 237 210 139 211 q 458 221 335 210 q 457 181 458 199 q 451 149 456 164 q 241 136 350 136 q 29 149 132 136 z "},"²":{"ha":382,"x_min":-1,"x_max":367,"o":"m 364 481 q 358 442 363 461 q 346 403 354 424 q 147 421 235 408 q -1 451 58 433 q 1 484 -1 471 q 7 508 3 497 q 210 686 149 608 q 271 847 271 764 q 253 911 271 888 q 203 935 235 935 q 144 902 168 935 q 107 804 119 869 q 60 808 81 804 q 19 821 39 813 q 87 948 39 904 q 206 992 135 992 q 322 949 278 992 q 367 836 367 906 q 301 669 367 756 q 108 494 235 582 q 234 484 176 488 q 364 481 292 481 z "},"³":{"ha":404,"x_min":14,"x_max":394,"o":"m 394 569 q 342 431 394 485 q 210 378 290 378 q 83 430 132 378 q 29 574 33 482 q 69 585 47 582 q 118 589 92 589 q 144 476 118 517 q 214 436 169 436 q 276 465 254 436 q 299 547 299 494 q 251 667 299 626 q 118 701 204 708 q 111 735 113 725 q 110 754 110 746 q 212 824 168 788 q 288 906 256 861 q 147 891 211 900 q 22 868 83 882 q 16 902 18 883 q 15 942 14 921 q 190 970 97 960 q 371 982 282 981 q 378 949 375 968 q 381 910 381 931 q 312 824 349 861 q 222 750 275 788 q 350 687 306 733 q 394 569 394 640 z "},"´":{"ha":361,"x_min":92,"x_max":253,"o":"m 253 1033 q 224 915 246 974 q 164 793 201 856 q 131 796 147 793 q 92 804 114 799 q 128 926 115 868 q 147 1039 142 983 q 201 1040 172 1042 q 253 1033 231 1039 z "},"µ":{"ha":615,"x_min":51,"x_max":547,"o":"m 128 63 q 144 -117 133 -29 q 169 -271 156 -204 q 149 -274 160 -274 q 119 -275 139 -275 q 84 -272 101 -275 q 54 -261 67 -268 q 52 70 51 -35 q 57 275 53 175 q 78 504 61 382 q 114 711 94 626 q 163 705 135 710 q 213 693 192 700 q 176 451 188 557 q 165 253 165 346 q 187 126 165 164 q 257 88 208 88 q 356 139 307 88 q 439 281 404 190 q 440 553 443 429 q 426 764 436 676 q 471 773 443 769 q 522 776 499 776 q 540 405 532 638 q 547 4 547 172 q 513 -5 533 -1 q 474 -8 492 -8 q 455 -8 464 -8 q 425 -4 446 -7 q 430 59 428 22 q 435 158 432 96 q 340 39 390 79 q 233 -1 289 -1 q 171 15 197 -1 q 128 63 144 31 z "},"¶":{"ha":894,"x_min":94,"x_max":803,"o":"m 792 996 q 794 292 803 604 q 756 -382 786 -21 q 716 -387 736 -386 q 676 -387 696 -389 q 714 381 711 156 q 701 940 717 607 q 674 949 689 944 q 638 958 658 953 q 642 276 650 547 q 601 -382 633 6 q 562 -387 583 -386 q 522 -386 540 -387 q 549 90 543 -49 q 554 347 554 229 q 206 526 318 419 q 94 783 94 632 q 191 985 94 911 q 457 1060 288 1060 q 614 1047 542 1060 q 792 996 686 1033 z "},"·":{"ha":232,"x_min":53,"x_max":185,"o":"m 53 389 q 121 398 89 397 q 185 393 153 399 q 181 326 183 349 q 175 281 179 303 q 113 276 140 276 q 57 281 86 276 q 56 298 57 289 q 56 324 56 307 q 53 363 54 349 q 53 389 53 376 z "},"¸":{"ha":363,"x_min":24,"x_max":318,"o":"m 318 -181 q 277 -276 318 -240 q 168 -312 236 -312 q 78 -287 115 -312 q 24 -211 42 -261 q 57 -191 44 -197 q 82 -179 69 -185 q 115 -230 93 -211 q 165 -249 138 -249 q 215 -233 197 -249 q 232 -187 232 -217 q 215 -146 232 -162 q 171 -129 197 -129 q 145 -133 157 -129 q 121 -143 133 -136 q 99 -124 110 -135 q 85 -107 89 -114 q 114 -48 103 -78 q 129 13 125 -18 l 196 0 q 188 -38 193 -19 q 174 -76 183 -57 q 192 -74 186 -75 q 203 -74 197 -74 q 287 -103 256 -74 q 318 -181 318 -132 z "},"¹":{"ha":333,"x_min":7,"x_max":329,"o":"m 217 385 q 189 379 197 381 q 172 378 181 378 q 153 377 161 376 q 138 379 144 378 q 142 455 139 419 q 153 546 146 490 q 173 713 160 625 q 203 878 186 800 q 135 831 172 856 q 57 782 99 807 q 26 815 36 800 q 7 847 15 829 q 148 927 81 883 q 274 1021 215 971 q 306 1005 293 1013 q 329 986 318 997 q 263 730 294 901 q 217 385 231 558 z "},"º":{"ha":338,"x_min":10,"x_max":328,"o":"m 10 790 q 60 953 10 890 q 192 1017 111 1017 q 292 974 256 1017 q 328 857 328 932 q 279 676 328 747 q 149 604 231 604 q 47 656 85 604 q 10 790 10 707 m 236 821 q 220 926 236 892 q 172 960 204 960 q 119 915 140 960 q 99 801 99 869 q 117 700 99 740 q 167 660 135 660 q 216 708 196 660 q 236 821 236 756 z "},"»":{"ha":654,"x_min":36,"x_max":640,"o":"m 640 367 q 538 219 597 288 q 394 88 478 151 q 358 113 374 99 q 326 154 343 128 q 445 248 392 199 q 539 350 499 297 q 433 436 483 388 q 331 551 382 485 q 358 583 342 568 q 403 615 375 597 q 516 472 456 535 q 640 367 576 408 m 351 367 q 247 218 307 286 q 104 88 186 150 q 69 113 85 99 q 36 154 54 128 q 156 248 103 199 q 249 350 210 297 q 138 441 189 392 q 40 551 88 490 q 68 583 51 568 q 113 615 85 597 q 226 471 167 533 q 351 367 286 408 z "},"¼":{"ha":974,"x_min":13,"x_max":958,"o":"m 222 418 q 194 413 203 414 q 178 411 186 411 q 158 410 167 410 q 143 413 150 411 q 148 488 144 453 q 158 579 151 524 q 178 746 165 658 q 208 911 192 833 q 141 865 178 889 q 63 815 104 840 q 31 848 42 833 q 13 881 21 863 q 153 960 86 917 q 279 1054 221 1004 q 311 1038 299 1046 q 335 1019 324 1031 q 268 763 300 935 q 222 418 236 592 m 618 1085 q 663 1067 642 1078 q 701 1040 683 1056 q 478 527 593 771 q 188 -42 363 283 q 169 -35 178 -39 q 150 -25 160 -32 q 132 -13 143 -21 q 117 -3 121 -6 q 383 535 269 290 q 618 1085 496 781 m 813 125 q 808 52 810 89 q 804 -21 806 15 q 783 -24 794 -24 q 757 -25 771 -25 q 740 -24 747 -25 q 728 -21 733 -24 q 726 13 726 -6 q 725 65 725 31 q 725 108 725 93 q 726 133 725 122 q 603 148 660 140 q 500 163 546 156 q 491 182 494 172 q 483 208 488 192 q 617 428 568 329 q 711 668 667 528 q 740 665 725 668 q 806 646 756 663 q 709 426 761 528 q 592 229 657 324 q 667 215 633 221 q 731 206 700 210 q 739 285 733 244 q 753 363 744 325 q 776 369 763 367 q 808 374 789 372 q 824 373 813 374 q 853 369 835 372 q 835 294 843 338 q 819 196 826 250 q 905 189 876 190 q 958 186 933 188 q 952 148 957 167 q 940 117 947 129 q 878 120 911 118 q 813 125 846 122 z "},"½":{"ha":938,"x_min":13,"x_max":883,"o":"m 222 418 q 194 413 203 414 q 178 411 186 411 q 158 410 167 410 q 143 413 150 411 q 148 488 144 453 q 158 579 151 524 q 178 746 165 658 q 208 911 192 833 q 141 865 178 889 q 63 815 104 840 q 31 848 42 833 q 13 881 21 863 q 153 960 86 917 q 279 1054 221 1004 q 311 1038 299 1046 q 335 1019 324 1031 q 268 763 300 935 q 222 418 236 592 m 608 1086 q 653 1068 632 1079 q 692 1042 674 1057 q 468 528 583 772 q 178 -40 353 285 q 159 -34 168 -37 q 140 -24 150 -31 q 122 -12 133 -19 q 107 -1 111 -4 q 373 537 260 292 q 608 1086 486 782 m 881 76 q 875 38 879 57 q 863 -1 871 19 q 663 17 751 4 q 515 47 575 29 q 517 80 515 67 q 524 104 519 93 q 726 282 665 204 q 788 443 788 360 q 769 507 788 483 q 719 531 751 531 q 660 498 685 531 q 624 400 636 465 q 576 404 597 400 q 536 417 556 408 q 603 544 556 500 q 722 588 651 588 q 839 544 794 588 q 883 432 883 501 q 817 265 883 351 q 625 90 751 178 q 751 80 693 83 q 881 76 808 76 z "},"¾":{"ha":1043,"x_min":33,"x_max":1039,"o":"m 728 1085 q 772 1067 751 1078 q 811 1040 793 1056 q 588 527 703 771 q 297 -42 472 283 q 278 -35 288 -39 q 260 -25 269 -32 q 242 -13 253 -21 q 226 -3 231 -6 q 492 535 379 290 q 728 1085 606 781 m 414 640 q 362 502 414 556 q 229 449 310 449 q 102 501 151 449 q 49 644 53 553 q 89 656 67 653 q 138 660 111 660 q 163 547 138 588 q 233 507 189 507 q 296 536 274 507 q 318 618 318 565 q 271 738 318 697 q 138 772 224 779 q 131 806 132 796 q 129 825 129 817 q 231 895 188 858 q 307 976 275 932 q 167 962 231 971 q 42 939 103 953 q 35 973 38 954 q 35 1013 33 992 q 209 1041 117 1031 q 390 1053 301 1051 q 397 1020 394 1039 q 400 981 400 1001 q 331 895 368 932 q 242 821 294 858 q 369 758 325 804 q 414 640 414 711 m 893 126 q 888 53 890 90 q 885 -19 886 17 q 863 -23 875 -22 q 838 -24 851 -24 q 821 -23 828 -24 q 808 -19 814 -22 q 806 14 807 -4 q 806 67 806 32 q 806 109 806 94 q 807 135 806 124 q 683 149 740 142 q 581 164 626 157 q 572 183 575 174 q 564 210 568 193 q 698 430 649 331 q 792 669 747 529 q 821 667 806 669 q 886 647 836 664 q 790 427 842 529 q 672 231 738 325 q 747 217 714 222 q 811 207 781 211 q 819 286 814 246 q 833 364 825 326 q 856 371 843 368 q 889 375 869 374 q 904 374 893 375 q 933 371 915 374 q 915 295 924 339 q 900 197 907 251 q 985 190 957 192 q 1039 188 1014 189 q 1033 149 1038 168 q 1021 118 1028 131 q 959 122 992 119 q 893 126 926 124 z "},"¿":{"ha":511,"x_min":40,"x_max":511,"o":"m 229 725 q 227 750 228 742 q 226 767 226 758 q 253 771 240 769 q 282 772 267 772 q 307 771 294 772 q 332 765 319 769 q 334 713 333 739 q 333 657 335 686 q 278 656 300 656 q 233 658 256 657 q 231 685 232 672 q 229 725 231 699 m 511 8 q 441 -217 503 -142 q 265 -293 379 -293 q 103 -220 165 -293 q 40 -31 40 -147 q 97 150 40 74 q 253 260 153 226 q 253 388 253 343 q 254 476 253 432 q 289 481 269 479 q 328 481 308 482 q 343 309 338 374 q 349 224 349 244 q 199 136 250 200 q 149 -26 149 72 q 183 -167 149 -114 q 274 -219 217 -219 q 377 -155 340 -219 q 414 24 414 -90 q 464 19 439 24 q 511 8 489 15 z "},"À":{"ha":854,"x_min":26,"x_max":826,"o":"m 826 -111 q 781 -132 804 -124 q 719 -146 757 -140 q 678 106 699 -3 q 635 304 657 214 q 442 299 536 306 q 265 281 347 293 q 201 132 236 208 q 122 -29 165 56 q 72 -12 96 -24 q 26 21 49 0 q 228 448 150 239 q 381 979 307 657 q 443 975 418 978 q 492 967 468 972 q 702 463 628 703 q 826 -111 776 222 m 439 849 q 372 585 406 703 q 297 363 338 468 q 443 378 364 372 q 614 388 522 385 q 538 621 579 510 q 439 849 496 732 m 415 1285 q 434 1172 421 1229 q 471 1049 447 1114 q 430 1041 446 1043 q 399 1038 414 1039 q 338 1163 360 1104 q 310 1278 317 1221 q 360 1287 329 1285 q 415 1285 390 1289 z "},"Á":{"ha":854,"x_min":26,"x_max":826,"o":"m 826 -111 q 781 -132 804 -124 q 719 -146 757 -140 q 678 106 699 -3 q 635 304 657 214 q 442 299 536 306 q 265 281 347 293 q 201 132 236 208 q 122 -29 165 56 q 72 -12 96 -24 q 26 21 49 0 q 228 448 150 239 q 381 979 307 657 q 443 975 418 978 q 492 967 468 972 q 702 463 628 703 q 826 -111 776 222 m 439 849 q 372 585 406 703 q 297 363 338 468 q 443 378 364 372 q 614 388 522 385 q 538 621 579 510 q 439 849 496 732 m 563 1278 q 533 1159 556 1218 q 474 1038 511 1100 q 440 1040 457 1038 q 401 1049 424 1043 q 438 1170 425 1113 q 457 1283 451 1228 q 511 1285 482 1286 q 563 1278 540 1283 z "},"Â":{"ha":854,"x_min":26,"x_max":826,"o":"m 826 -111 q 781 -132 804 -124 q 719 -146 757 -140 q 678 106 699 -3 q 635 304 657 214 q 442 299 536 306 q 265 281 347 293 q 201 132 236 208 q 122 -29 165 56 q 72 -12 96 -24 q 26 21 49 0 q 228 448 150 239 q 381 979 307 657 q 443 975 418 978 q 492 967 468 972 q 702 463 628 703 q 826 -111 776 222 m 439 849 q 372 585 406 703 q 297 363 338 468 q 443 378 364 372 q 614 388 522 385 q 538 621 579 510 q 439 849 496 732 m 621 1069 q 592 1044 604 1053 q 564 1029 579 1036 q 493 1088 521 1061 q 442 1149 465 1115 q 391 1088 419 1115 q 319 1028 363 1060 q 291 1044 304 1035 q 264 1068 278 1054 q 349 1156 319 1118 q 401 1246 378 1194 q 419 1249 408 1247 q 442 1250 431 1250 q 460 1249 449 1250 q 482 1247 471 1249 q 530 1164 501 1201 q 621 1069 558 1126 z "},"Ã":{"ha":854,"x_min":26,"x_max":826,"o":"m 826 -111 q 781 -132 804 -124 q 719 -146 757 -140 q 678 106 699 -3 q 635 304 657 214 q 442 299 536 306 q 265 281 347 293 q 201 132 236 208 q 122 -29 165 56 q 72 -12 96 -24 q 26 21 49 0 q 228 448 150 239 q 381 979 307 657 q 443 975 418 978 q 492 967 468 972 q 702 463 628 703 q 826 -111 776 222 m 439 849 q 372 585 406 703 q 297 363 338 468 q 443 378 364 372 q 614 388 522 385 q 538 621 579 510 q 439 849 496 732 m 439 1133 q 472 1117 461 1121 q 493 1114 483 1114 q 521 1126 514 1114 q 526 1167 528 1139 q 559 1165 544 1168 q 590 1154 574 1163 q 572 1067 594 1097 q 504 1038 550 1038 q 468 1043 486 1038 q 422 1065 450 1049 q 392 1081 401 1078 q 374 1085 382 1085 q 348 1072 356 1085 q 342 1035 340 1060 q 309 1036 326 1033 q 278 1044 292 1039 q 296 1129 274 1099 q 363 1160 318 1160 q 395 1155 379 1160 q 439 1133 411 1150 z "},"Ä":{"ha":854,"x_min":26,"x_max":826,"o":"m 826 -111 q 781 -132 804 -124 q 719 -146 757 -140 q 678 106 699 -3 q 635 304 657 214 q 442 299 536 306 q 265 281 347 293 q 201 132 236 208 q 122 -29 165 56 q 72 -12 96 -24 q 26 21 49 0 q 228 448 150 239 q 381 979 307 657 q 443 975 418 978 q 492 967 468 972 q 702 463 628 703 q 826 -111 776 222 m 439 849 q 372 585 406 703 q 297 363 338 468 q 443 378 364 372 q 614 388 522 385 q 538 621 579 510 q 439 849 496 732 m 372 1213 q 406 1208 392 1211 q 433 1197 421 1204 q 405 1124 419 1167 q 382 1042 390 1082 q 347 1040 369 1040 q 294 1040 325 1039 q 291 1062 292 1051 q 290 1083 290 1072 q 297 1147 290 1113 q 314 1203 303 1181 q 342 1212 329 1210 q 372 1213 354 1214 m 547 1213 q 581 1208 567 1211 q 608 1197 596 1204 q 580 1124 594 1167 q 557 1042 565 1082 q 522 1040 544 1040 q 469 1040 500 1039 q 466 1062 467 1051 q 465 1083 465 1072 q 472 1147 465 1113 q 489 1203 478 1181 q 517 1212 504 1210 q 547 1213 529 1214 z "},"Å":{"ha":854,"x_min":26,"x_max":826,"o":"m 826 -111 q 781 -132 804 -124 q 719 -146 757 -140 q 678 106 699 -3 q 635 304 657 214 q 442 299 536 306 q 265 281 347 293 q 201 132 236 208 q 122 -29 165 56 q 72 -12 96 -24 q 26 21 49 0 q 228 448 150 239 q 381 979 307 657 q 443 975 418 978 q 492 967 468 972 q 702 463 628 703 q 826 -111 776 222 m 439 849 q 372 585 406 703 q 297 363 338 468 q 443 378 364 372 q 614 388 522 385 q 538 621 579 510 q 439 849 496 732 m 315 1154 q 356 1256 315 1218 q 464 1293 396 1293 q 552 1263 519 1293 q 585 1182 585 1233 q 546 1072 585 1113 q 440 1032 507 1032 q 351 1067 386 1032 q 315 1154 315 1101 m 506 1172 q 492 1226 506 1207 q 454 1246 478 1246 q 409 1221 426 1246 q 392 1154 392 1196 q 408 1103 392 1122 q 447 1083 424 1083 q 490 1108 474 1083 q 506 1172 506 1132 z "},"Æ":{"ha":1139,"x_min":29,"x_max":1085,"o":"m 1083 -22 q 842 -49 964 -39 q 592 -61 719 -58 q 570 96 581 14 q 549 275 560 178 q 407 267 478 274 q 274 249 336 260 q 204 110 242 181 q 124 -36 167 39 q 72 -16 94 -29 q 29 17 49 -3 q 254 451 167 240 q 422 971 342 663 q 458 968 439 971 q 515 957 476 965 q 807 1001 693 989 q 1050 1015 921 1013 q 1049 969 1051 992 q 1043 925 1047 947 q 826 917 931 925 q 617 890 722 908 q 618 705 615 793 q 626 526 621 617 q 838 561 768 551 q 979 576 908 571 q 987 531 985 551 q 988 489 989 510 q 817 474 893 483 q 633 447 742 465 q 653 246 640 356 q 682 22 665 136 q 893 38 797 26 q 1076 67 989 49 q 1083 24 1081 50 q 1083 -22 1085 -1 m 501 883 q 415 598 461 732 q 311 333 368 464 q 419 347 363 342 q 540 356 476 353 q 515 639 525 504 q 501 883 506 774 z "},"Ç":{"ha":760,"x_min":64,"x_max":683,"o":"m 589 308 q 637 306 615 310 q 679 290 658 301 q 594 38 671 124 q 381 -49 518 -49 q 147 65 229 -49 q 64 390 64 179 q 170 804 64 646 q 449 963 276 963 q 626 884 569 963 q 679 646 683 806 q 633 627 660 633 q 571 622 606 621 q 547 821 581 760 q 429 882 514 882 q 253 751 325 882 q 181 414 181 621 q 236 131 181 229 q 396 32 292 32 q 542 106 490 32 q 589 308 593 181 m 526 -214 q 485 -310 526 -274 q 376 -346 444 -346 q 287 -320 324 -346 q 232 -244 250 -294 q 265 -224 253 -231 q 290 -212 278 -218 q 324 -263 301 -244 q 374 -282 346 -282 q 423 -266 406 -282 q 440 -221 440 -250 q 423 -179 440 -196 q 379 -162 406 -162 q 353 -166 365 -162 q 329 -176 342 -169 q 308 -158 318 -168 q 293 -140 297 -147 q 322 -81 311 -111 q 338 -21 333 -51 l 404 -33 q 397 -72 401 -53 q 382 -110 392 -90 q 400 -108 394 -108 q 411 -107 406 -107 q 495 -136 464 -107 q 526 -214 526 -165 z "},"È":{"ha":722,"x_min":81,"x_max":669,"o":"m 667 -18 q 437 -44 557 -35 q 175 -57 317 -53 q 109 485 135 210 q 81 960 83 761 q 390 1006 274 993 q 635 1021 507 1018 q 633 973 635 996 q 626 931 631 950 q 408 920 513 929 q 201 894 303 911 q 201 722 199 811 q 211 531 204 633 q 417 565 344 554 q 563 581 490 575 q 570 540 568 561 q 571 494 572 519 q 388 477 465 486 q 217 453 311 468 q 238 232 226 339 q 265 28 250 125 q 476 42 381 31 q 660 72 571 53 q 667 26 665 53 q 667 -18 669 0 m 356 1297 q 374 1184 361 1242 q 411 1061 388 1126 q 370 1053 386 1056 q 339 1050 354 1051 q 278 1175 300 1117 q 250 1290 257 1233 q 300 1299 269 1297 q 356 1297 331 1301 z "},"É":{"ha":722,"x_min":81,"x_max":669,"o":"m 667 -18 q 437 -44 557 -35 q 175 -57 317 -53 q 109 485 135 210 q 81 960 83 761 q 390 1006 274 993 q 635 1021 507 1018 q 633 973 635 996 q 626 931 631 950 q 408 920 513 929 q 201 894 303 911 q 201 722 199 811 q 211 531 204 633 q 417 565 344 554 q 563 581 490 575 q 570 540 568 561 q 571 494 572 519 q 388 477 465 486 q 217 453 311 468 q 238 232 226 339 q 265 28 250 125 q 476 42 381 31 q 660 72 571 53 q 667 26 665 53 q 667 -18 669 0 m 436 1294 q 407 1176 429 1235 q 347 1054 385 1117 q 314 1057 331 1054 q 275 1065 297 1060 q 312 1187 299 1129 q 331 1300 325 1244 q 385 1301 356 1303 q 436 1294 414 1300 z "},"Ê":{"ha":722,"x_min":81,"x_max":669,"o":"m 667 -18 q 437 -44 557 -35 q 175 -57 317 -53 q 109 485 135 210 q 81 960 83 761 q 390 1006 274 993 q 635 1021 507 1018 q 633 973 635 996 q 626 931 631 950 q 408 920 513 929 q 201 894 303 911 q 201 722 199 811 q 211 531 204 633 q 417 565 344 554 q 563 581 490 575 q 570 540 568 561 q 571 494 572 519 q 388 477 465 486 q 217 453 311 468 q 238 232 226 339 q 265 28 250 125 q 476 42 381 31 q 660 72 571 53 q 667 26 665 53 q 667 -18 669 0 m 536 1101 q 507 1076 519 1085 q 479 1061 494 1068 q 408 1120 436 1093 q 357 1181 381 1147 q 306 1119 335 1147 q 235 1060 278 1092 q 206 1076 219 1067 q 179 1100 193 1086 q 264 1188 235 1150 q 317 1278 293 1226 q 335 1281 324 1279 q 357 1282 346 1282 q 375 1281 364 1282 q 397 1279 386 1281 q 445 1196 417 1233 q 536 1101 474 1158 z "},"Ë":{"ha":722,"x_min":81,"x_max":669,"o":"m 667 -18 q 437 -44 557 -35 q 175 -57 317 -53 q 109 485 135 210 q 81 960 83 761 q 390 1006 274 993 q 635 1021 507 1018 q 633 973 635 996 q 626 931 631 950 q 408 920 513 929 q 201 894 303 911 q 201 722 199 811 q 211 531 204 633 q 417 565 344 554 q 563 581 490 575 q 570 540 568 561 q 571 494 572 519 q 388 477 465 486 q 217 453 311 468 q 238 232 226 339 q 265 28 250 125 q 476 42 381 31 q 660 72 571 53 q 667 26 665 53 q 667 -18 669 0 m 289 1244 q 323 1240 308 1243 q 350 1229 338 1236 q 322 1156 336 1199 q 299 1074 307 1114 q 264 1072 286 1072 q 211 1072 242 1071 q 208 1094 208 1083 q 207 1115 207 1104 q 213 1178 207 1144 q 231 1235 219 1213 q 258 1244 246 1242 q 289 1244 271 1246 m 464 1244 q 498 1240 483 1243 q 525 1229 513 1236 q 497 1156 511 1199 q 474 1074 482 1114 q 439 1072 461 1072 q 386 1072 417 1071 q 383 1094 383 1083 q 382 1115 382 1104 q 388 1178 382 1144 q 406 1235 394 1213 q 433 1244 421 1242 q 464 1244 446 1246 z "},"Ì":{"ha":326,"x_min":17,"x_max":217,"o":"m 217 676 q 215 237 217 365 q 207 -28 213 108 q 168 -35 193 -32 q 115 -39 143 -37 q 113 479 118 238 q 92 926 107 721 q 127 940 108 936 q 165 944 146 944 q 187 944 176 944 q 210 940 197 943 q 215 821 214 882 q 217 676 217 760 m 122 1269 q 141 1156 128 1214 q 178 1033 154 1099 q 137 1026 153 1028 q 106 1022 121 1024 q 45 1147 67 1089 q 17 1263 24 1206 q 67 1272 36 1269 q 122 1269 97 1274 z "},"Í":{"ha":326,"x_min":92,"x_max":257,"o":"m 217 676 q 215 237 217 365 q 207 -28 213 108 q 168 -35 193 -32 q 115 -39 143 -37 q 113 479 118 238 q 92 926 107 721 q 127 940 108 936 q 165 944 146 944 q 187 944 176 944 q 210 940 197 943 q 215 821 214 882 q 217 676 217 760 m 257 1267 q 228 1148 250 1207 q 168 1026 206 1089 q 135 1029 151 1026 q 96 1038 118 1032 q 133 1159 119 1101 q 151 1272 146 1217 q 206 1274 176 1275 q 257 1267 235 1272 z "},"Î":{"ha":326,"x_min":-39,"x_max":318,"o":"m 217 676 q 215 237 217 365 q 207 -28 213 108 q 168 -35 193 -32 q 115 -39 143 -37 q 113 479 118 238 q 92 926 107 721 q 127 940 108 936 q 165 944 146 944 q 187 944 176 944 q 210 940 197 943 q 215 821 214 882 q 217 676 217 760 m 318 1053 q 289 1028 301 1036 q 261 1013 276 1019 q 190 1072 218 1044 q 139 1132 163 1099 q 88 1071 117 1099 q 17 1011 60 1043 q -12 1028 1 1018 q -39 1051 -25 1038 q 46 1140 17 1101 q 99 1229 75 1178 q 117 1232 106 1231 q 139 1233 128 1233 q 157 1233 146 1233 q 179 1231 168 1232 q 227 1147 199 1185 q 318 1053 256 1110 z "},"Ï":{"ha":326,"x_min":0,"x_max":318,"o":"m 217 676 q 215 237 217 365 q 207 -28 213 108 q 168 -35 193 -32 q 115 -39 143 -37 q 113 479 118 238 q 92 926 107 721 q 127 940 108 936 q 165 944 146 944 q 187 944 176 944 q 210 940 197 943 q 215 821 214 882 q 217 676 217 760 m 82 1221 q 116 1216 101 1219 q 143 1206 131 1213 q 115 1133 129 1175 q 92 1050 100 1090 q 57 1048 79 1049 q 4 1049 35 1047 q 1 1070 1 1060 q 0 1092 0 1081 q 6 1155 0 1121 q 24 1211 13 1189 q 51 1220 39 1218 q 82 1221 64 1222 m 257 1221 q 291 1216 276 1219 q 318 1206 306 1213 q 290 1133 304 1175 q 267 1050 275 1090 q 232 1048 254 1049 q 179 1049 210 1047 q 176 1070 176 1060 q 175 1092 175 1081 q 181 1155 175 1121 q 199 1211 188 1189 q 226 1220 214 1218 q 257 1221 239 1222 z "},"Ð":{"ha":800,"x_min":-36,"x_max":743,"o":"m 197 479 q 197 399 197 439 q 197 318 197 358 q 198 187 197 246 q 201 68 199 128 q 521 288 413 149 q 629 619 629 428 q 553 840 629 764 q 333 915 478 915 q 271 910 301 915 q 211 894 240 904 q 201 708 204 789 q 197 550 199 626 q 299 558 247 553 q 408 572 350 563 q 409 535 410 553 q 406 500 408 517 q 299 485 351 490 q 197 479 247 481 m 743 617 q 597 233 743 406 q 206 -15 451 61 q 158 -11 196 -15 q 111 -4 121 -7 q 98 274 103 164 q 92 478 93 385 q 28 481 60 479 q -35 486 -4 483 q -35 530 -36 513 q -32 560 -35 547 q 31 555 1 557 q 90 551 61 553 q 89 610 89 579 q 89 706 89 642 q 90 826 89 763 q 93 938 92 889 q 217 981 154 967 q 336 996 279 996 q 640 900 538 996 q 743 617 743 804 z "},"Ñ":{"ha":875,"x_min":93,"x_max":769,"o":"m 208 460 q 216 248 210 365 q 235 -44 222 131 q 193 -51 217 -49 q 144 -56 169 -54 q 104 497 115 275 q 93 940 93 719 q 96 941 94 940 q 97 942 97 942 q 158 966 132 958 q 217 979 183 974 q 466 610 360 794 q 664 207 572 426 q 667 310 667 253 q 668 489 668 368 q 662 812 668 675 q 643 1031 656 949 q 705 1046 678 1042 q 761 1051 732 1050 q 768 874 767 933 q 769 763 769 815 q 763 381 769 544 q 740 33 756 217 q 698 27 719 29 q 650 24 676 25 q 438 458 549 263 q 206 808 326 653 q 206 611 204 735 q 208 460 208 488 m 414 1183 q 447 1167 436 1171 q 468 1164 458 1164 q 496 1176 489 1164 q 501 1217 503 1189 q 534 1215 519 1218 q 565 1204 549 1213 q 547 1117 569 1147 q 479 1088 525 1088 q 443 1093 461 1088 q 397 1115 425 1099 q 367 1131 376 1128 q 349 1135 357 1135 q 323 1122 331 1135 q 317 1085 315 1110 q 284 1086 301 1083 q 253 1094 267 1089 q 271 1179 249 1149 q 338 1210 293 1210 q 370 1205 354 1210 q 414 1183 386 1200 z "},"Ò":{"ha":832,"x_min":61,"x_max":767,"o":"m 453 1018 q 687 898 607 1018 q 767 547 767 778 q 745 349 767 447 q 683 175 724 251 q 555 24 632 75 q 381 -28 478 -28 q 149 111 238 -28 q 61 471 61 250 q 171 864 61 710 q 453 1018 281 1018 m 392 54 q 583 185 513 54 q 653 524 653 317 q 600 834 653 735 q 435 933 547 933 q 249 809 321 933 q 176 488 176 685 q 234 176 176 299 q 392 54 292 54 m 426 1315 q 445 1202 432 1260 q 482 1079 458 1144 q 441 1072 457 1074 q 410 1068 425 1069 q 349 1193 371 1135 q 321 1308 328 1251 q 371 1317 340 1315 q 426 1315 401 1319 z "},"Ó":{"ha":832,"x_min":61,"x_max":767,"o":"m 453 1018 q 687 898 607 1018 q 767 547 767 778 q 745 349 767 447 q 683 175 724 251 q 555 24 632 75 q 381 -28 478 -28 q 149 111 238 -28 q 61 471 61 250 q 171 864 61 710 q 453 1018 281 1018 m 392 54 q 583 185 513 54 q 653 524 653 317 q 600 834 653 735 q 435 933 547 933 q 249 809 321 933 q 176 488 176 685 q 234 176 176 299 q 392 54 292 54 m 525 1303 q 496 1184 518 1243 q 436 1063 474 1125 q 403 1065 419 1063 q 364 1074 386 1068 q 401 1195 388 1138 q 419 1308 414 1253 q 474 1310 444 1311 q 525 1303 503 1308 z "},"Ô":{"ha":832,"x_min":61,"x_max":767,"o":"m 453 1018 q 687 898 607 1018 q 767 547 767 778 q 745 349 767 447 q 683 175 724 251 q 555 24 632 75 q 381 -28 478 -28 q 149 111 238 -28 q 61 471 61 250 q 171 864 61 710 q 453 1018 281 1018 m 392 54 q 583 185 513 54 q 653 524 653 317 q 600 834 653 735 q 435 933 547 933 q 249 809 321 933 q 176 488 176 685 q 234 176 176 299 q 392 54 292 54 m 619 1099 q 590 1074 603 1082 q 563 1058 578 1065 q 492 1117 519 1090 q 440 1178 464 1144 q 390 1117 418 1144 q 318 1057 361 1089 q 290 1074 303 1064 q 263 1097 276 1083 q 347 1185 318 1147 q 400 1275 376 1224 q 418 1278 407 1276 q 440 1279 429 1279 q 458 1278 447 1279 q 481 1276 469 1278 q 528 1193 500 1231 q 619 1099 557 1156 z "},"Õ":{"ha":832,"x_min":61,"x_max":767,"o":"m 453 1018 q 687 898 607 1018 q 767 547 767 778 q 745 349 767 447 q 683 175 724 251 q 555 24 632 75 q 381 -28 478 -28 q 149 111 238 -28 q 61 471 61 250 q 171 864 61 710 q 453 1018 281 1018 m 392 54 q 583 185 513 54 q 653 524 653 317 q 600 834 653 735 q 435 933 547 933 q 249 809 321 933 q 176 488 176 685 q 234 176 176 299 q 392 54 292 54 m 446 1188 q 479 1172 468 1175 q 500 1168 490 1168 q 528 1181 521 1168 q 533 1221 535 1193 q 566 1219 551 1222 q 597 1208 581 1217 q 579 1122 601 1151 q 511 1092 557 1092 q 475 1097 493 1092 q 429 1119 457 1103 q 399 1135 408 1132 q 381 1139 389 1139 q 355 1126 363 1139 q 349 1089 347 1114 q 316 1090 333 1088 q 285 1099 299 1093 q 303 1183 281 1153 q 369 1214 325 1214 q 402 1209 386 1214 q 446 1188 418 1204 z "},"Ö":{"ha":832,"x_min":61,"x_max":767,"o":"m 453 1018 q 687 898 607 1018 q 767 547 767 778 q 745 349 767 447 q 683 175 724 251 q 555 24 632 75 q 381 -28 478 -28 q 149 111 238 -28 q 61 471 61 250 q 171 864 61 710 q 453 1018 281 1018 m 392 54 q 583 185 513 54 q 653 524 653 317 q 600 834 653 735 q 435 933 547 933 q 249 809 321 933 q 176 488 176 685 q 234 176 176 299 q 392 54 292 54 m 371 1263 q 405 1258 390 1261 q 432 1247 419 1254 q 403 1174 418 1217 q 381 1092 389 1132 q 346 1090 368 1090 q 293 1090 324 1089 q 290 1112 290 1101 q 289 1133 289 1122 q 295 1197 289 1163 q 313 1253 301 1231 q 340 1262 328 1260 q 371 1263 353 1264 m 546 1263 q 580 1258 565 1261 q 607 1247 594 1254 q 578 1174 593 1217 q 556 1092 564 1132 q 521 1090 543 1090 q 468 1090 499 1089 q 465 1112 465 1101 q 464 1133 464 1122 q 470 1197 464 1163 q 488 1253 476 1231 q 515 1262 503 1260 q 546 1263 528 1264 z "},"×":{"ha":507,"x_min":69,"x_max":438,"o":"m 438 297 q 412 272 425 283 q 381 247 399 260 q 319 322 349 288 q 258 389 289 357 q 182 306 231 360 q 132 251 133 253 q 106 274 118 261 q 82 303 93 288 q 153 383 125 351 q 206 442 181 415 q 143 501 176 471 q 69 565 110 532 q 89 585 78 575 q 122 614 100 594 q 192 557 158 586 q 258 497 226 528 q 323 561 290 531 q 386 619 356 592 q 413 594 401 608 q 436 563 425 581 q 376 508 407 538 q 311 443 344 478 q 380 367 349 403 q 438 297 411 331 z "},"Ø":{"ha":814,"x_min":53,"x_max":757,"o":"m 426 933 q 240 809 313 933 q 168 488 168 685 q 181 327 168 404 q 219 192 194 250 q 373 490 293 326 q 558 881 453 654 q 500 920 532 907 q 426 933 468 933 m 268 110 q 322 68 293 82 q 383 54 350 54 q 574 185 504 54 q 643 524 643 317 q 635 674 643 608 q 610 788 626 739 q 458 475 539 636 q 268 110 376 314 m 674 175 q 545 24 622 75 q 371 -28 468 -28 q 292 -15 329 -28 q 221 22 254 -3 q 195 -26 210 0 q 151 -106 181 -53 q 108 -87 125 -97 q 74 -61 90 -78 q 121 17 100 -19 q 160 85 142 53 q 81 253 108 153 q 53 471 53 353 q 163 864 53 710 q 443 1018 272 1018 q 528 1007 489 1018 q 601 974 568 996 q 624 1022 611 996 q 660 1101 636 1049 q 697 1083 679 1093 q 732 1057 715 1072 q 684 950 693 971 q 667 911 675 929 q 734 760 711 851 q 757 547 757 669 q 735 349 757 447 q 674 175 714 251 z "},"Ù":{"ha":760,"x_min":75,"x_max":679,"o":"m 615 981 q 664 733 649 846 q 679 514 679 619 q 593 44 679 199 q 333 -111 507 -111 q 139 10 203 -111 q 75 378 75 131 q 96 646 75 506 q 146 872 117 786 q 175 878 157 876 q 208 881 193 881 q 232 879 221 881 q 253 875 243 878 q 207 629 222 747 q 192 408 192 511 q 229 77 192 179 q 353 -25 267 -25 q 509 99 454 -25 q 564 446 564 222 q 549 701 564 581 q 497 960 533 821 q 552 973 522 968 q 615 981 582 978 m 336 1207 q 355 1094 342 1151 q 392 971 368 1036 q 351 963 367 965 q 319 960 335 961 q 259 1085 281 1026 q 231 1200 238 1143 q 281 1209 250 1207 q 336 1207 311 1211 z "},"Ú":{"ha":760,"x_min":75,"x_max":679,"o":"m 615 981 q 664 733 649 846 q 679 514 679 619 q 593 44 679 199 q 333 -111 507 -111 q 139 10 203 -111 q 75 378 75 131 q 96 646 75 506 q 146 872 117 786 q 175 878 157 876 q 208 881 193 881 q 232 879 221 881 q 253 875 243 878 q 207 629 222 747 q 192 408 192 511 q 229 77 192 179 q 353 -25 267 -25 q 509 99 454 -25 q 564 446 564 222 q 549 701 564 581 q 497 960 533 821 q 552 973 522 968 q 615 981 582 978 m 463 1197 q 433 1078 456 1138 q 374 957 411 1019 q 340 960 357 957 q 301 968 324 963 q 338 1090 325 1032 q 357 1203 351 1147 q 411 1204 382 1206 q 463 1197 440 1203 z "},"Û":{"ha":760,"x_min":75,"x_max":679,"o":"m 615 981 q 664 733 649 846 q 679 514 679 619 q 593 44 679 199 q 333 -111 507 -111 q 139 10 203 -111 q 75 378 75 131 q 96 646 75 506 q 146 872 117 786 q 175 878 157 876 q 208 881 193 881 q 232 879 221 881 q 253 875 243 878 q 207 629 222 747 q 192 408 192 511 q 229 77 192 179 q 353 -25 267 -25 q 509 99 454 -25 q 564 446 564 222 q 549 701 564 581 q 497 960 533 821 q 552 973 522 968 q 615 981 582 978 m 536 1056 q 507 1031 519 1039 q 479 1015 494 1022 q 408 1074 436 1047 q 357 1135 381 1101 q 306 1074 335 1101 q 235 1014 278 1046 q 206 1031 219 1021 q 179 1054 193 1040 q 264 1142 235 1104 q 317 1232 293 1181 q 335 1235 324 1233 q 357 1236 346 1236 q 375 1235 364 1236 q 397 1233 386 1235 q 445 1150 417 1188 q 536 1056 474 1113 z "},"Ü":{"ha":760,"x_min":75,"x_max":679,"o":"m 615 981 q 664 733 649 846 q 679 514 679 619 q 593 44 679 199 q 333 -111 507 -111 q 139 10 203 -111 q 75 378 75 131 q 96 646 75 506 q 146 872 117 786 q 175 878 157 876 q 208 881 193 881 q 232 879 221 881 q 253 875 243 878 q 207 629 222 747 q 192 408 192 511 q 229 77 192 179 q 353 -25 267 -25 q 509 99 454 -25 q 564 446 564 222 q 549 701 564 581 q 497 960 533 821 q 552 973 522 968 q 615 981 582 978 m 303 1197 q 337 1192 322 1196 q 364 1182 351 1189 q 335 1109 350 1151 q 313 1026 321 1067 q 278 1024 300 1025 q 225 1025 256 1024 q 222 1047 222 1036 q 221 1068 221 1057 q 227 1131 221 1097 q 244 1188 233 1165 q 272 1197 260 1194 q 303 1197 285 1199 m 478 1197 q 512 1192 497 1196 q 539 1182 526 1189 q 510 1109 525 1151 q 488 1026 496 1067 q 453 1024 475 1025 q 400 1025 431 1024 q 397 1047 397 1036 q 396 1068 396 1057 q 402 1131 396 1097 q 419 1188 408 1165 q 447 1197 435 1194 q 478 1197 460 1199 z "},"Ý":{"ha":713,"x_min":19,"x_max":665,"o":"m 665 950 q 460 305 558 535 q 221 -115 361 75 q 172 -99 196 -108 q 132 -76 149 -89 q 242 93 193 10 q 331 261 292 176 q 150 575 222 410 q 19 978 78 740 q 76 1001 47 993 q 136 1011 104 1010 q 229 673 171 828 q 378 367 288 518 q 474 653 433 500 q 546 993 515 806 q 608 975 579 986 q 665 950 638 964 m 444 1243 q 415 1124 438 1183 q 356 1003 393 1065 q 322 1006 339 1003 q 283 1014 306 1008 q 320 1135 307 1078 q 339 1249 333 1193 q 393 1250 364 1251 q 444 1243 422 1249 z "},"Þ":{"ha":746,"x_min":85,"x_max":707,"o":"m 199 132 q 208 -16 206 25 q 214 -94 211 -57 q 163 -96 190 -97 q 119 -90 136 -94 q 92 313 100 142 q 85 747 85 483 q 88 872 85 799 q 94 994 90 946 q 156 994 125 997 q 215 979 188 990 q 212 938 214 960 q 201 825 210 915 q 281 835 244 832 q 353 839 318 839 q 615 767 522 839 q 707 568 707 696 q 583 317 707 424 q 199 132 458 211 m 196 740 q 190 612 192 678 q 189 467 189 546 q 190 331 189 392 q 194 214 192 271 q 493 353 393 267 q 593 554 593 439 q 531 709 593 656 q 350 763 468 763 q 270 757 308 763 q 196 740 232 751 z "},"ß":{"ha":792,"x_min":32,"x_max":760,"o":"m 760 165 q 704 6 760 67 q 556 -56 649 -56 q 398 15 458 -56 q 336 203 338 86 q 380 213 357 210 q 424 215 403 217 q 456 69 421 121 q 557 17 492 17 q 632 50 606 17 q 658 143 658 83 q 631 228 658 190 q 514 319 604 265 q 388 422 418 379 q 358 519 358 465 q 375 604 358 565 q 432 686 392 643 q 476 751 465 722 q 488 824 488 779 q 460 903 488 872 q 386 933 432 933 q 262 854 306 933 q 218 622 218 775 q 235 286 218 454 q 283 -8 253 118 q 223 -24 250 -19 q 174 -29 196 -29 q 138 226 156 54 q 119 540 121 399 q 70 551 93 544 q 32 563 47 557 q 35 599 32 579 q 43 624 39 618 q 74 619 57 621 q 121 614 90 617 q 196 910 129 810 q 385 1010 263 1010 q 519 957 468 1010 q 571 822 571 904 q 556 754 571 786 q 506 686 542 722 q 461 624 474 653 q 449 558 449 594 q 476 477 449 514 q 592 386 503 440 q 727 276 694 324 q 760 165 760 228 z "},"à":{"ha":628,"x_min":38,"x_max":549,"o":"m 549 474 q 524 231 549 382 q 464 -47 499 79 q 419 -43 443 -47 q 374 -32 396 -39 q 376 -19 375 -26 q 382 1 378 -11 q 389 34 386 24 q 393 53 392 44 q 327 21 364 32 q 249 10 290 10 q 96 60 154 10 q 38 194 38 111 q 114 332 38 285 q 339 379 190 379 q 382 378 361 379 q 438 376 403 378 q 439 407 439 390 q 439 460 439 424 q 412 621 439 571 q 322 671 385 671 q 215 615 258 671 q 169 472 172 558 q 107 491 131 478 q 71 526 83 504 q 163 682 88 618 q 336 746 239 746 q 495 677 442 746 q 549 474 549 608 m 147 192 q 181 110 147 140 q 268 81 214 81 q 342 92 307 81 q 408 128 378 104 q 426 229 419 185 q 435 318 432 274 q 219 295 292 326 q 147 192 147 264 m 349 1043 q 367 930 354 988 q 404 807 381 872 q 363 799 379 801 q 332 796 347 797 q 272 921 293 863 q 243 1036 250 979 q 293 1045 263 1043 q 349 1043 324 1047 z "},"á":{"ha":628,"x_min":38,"x_max":549,"o":"m 549 474 q 524 231 549 382 q 464 -47 499 79 q 419 -43 443 -47 q 374 -32 396 -39 q 376 -19 375 -26 q 382 1 378 -11 q 389 34 386 24 q 393 53 392 44 q 327 21 364 32 q 249 10 290 10 q 96 60 154 10 q 38 194 38 111 q 114 332 38 285 q 339 379 190 379 q 382 378 361 379 q 438 376 403 378 q 439 407 439 390 q 439 460 439 424 q 412 621 439 571 q 322 671 385 671 q 215 615 258 671 q 169 472 172 558 q 107 491 131 478 q 71 526 83 504 q 163 682 88 618 q 336 746 239 746 q 495 677 442 746 q 549 474 549 608 m 147 192 q 181 110 147 140 q 268 81 214 81 q 342 92 307 81 q 408 128 378 104 q 426 229 419 185 q 435 318 432 274 q 219 295 292 326 q 147 192 147 264 m 456 1036 q 426 917 449 976 q 367 796 404 858 q 333 799 350 796 q 294 807 317 801 q 331 928 318 871 q 350 1042 344 986 q 404 1043 375 1044 q 456 1036 433 1042 z "},"â":{"ha":628,"x_min":38,"x_max":549,"o":"m 549 474 q 524 231 549 382 q 464 -47 499 79 q 419 -43 443 -47 q 374 -32 396 -39 q 376 -19 375 -26 q 382 1 378 -11 q 389 34 386 24 q 393 53 392 44 q 327 21 364 32 q 249 10 290 10 q 96 60 154 10 q 38 194 38 111 q 114 332 38 285 q 339 379 190 379 q 382 378 361 379 q 438 376 403 378 q 439 407 439 390 q 439 460 439 424 q 412 621 439 571 q 322 671 385 671 q 215 615 258 671 q 169 472 172 558 q 107 491 131 478 q 71 526 83 504 q 163 682 88 618 q 336 746 239 746 q 495 677 442 746 q 549 474 549 608 m 147 192 q 181 110 147 140 q 268 81 214 81 q 342 92 307 81 q 408 128 378 104 q 426 229 419 185 q 435 318 432 274 q 219 295 292 326 q 147 192 147 264 m 525 829 q 496 804 508 813 q 468 789 483 796 q 397 848 425 821 q 346 908 369 875 q 295 847 324 875 q 224 788 267 819 q 195 804 208 794 q 168 828 182 814 q 253 916 224 878 q 306 1006 282 954 q 324 1008 313 1007 q 346 1010 335 1010 q 364 1009 353 1010 q 386 1007 375 1008 q 434 924 406 961 q 525 829 463 886 z "},"ã":{"ha":628,"x_min":38,"x_max":549,"o":"m 549 474 q 524 231 549 382 q 464 -47 499 79 q 419 -43 443 -47 q 374 -32 396 -39 q 376 -19 375 -26 q 382 1 378 -11 q 389 34 386 24 q 393 53 392 44 q 327 21 364 32 q 249 10 290 10 q 96 60 154 10 q 38 194 38 111 q 114 332 38 285 q 339 379 190 379 q 382 378 361 379 q 438 376 403 378 q 439 407 439 390 q 439 460 439 424 q 412 621 439 571 q 322 671 385 671 q 215 615 258 671 q 169 472 172 558 q 107 491 131 478 q 71 526 83 504 q 163 682 88 618 q 336 746 239 746 q 495 677 442 746 q 549 474 549 608 m 147 192 q 181 110 147 140 q 268 81 214 81 q 342 92 307 81 q 408 128 378 104 q 426 229 419 185 q 435 318 432 274 q 219 295 292 326 q 147 192 147 264 m 342 922 q 375 906 364 910 q 396 903 386 903 q 424 915 417 903 q 429 956 431 928 q 462 954 447 957 q 493 943 476 951 q 475 856 497 886 q 407 826 453 826 q 371 832 389 826 q 325 854 353 838 q 294 870 304 867 q 276 874 285 874 q 251 861 258 874 q 244 824 243 849 q 212 825 229 822 q 181 833 194 828 q 199 918 176 888 q 265 949 221 949 q 298 944 282 949 q 342 922 314 939 z "},"ä":{"ha":628,"x_min":38,"x_max":549,"o":"m 549 474 q 524 231 549 382 q 464 -47 499 79 q 419 -43 443 -47 q 374 -32 396 -39 q 376 -19 375 -26 q 382 1 378 -11 q 389 34 386 24 q 393 53 392 44 q 327 21 364 32 q 249 10 290 10 q 96 60 154 10 q 38 194 38 111 q 114 332 38 285 q 339 379 190 379 q 382 378 361 379 q 438 376 403 378 q 439 407 439 390 q 439 460 439 424 q 412 621 439 571 q 322 671 385 671 q 215 615 258 671 q 169 472 172 558 q 107 491 131 478 q 71 526 83 504 q 163 682 88 618 q 336 746 239 746 q 495 677 442 746 q 549 474 549 608 m 147 192 q 181 110 147 140 q 268 81 214 81 q 342 92 307 81 q 408 128 378 104 q 426 229 419 185 q 435 318 432 274 q 219 295 292 326 q 147 192 147 264 m 297 986 q 331 981 317 985 q 358 971 346 978 q 330 898 344 940 q 307 815 315 856 q 272 813 294 814 q 219 814 250 813 q 216 835 217 825 q 215 857 215 846 q 222 920 215 886 q 239 976 228 954 q 267 985 254 983 q 297 986 279 988 m 472 986 q 506 981 492 985 q 533 971 521 978 q 505 898 519 940 q 482 815 490 856 q 447 813 469 814 q 394 814 425 813 q 391 835 392 825 q 390 857 390 846 q 397 920 390 886 q 414 976 403 954 q 442 985 429 983 q 472 986 454 988 z "},"å":{"ha":628,"x_min":38,"x_max":549,"o":"m 549 474 q 524 231 549 382 q 464 -47 499 79 q 419 -43 443 -47 q 374 -32 396 -39 q 376 -19 375 -26 q 382 1 378 -11 q 389 34 386 24 q 393 53 392 44 q 327 21 364 32 q 249 10 290 10 q 96 60 154 10 q 38 194 38 111 q 114 332 38 285 q 339 379 190 379 q 382 378 361 379 q 438 376 403 378 q 439 407 439 390 q 439 460 439 424 q 412 621 439 571 q 322 671 385 671 q 215 615 258 671 q 169 472 172 558 q 107 491 131 478 q 71 526 83 504 q 163 682 88 618 q 336 746 239 746 q 495 677 442 746 q 549 474 549 608 m 147 192 q 181 110 147 140 q 268 81 214 81 q 342 92 307 81 q 408 128 378 104 q 426 229 419 185 q 435 318 432 274 q 219 295 292 326 q 147 192 147 264 m 217 921 q 257 1022 217 985 q 365 1060 297 1060 q 453 1030 421 1060 q 486 949 486 1000 q 447 839 486 879 q 342 799 408 799 q 252 833 288 799 q 217 921 217 868 m 407 939 q 393 993 407 974 q 356 1013 379 1013 q 310 988 328 1013 q 293 921 293 963 q 309 869 293 889 q 349 850 325 850 q 391 874 375 850 q 407 939 407 899 z "},"æ":{"ha":996,"x_min":38,"x_max":951,"o":"m 557 428 q 644 406 597 414 q 742 399 692 399 q 774 400 756 399 q 803 404 793 401 q 817 476 813 440 q 822 540 822 511 q 802 627 822 601 q 738 653 782 653 q 631 590 681 653 q 557 428 582 528 m 867 229 q 912 213 889 225 q 951 183 935 200 q 844 40 925 103 q 675 -22 763 -22 q 556 13 607 -22 q 474 113 506 47 q 369 30 426 57 q 238 3 311 3 q 92 51 146 3 q 38 182 38 100 q 115 323 38 274 q 339 372 193 372 q 384 372 363 372 q 439 369 406 371 q 440 430 440 397 q 439 465 439 463 q 412 617 439 569 q 322 664 385 664 q 215 608 258 664 q 169 465 172 551 q 108 483 132 471 q 71 518 83 496 q 164 674 88 610 q 336 739 240 739 q 454 699 406 739 q 524 582 503 658 q 628 692 571 654 q 749 729 686 729 q 876 676 829 729 q 924 536 924 624 q 915 439 924 488 q 890 350 906 390 q 820 334 861 339 q 725 329 779 329 q 633 338 679 329 q 544 361 586 346 q 541 328 542 344 q 540 297 540 313 q 578 120 540 188 q 682 53 617 53 q 792 105 738 53 q 867 229 847 157 m 147 179 q 176 101 147 129 q 257 74 204 74 q 364 96 313 74 q 456 160 415 118 q 441 228 446 193 q 436 301 436 264 q 436 306 436 304 q 436 311 436 308 q 221 287 294 321 q 147 179 147 253 z "},"ç":{"ha":589,"x_min":38,"x_max":538,"o":"m 433 -186 q 391 -283 433 -247 q 278 -318 349 -318 q 189 -292 225 -318 q 135 -215 153 -267 q 169 -195 163 -199 q 194 -183 175 -192 q 226 -234 206 -215 q 275 -253 247 -253 q 323 -236 306 -253 q 340 -192 340 -219 q 323 -152 340 -168 q 278 -136 306 -136 q 255 -139 267 -136 q 231 -149 243 -142 q 209 -130 219 -140 q 194 -112 199 -119 q 216 -72 207 -92 q 231 -31 225 -51 q 88 64 138 -17 q 38 278 38 144 q 121 618 38 482 q 332 754 204 754 q 483 690 429 754 q 538 514 538 626 q 488 497 514 503 q 432 492 461 492 q 406 633 432 586 q 331 681 381 681 q 199 560 254 681 q 143 285 143 440 q 181 107 143 172 q 289 42 219 42 q 387 85 342 42 q 467 213 432 129 q 504 194 488 206 q 533 167 521 182 q 447 35 513 92 q 301 -32 382 -22 q 293 -58 297 -46 q 283 -81 289 -69 q 301 -78 296 -79 q 313 -78 307 -78 q 400 -108 367 -78 q 433 -186 433 -137 z "},"è":{"ha":604,"x_min":42,"x_max":560,"o":"m 165 435 q 252 413 206 421 q 350 406 299 406 q 383 407 364 406 q 410 411 401 408 q 426 485 421 451 q 431 547 431 519 q 410 635 431 608 q 346 661 390 661 q 239 599 288 661 q 165 435 190 536 m 475 236 q 520 219 497 232 q 560 190 543 207 q 452 48 533 111 q 283 -15 371 -15 q 106 72 171 -15 q 42 307 42 160 q 134 604 42 472 q 354 736 226 736 q 484 684 436 736 q 532 543 532 632 q 523 448 532 496 q 499 357 514 400 q 431 342 471 347 q 333 338 392 338 q 242 345 289 338 q 153 368 196 353 q 149 335 150 351 q 149 304 149 319 q 187 127 149 194 q 289 60 225 60 q 400 112 344 60 q 475 236 456 164 m 365 1042 q 384 928 371 986 q 421 806 397 871 q 380 798 396 800 q 349 794 364 796 q 288 919 310 861 q 260 1035 267 978 q 310 1044 279 1042 q 365 1042 340 1046 z "},"é":{"ha":604,"x_min":42,"x_max":560,"o":"m 165 435 q 252 413 206 421 q 350 406 299 406 q 383 407 364 406 q 410 411 401 408 q 426 485 421 451 q 431 547 431 519 q 410 635 431 608 q 346 661 390 661 q 239 599 288 661 q 165 435 190 536 m 475 236 q 520 219 497 232 q 560 190 543 207 q 452 48 533 111 q 283 -15 371 -15 q 106 72 171 -15 q 42 307 42 160 q 134 604 42 472 q 354 736 226 736 q 484 684 436 736 q 532 543 532 632 q 523 448 532 496 q 499 357 514 400 q 431 342 471 347 q 333 338 392 338 q 242 345 289 338 q 153 368 196 353 q 149 335 150 351 q 149 304 149 319 q 187 127 149 194 q 289 60 225 60 q 400 112 344 60 q 475 236 456 164 m 497 1033 q 468 915 490 974 q 408 793 446 856 q 375 796 392 793 q 336 804 358 799 q 373 926 360 868 q 392 1039 386 983 q 446 1040 417 1042 q 497 1033 475 1039 z "},"ê":{"ha":604,"x_min":42,"x_max":561,"o":"m 165 435 q 252 413 206 421 q 350 406 299 406 q 383 407 364 406 q 410 411 401 408 q 426 485 421 451 q 431 547 431 519 q 410 635 431 608 q 346 661 390 661 q 239 599 288 661 q 165 435 190 536 m 475 236 q 520 219 497 232 q 560 190 543 207 q 452 48 533 111 q 283 -15 371 -15 q 106 72 171 -15 q 42 307 42 160 q 134 604 42 472 q 354 736 226 736 q 484 684 436 736 q 532 543 532 632 q 523 448 532 496 q 499 357 514 400 q 431 342 471 347 q 333 338 392 338 q 242 345 289 338 q 153 368 196 353 q 149 335 150 351 q 149 304 149 319 q 187 127 149 194 q 289 60 225 60 q 400 112 344 60 q 475 236 456 164 m 561 829 q 532 804 544 813 q 504 789 519 796 q 433 848 461 821 q 382 908 406 875 q 331 847 360 875 q 260 788 303 819 q 231 804 244 794 q 204 828 218 814 q 289 916 260 878 q 342 1006 318 954 q 360 1008 349 1007 q 382 1010 371 1010 q 400 1009 389 1010 q 422 1007 411 1008 q 470 924 442 961 q 561 829 499 886 z "},"ë":{"ha":604,"x_min":42,"x_max":571,"o":"m 165 435 q 252 413 206 421 q 350 406 299 406 q 383 407 364 406 q 410 411 401 408 q 426 485 421 451 q 431 547 431 519 q 410 635 431 608 q 346 661 390 661 q 239 599 288 661 q 165 435 190 536 m 475 236 q 520 219 497 232 q 560 190 543 207 q 452 48 533 111 q 283 -15 371 -15 q 106 72 171 -15 q 42 307 42 160 q 134 604 42 472 q 354 736 226 736 q 484 684 436 736 q 532 543 532 632 q 523 448 532 496 q 499 357 514 400 q 431 342 471 347 q 333 338 392 338 q 242 345 289 338 q 153 368 196 353 q 149 335 150 351 q 149 304 149 319 q 187 127 149 194 q 289 60 225 60 q 400 112 344 60 q 475 236 456 164 m 335 972 q 369 967 354 971 q 396 957 383 964 q 367 884 382 926 q 344 801 353 842 q 310 799 332 800 q 257 800 288 799 q 253 822 254 811 q 253 843 253 832 q 259 906 253 872 q 276 963 265 940 q 304 972 292 969 q 335 972 317 974 m 510 972 q 544 967 529 971 q 571 957 558 964 q 542 884 557 926 q 519 801 528 842 q 485 799 507 800 q 432 800 463 799 q 428 822 429 811 q 428 843 428 832 q 434 906 428 872 q 451 963 440 940 q 479 972 467 969 q 510 972 492 974 z "},"ì":{"ha":286,"x_min":46,"x_max":211,"o":"m 101 692 q 135 706 118 701 q 172 711 153 711 q 192 710 183 711 q 211 706 201 708 q 172 364 183 560 q 172 -1 161 168 q 147 -10 163 -7 q 117 -12 132 -12 q 103 -12 110 -12 q 89 -10 97 -11 q 69 350 65 156 q 101 692 74 544 m 151 1006 q 170 892 157 950 q 207 769 183 835 q 166 762 182 764 q 135 758 150 760 q 74 883 96 825 q 46 999 53 942 q 96 1008 65 1006 q 151 1006 126 1010 z "},"í":{"ha":286,"x_min":65,"x_max":290,"o":"m 101 692 q 135 706 118 701 q 172 711 153 711 q 192 710 183 711 q 211 706 201 708 q 172 364 183 560 q 172 -1 161 168 q 147 -10 163 -7 q 117 -12 132 -12 q 103 -12 110 -12 q 89 -10 97 -11 q 69 350 65 156 q 101 692 74 544 m 290 999 q 261 880 283 939 q 201 758 239 821 q 168 761 185 758 q 129 769 151 764 q 166 891 153 833 q 185 1004 179 949 q 239 1006 210 1007 q 290 999 268 1004 z "},"î":{"ha":286,"x_min":0,"x_max":357,"o":"m 101 692 q 135 706 118 701 q 172 711 153 711 q 192 710 183 711 q 211 706 201 708 q 172 364 183 560 q 172 -1 161 168 q 147 -10 163 -7 q 117 -12 132 -12 q 103 -12 110 -12 q 89 -10 97 -11 q 69 350 65 156 q 101 692 74 544 m 357 804 q 328 779 340 788 q 300 764 315 771 q 229 823 257 796 q 178 883 201 850 q 127 822 156 850 q 56 763 99 794 q 27 779 40 769 q 0 803 14 789 q 85 891 56 853 q 138 981 114 929 q 156 983 144 982 q 178 985 167 985 q 196 984 185 985 q 218 982 207 983 q 266 899 238 936 q 357 804 294 861 z "},"ï":{"ha":286,"x_min":42,"x_max":360,"o":"m 101 692 q 135 706 118 701 q 172 711 153 711 q 192 710 183 711 q 211 706 201 708 q 172 364 183 560 q 172 -1 161 168 q 147 -10 163 -7 q 117 -12 132 -12 q 103 -12 110 -12 q 89 -10 97 -11 q 69 350 65 156 q 101 692 74 544 m 124 964 q 158 959 143 963 q 185 949 172 956 q 156 876 171 918 q 133 793 142 833 q 99 791 121 792 q 46 792 76 790 q 42 813 43 803 q 42 835 42 824 q 48 898 42 864 q 65 954 54 932 q 93 963 81 961 q 124 964 106 965 m 299 964 q 333 959 318 963 q 360 949 347 956 q 331 876 346 918 q 308 793 317 833 q 274 791 296 792 q 221 792 251 790 q 217 813 218 803 q 217 835 217 824 q 223 898 217 864 q 240 954 229 932 q 268 963 256 961 q 299 964 281 965 z "},"ð":{"ha":640,"x_min":46,"x_max":699,"o":"m 546 -46 q 506 -55 529 -51 q 467 -58 483 -58 q 460 31 463 -14 q 456 121 457 76 q 386 -2 429 38 q 278 -42 343 -42 q 108 58 171 -42 q 46 324 46 158 q 128 615 46 506 q 349 724 211 724 q 394 721 371 724 q 438 713 418 718 q 436 746 436 728 q 436 800 436 764 q 349 801 396 799 q 242 808 303 803 q 242 858 242 843 q 244 882 243 872 q 340 874 293 876 q 435 872 386 872 q 435 933 435 903 q 435 994 435 964 q 467 1006 447 1001 q 504 1010 486 1010 q 528 1008 515 1010 q 556 1003 540 1006 q 551 939 553 971 q 549 876 550 907 q 611 882 578 878 q 697 894 644 886 q 698 862 699 881 q 694 822 697 843 q 624 813 661 817 q 546 804 588 808 q 543 637 544 731 q 542 169 542 543 q 542 60 542 107 q 546 -46 543 14 m 151 339 q 189 117 151 196 q 293 39 226 39 q 393 108 353 39 q 447 310 433 178 q 442 471 444 388 q 439 639 440 554 q 403 647 422 644 q 361 649 383 649 q 209 566 267 649 q 151 339 151 483 z "},"ñ":{"ha":640,"x_min":69,"x_max":557,"o":"m 175 232 q 178 84 175 167 q 185 -36 181 1 q 142 -46 167 -42 q 93 -50 117 -50 q 76 328 83 96 q 69 721 69 560 q 103 732 83 728 q 143 736 122 736 q 170 735 157 736 q 197 731 183 733 q 191 651 194 706 q 186 579 188 596 q 283 693 232 656 q 392 731 335 731 q 517 667 478 731 q 557 469 557 604 q 540 226 557 361 q 503 15 522 92 q 453 22 481 17 q 404 33 426 26 q 440 275 429 169 q 451 474 451 381 q 430 600 451 561 q 360 639 408 639 q 263 590 311 639 q 181 457 215 542 q 176 311 178 357 q 175 232 175 265 m 338 918 q 371 902 360 906 q 392 899 382 899 q 419 911 413 899 q 425 951 426 924 q 458 950 443 953 q 489 939 472 947 q 471 852 493 882 q 403 822 449 822 q 367 828 385 822 q 321 850 349 833 q 290 866 300 863 q 272 869 281 869 q 247 857 254 869 q 240 819 239 844 q 208 821 225 818 q 176 829 190 824 q 194 914 172 883 q 261 944 217 944 q 294 940 278 944 q 338 918 310 935 z "},"ò":{"ha":624,"x_min":42,"x_max":569,"o":"m 42 336 q 124 631 42 517 q 338 744 207 744 q 507 663 444 744 q 569 444 569 582 q 491 115 569 243 q 283 -14 413 -14 q 107 83 172 -14 q 42 336 42 179 m 458 386 q 422 597 458 528 q 313 667 386 667 q 197 575 246 667 q 147 350 147 483 q 189 145 147 228 q 301 63 231 63 q 411 158 364 63 q 458 386 458 253 m 324 1035 q 342 922 329 979 q 379 799 356 864 q 338 791 354 793 q 307 788 322 789 q 247 913 268 854 q 218 1028 225 971 q 268 1037 238 1035 q 324 1035 299 1039 z "},"ó":{"ha":624,"x_min":42,"x_max":569,"o":"m 42 336 q 124 631 42 517 q 338 744 207 744 q 507 663 444 744 q 569 444 569 582 q 491 115 569 243 q 283 -14 413 -14 q 107 83 172 -14 q 42 336 42 179 m 458 386 q 422 597 458 528 q 313 667 386 667 q 197 575 246 667 q 147 350 147 483 q 189 145 147 228 q 301 63 231 63 q 411 158 364 63 q 458 386 458 253 m 435 1026 q 406 908 428 967 q 346 786 383 849 q 313 789 329 786 q 274 797 296 792 q 310 919 297 861 q 329 1032 324 976 q 383 1033 354 1035 q 435 1026 413 1032 z "},"ô":{"ha":624,"x_min":42,"x_max":569,"o":"m 42 336 q 124 631 42 517 q 338 744 207 744 q 507 663 444 744 q 569 444 569 582 q 491 115 569 243 q 283 -14 413 -14 q 107 83 172 -14 q 42 336 42 179 m 458 386 q 422 597 458 528 q 313 667 386 667 q 197 575 246 667 q 147 350 147 483 q 189 145 147 228 q 301 63 231 63 q 411 158 364 63 q 458 386 458 253 m 515 844 q 486 819 499 828 q 458 804 474 811 q 388 863 415 836 q 336 924 360 890 q 285 863 314 890 q 214 803 257 835 q 185 819 199 810 q 158 843 172 829 q 243 931 214 893 q 296 1021 272 969 q 314 1024 303 1022 q 336 1025 325 1025 q 354 1024 343 1025 q 376 1022 365 1024 q 424 939 396 976 q 515 844 453 901 z "},"õ":{"ha":624,"x_min":42,"x_max":569,"o":"m 42 336 q 124 631 42 517 q 338 744 207 744 q 507 663 444 744 q 569 444 569 582 q 491 115 569 243 q 283 -14 413 -14 q 107 83 172 -14 q 42 336 42 179 m 458 386 q 422 597 458 528 q 313 667 386 667 q 197 575 246 667 q 147 350 147 483 q 189 145 147 228 q 301 63 231 63 q 411 158 364 63 q 458 386 458 253 m 349 917 q 382 901 371 904 q 403 897 393 897 q 431 910 424 897 q 436 950 438 922 q 469 949 454 951 q 500 938 483 946 q 482 851 504 881 q 414 821 460 821 q 378 826 396 821 q 332 849 360 832 q 301 865 311 861 q 283 868 292 868 q 258 856 265 868 q 251 818 250 843 q 219 819 236 817 q 188 828 201 822 q 206 913 183 882 q 272 943 228 943 q 305 938 289 943 q 349 917 321 933 z "},"ö":{"ha":624,"x_min":42,"x_max":569,"o":"m 42 336 q 124 631 42 517 q 338 744 207 744 q 507 663 444 744 q 569 444 569 582 q 491 115 569 243 q 283 -14 413 -14 q 107 83 172 -14 q 42 336 42 179 m 458 386 q 422 597 458 528 q 313 667 386 667 q 197 575 246 667 q 147 350 147 483 q 189 145 147 228 q 301 63 231 63 q 411 158 364 63 q 458 386 458 253 m 286 1004 q 320 999 306 1003 q 347 989 335 996 q 319 916 333 958 q 296 833 304 874 q 261 831 283 832 q 208 832 239 831 q 205 853 206 843 q 204 875 204 864 q 210 938 204 904 q 228 994 217 972 q 256 1003 243 1001 q 286 1004 268 1006 m 461 1004 q 495 999 481 1003 q 522 989 510 996 q 494 916 508 958 q 471 833 479 874 q 436 831 458 832 q 383 832 414 831 q 380 853 381 843 q 379 875 379 864 q 385 938 379 904 q 403 994 392 972 q 431 1003 418 1001 q 461 1004 443 1006 z "},"÷":{"ha":507,"x_min":38,"x_max":468,"o":"m 342 667 q 338 597 340 621 q 332 553 336 574 q 270 549 297 549 q 214 553 243 549 q 211 594 214 554 q 208 663 208 633 q 276 671 243 669 q 342 667 308 672 m 38 410 q 40 449 38 431 q 46 485 42 467 q 240 473 143 474 q 468 482 338 472 q 466 446 468 464 q 460 410 464 428 q 249 397 358 397 q 38 410 140 397 m 338 325 q 334 257 336 281 q 328 211 332 233 q 266 207 293 207 q 210 211 239 207 q 207 252 210 213 q 204 321 204 292 q 271 329 238 328 q 338 325 304 331 z "},"ø":{"ha":624,"x_min":40,"x_max":569,"o":"m 313 667 q 197 575 246 667 q 147 350 147 483 q 153 268 147 308 q 169 193 158 228 q 283 418 229 308 q 389 640 336 528 q 354 660 374 653 q 313 667 335 667 m 219 100 q 258 72 238 81 q 301 63 278 63 q 411 158 364 63 q 458 386 458 253 q 454 479 458 439 q 440 550 450 519 q 333 322 388 433 q 219 100 278 210 m 569 444 q 491 115 569 243 q 283 -14 413 -14 q 226 -6 253 -14 q 175 17 199 1 q 163 -4 169 7 q 144 -39 157 -15 q 126 -72 132 -61 q 114 -93 119 -83 q 77 -78 94 -87 q 40 -53 60 -68 q 49 -35 44 -44 q 65 -7 54 -25 q 92 45 83 28 q 110 78 101 63 q 59 193 76 126 q 42 336 42 260 q 124 631 42 517 q 338 744 207 744 q 384 740 361 744 q 429 726 407 736 q 438 744 433 735 q 451 775 442 754 q 467 810 461 799 q 476 832 472 822 q 510 815 494 824 q 544 789 525 806 q 535 767 540 779 q 521 733 531 756 q 505 698 510 710 q 496 676 500 686 q 551 577 532 636 q 569 444 569 518 z "},"ù":{"ha":569,"x_min":54,"x_max":515,"o":"m 260 -14 q 106 85 158 -14 q 54 375 54 183 q 70 570 54 472 q 110 711 86 668 q 135 717 122 715 q 160 719 147 719 q 183 717 172 719 q 203 710 193 715 q 171 557 182 643 q 160 371 160 471 q 191 150 160 236 q 275 64 222 64 q 374 164 340 64 q 408 444 408 264 q 403 560 408 500 q 392 644 397 621 q 443 660 413 654 q 501 665 474 665 q 512 589 508 633 q 515 499 515 544 q 451 118 515 250 q 260 -14 386 -14 m 294 974 q 313 860 300 918 q 350 738 326 803 q 309 730 325 732 q 278 726 293 728 q 217 851 239 793 q 189 967 196 910 q 239 976 208 974 q 294 974 269 978 z "},"ú":{"ha":569,"x_min":54,"x_max":515,"o":"m 260 -14 q 106 85 158 -14 q 54 375 54 183 q 70 570 54 472 q 110 711 86 668 q 135 717 122 715 q 160 719 147 719 q 183 717 172 719 q 203 710 193 715 q 171 557 182 643 q 160 371 160 471 q 191 150 160 236 q 275 64 222 64 q 374 164 340 64 q 408 444 408 264 q 403 560 408 500 q 392 644 397 621 q 443 660 413 654 q 501 665 474 665 q 512 589 508 633 q 515 499 515 544 q 451 118 515 250 q 260 -14 386 -14 m 418 947 q 389 828 411 888 q 329 707 367 769 q 296 710 313 707 q 257 718 279 713 q 294 840 281 782 q 313 953 307 897 q 367 954 338 956 q 418 947 396 953 z "},"û":{"ha":569,"x_min":54,"x_max":515,"o":"m 260 -14 q 106 85 158 -14 q 54 375 54 183 q 70 570 54 472 q 110 711 86 668 q 135 717 122 715 q 160 719 147 719 q 183 717 172 719 q 203 710 193 715 q 171 557 182 643 q 160 371 160 471 q 191 150 160 236 q 275 64 222 64 q 374 164 340 64 q 408 444 408 264 q 403 560 408 500 q 392 644 397 621 q 443 660 413 654 q 501 665 474 665 q 512 589 508 633 q 515 499 515 544 q 451 118 515 250 q 260 -14 386 -14 m 482 803 q 453 778 465 786 q 425 763 440 769 q 354 822 382 794 q 303 882 326 849 q 252 821 281 849 q 181 761 224 793 q 152 778 165 768 q 125 801 139 788 q 210 890 181 851 q 263 979 239 928 q 281 982 269 981 q 303 983 292 983 q 321 983 310 983 q 343 981 332 982 q 391 897 363 935 q 482 803 419 860 z "},"ü":{"ha":569,"x_min":54,"x_max":515,"o":"m 260 -14 q 106 85 158 -14 q 54 375 54 183 q 70 570 54 472 q 110 711 86 668 q 135 717 122 715 q 160 719 147 719 q 183 717 172 719 q 203 710 193 715 q 171 557 182 643 q 160 371 160 471 q 191 150 160 236 q 275 64 222 64 q 374 164 340 64 q 408 444 408 264 q 403 560 408 500 q 392 644 397 621 q 443 660 413 654 q 501 665 474 665 q 512 589 508 633 q 515 499 515 544 q 451 118 515 250 q 260 -14 386 -14 m 260 944 q 294 940 279 943 q 321 929 308 936 q 292 856 307 899 q 269 774 278 814 q 235 772 257 772 q 182 772 213 771 q 178 794 179 783 q 178 815 178 804 q 184 878 178 844 q 201 935 190 913 q 229 944 217 942 q 260 944 242 946 m 435 944 q 469 940 454 943 q 496 929 483 936 q 467 856 482 899 q 444 774 453 814 q 410 772 432 772 q 357 772 388 771 q 353 794 354 783 q 353 815 353 804 q 359 878 353 844 q 376 935 365 913 q 404 944 392 942 q 435 944 417 946 z "},"ý":{"ha":608,"x_min":54,"x_max":536,"o":"m 536 269 q 466 -158 536 -10 q 272 -307 396 -307 q 135 -249 189 -307 q 63 -85 81 -190 q 110 -58 86 -69 q 161 -42 135 -47 q 203 -187 176 -143 q 279 -231 231 -231 q 380 -137 342 -231 q 426 133 418 -44 q 351 52 393 79 q 261 25 310 25 q 112 113 169 25 q 54 343 54 200 q 67 520 54 438 q 124 738 81 603 q 174 731 147 736 q 222 719 201 726 q 175 513 188 590 q 163 346 163 435 q 197 179 163 243 q 290 115 232 115 q 367 153 332 115 q 429 268 401 190 q 415 496 428 393 q 372 690 401 599 q 426 714 393 707 q 489 715 458 721 q 523 505 510 629 q 536 269 536 381 m 428 971 q 399 852 421 911 q 339 731 376 793 q 306 733 322 731 q 267 742 289 736 q 303 863 290 806 q 322 976 317 921 q 376 978 347 979 q 428 971 406 976 z "},"þ":{"ha":618,"x_min":64,"x_max":567,"o":"m 182 115 q 216 93 197 100 q 256 86 235 86 q 397 201 338 86 q 456 489 456 317 q 426 626 456 576 q 347 676 397 676 q 244 622 289 676 q 174 463 200 567 q 176 287 174 375 q 182 115 178 199 m 189 22 q 203 -144 194 -64 q 221 -292 211 -224 q 175 -302 200 -299 q 126 -306 150 -306 q 72 422 81 60 q 101 1017 64 783 q 138 1033 119 1028 q 178 1039 157 1039 q 201 1038 190 1039 q 225 1032 211 1036 q 193 847 206 954 q 176 607 181 739 q 269 730 214 688 q 390 772 324 772 q 519 697 471 772 q 567 497 567 622 q 476 152 567 290 q 256 14 386 14 q 219 16 236 14 q 189 22 203 18 z "},"ÿ":{"ha":608,"x_min":54,"x_max":536,"o":"m 536 269 q 466 -158 536 -10 q 272 -307 396 -307 q 135 -249 189 -307 q 63 -85 81 -190 q 110 -58 86 -69 q 161 -42 135 -47 q 203 -187 176 -143 q 279 -231 231 -231 q 380 -137 342 -231 q 426 133 418 -44 q 351 52 393 79 q 261 25 310 25 q 112 113 169 25 q 54 343 54 200 q 67 520 54 438 q 124 738 81 603 q 174 731 147 736 q 222 719 201 726 q 175 513 188 590 q 163 346 163 435 q 197 179 163 243 q 290 115 232 115 q 367 153 332 115 q 429 268 401 190 q 415 496 428 393 q 372 690 401 599 q 426 714 393 707 q 489 715 458 721 q 523 505 510 629 q 536 269 536 381 m 257 940 q 291 935 276 939 q 318 925 306 932 q 290 852 304 894 q 267 769 275 810 q 232 767 254 768 q 179 768 210 767 q 176 790 176 779 q 175 811 175 800 q 181 874 175 840 q 199 931 188 908 q 226 940 214 938 q 257 940 239 942 m 432 940 q 466 935 451 939 q 493 925 481 932 q 465 852 479 894 q 442 769 450 810 q 407 767 429 768 q 354 768 385 767 q 351 790 351 779 q 350 811 350 800 q 356 874 350 840 q 374 931 363 908 q 401 940 389 938 q 432 940 414 942 z "},"Ā":{"ha":854,"x_min":26,"x_max":826,"o":"m 826 -111 q 781 -132 804 -124 q 719 -146 757 -140 q 678 106 699 -3 q 635 304 657 214 q 442 299 536 306 q 265 281 347 293 q 201 132 236 208 q 122 -29 165 56 q 72 -12 96 -24 q 26 21 49 0 q 228 448 150 239 q 381 979 307 657 q 443 975 418 978 q 492 967 468 972 q 702 463 628 703 q 826 -111 776 222 m 439 849 q 372 585 406 703 q 297 363 338 468 q 443 378 364 372 q 614 388 522 385 q 538 621 579 510 q 439 849 496 732 m 568 1063 q 413 1056 482 1053 q 297 1074 343 1058 q 297 1113 296 1090 q 301 1151 299 1136 q 437 1137 369 1139 q 569 1143 504 1135 q 571 1106 571 1125 q 568 1063 571 1088 z "},"ā":{"ha":628,"x_min":38,"x_max":549,"o":"m 549 474 q 524 231 549 382 q 464 -47 499 79 q 419 -43 443 -47 q 374 -32 396 -39 q 376 -19 375 -26 q 382 1 378 -11 q 389 34 386 24 q 393 53 392 44 q 327 21 364 32 q 249 10 290 10 q 96 60 154 10 q 38 194 38 111 q 114 332 38 285 q 339 379 190 379 q 382 378 361 379 q 438 376 403 378 q 439 407 439 390 q 439 460 439 424 q 412 621 439 571 q 322 671 385 671 q 215 615 258 671 q 169 472 172 558 q 107 491 131 478 q 71 526 83 504 q 163 682 88 618 q 336 746 239 746 q 495 677 442 746 q 549 474 549 608 m 147 192 q 181 110 147 140 q 268 81 214 81 q 342 92 307 81 q 408 128 378 104 q 426 229 419 185 q 435 318 432 274 q 219 295 292 326 q 147 192 147 264 m 482 819 q 326 813 396 810 q 211 831 257 815 q 211 870 210 847 q 215 908 213 893 q 351 894 283 896 q 483 900 418 892 q 485 863 485 882 q 482 819 485 844 z "},"Ă":{"ha":854,"x_min":26,"x_max":826,"o":"m 826 -111 q 781 -132 804 -124 q 719 -146 757 -140 q 678 106 699 -3 q 635 304 657 214 q 442 299 536 306 q 265 281 347 293 q 201 132 236 208 q 122 -29 165 56 q 72 -12 96 -24 q 26 21 49 0 q 228 448 150 239 q 381 979 307 657 q 443 975 418 978 q 492 967 468 972 q 702 463 628 703 q 826 -111 776 222 m 439 849 q 372 585 406 703 q 297 363 338 468 q 443 378 364 372 q 614 388 522 385 q 538 621 579 510 q 439 849 496 732 m 308 1114 q 288 1158 294 1135 q 283 1213 282 1182 q 319 1221 300 1218 q 358 1222 339 1224 q 372 1147 353 1169 q 439 1125 390 1125 q 504 1151 486 1125 q 510 1225 522 1176 q 545 1229 525 1229 q 585 1226 565 1229 q 583 1162 588 1190 q 565 1111 578 1133 q 517 1069 549 1083 q 438 1056 485 1056 q 363 1070 396 1056 q 308 1114 331 1085 z "},"ă":{"ha":628,"x_min":38,"x_max":549,"o":"m 549 474 q 524 231 549 382 q 464 -47 499 79 q 419 -43 443 -47 q 374 -32 396 -39 q 376 -19 375 -26 q 382 1 378 -11 q 389 34 386 24 q 393 53 392 44 q 327 21 364 32 q 249 10 290 10 q 96 60 154 10 q 38 194 38 111 q 114 332 38 285 q 339 379 190 379 q 382 378 361 379 q 438 376 403 378 q 439 407 439 390 q 439 460 439 424 q 412 621 439 571 q 322 671 385 671 q 215 615 258 671 q 169 472 172 558 q 107 491 131 478 q 71 526 83 504 q 163 682 88 618 q 336 746 239 746 q 495 677 442 746 q 549 474 549 608 m 147 192 q 181 110 147 140 q 268 81 214 81 q 342 92 307 81 q 408 128 378 104 q 426 229 419 185 q 435 318 432 274 q 219 295 292 326 q 147 192 147 264 m 225 856 q 205 900 211 876 q 200 954 199 924 q 236 963 217 960 q 275 964 256 965 q 288 889 269 911 q 356 867 307 867 q 421 892 403 867 q 426 967 439 918 q 462 971 442 971 q 501 968 482 971 q 499 903 504 932 q 482 853 494 875 q 433 811 465 825 q 354 797 401 797 q 280 812 313 797 q 225 856 247 826 z "},"Ą":{"ha":854,"x_min":26,"x_max":882,"o":"m 882 -322 q 820 -383 854 -364 q 743 -403 786 -403 q 661 -374 692 -403 q 631 -299 631 -346 q 652 -217 631 -257 q 718 -140 674 -178 q 678 104 699 -4 q 635 304 657 213 q 442 299 536 306 q 265 281 347 293 q 201 132 236 208 q 122 -29 165 56 q 72 -12 96 -24 q 26 21 49 0 q 228 448 150 239 q 381 979 307 657 q 443 975 418 978 q 492 967 468 972 q 702 463 628 703 q 826 -111 776 222 q 814 -119 818 -117 q 806 -122 810 -121 q 739 -201 760 -164 q 718 -276 718 -237 q 730 -316 718 -303 q 765 -329 742 -329 q 810 -315 790 -329 q 847 -268 829 -300 q 867 -290 858 -278 q 882 -322 875 -303 m 439 849 q 372 585 406 703 q 297 363 338 468 q 443 378 364 372 q 614 388 522 385 q 538 621 579 510 q 439 849 496 732 z "},"ą":{"ha":625,"x_min":38,"x_max":549,"o":"m 147 192 q 181 110 147 140 q 268 81 214 81 q 342 92 307 81 q 408 128 378 104 q 426 229 419 185 q 435 318 432 274 q 219 295 292 326 q 147 192 147 264 m 465 -186 q 485 -208 476 -196 q 500 -240 493 -221 q 440 -301 474 -282 q 361 -321 406 -321 q 279 -292 310 -321 q 249 -217 249 -264 q 279 -121 249 -167 q 374 -31 310 -75 q 377 -15 375 -24 q 383 11 379 -6 q 390 38 388 29 q 393 53 392 46 q 327 21 364 32 q 249 10 290 10 q 96 60 154 10 q 38 194 38 111 q 114 332 38 285 q 339 379 190 379 q 382 378 361 379 q 438 376 403 378 q 439 407 439 390 q 439 460 439 424 q 412 621 439 571 q 322 671 385 671 q 215 615 258 671 q 169 472 172 558 q 107 491 131 478 q 71 526 83 504 q 163 682 88 618 q 336 746 239 746 q 495 677 442 746 q 549 474 549 608 q 524 231 549 382 q 464 -47 499 79 q 442 -46 453 -47 q 419 -43 431 -44 q 356 -121 376 -85 q 336 -194 336 -157 q 349 -233 336 -219 q 383 -247 361 -247 q 428 -233 408 -247 q 465 -186 447 -218 z "},"Ć":{"ha":760,"x_min":64,"x_max":683,"o":"m 589 308 q 637 306 615 310 q 679 290 658 301 q 594 38 671 124 q 381 -49 518 -49 q 147 65 229 -49 q 64 390 64 179 q 170 804 64 646 q 449 963 276 963 q 626 884 569 963 q 679 646 683 806 q 633 627 660 633 q 571 622 606 621 q 547 821 581 760 q 429 882 514 882 q 253 751 325 882 q 181 414 181 621 q 236 131 181 229 q 396 32 292 32 q 542 106 490 32 q 589 308 593 181 m 564 1283 q 535 1165 557 1224 q 475 1043 513 1106 q 442 1046 458 1043 q 403 1054 425 1049 q 440 1176 426 1118 q 458 1289 453 1233 q 513 1290 483 1292 q 564 1283 542 1289 z "},"ć":{"ha":589,"x_min":38,"x_max":538,"o":"m 538 511 q 489 495 515 500 q 432 490 463 490 q 406 631 432 583 q 331 678 381 678 q 199 558 254 678 q 143 283 143 438 q 181 106 143 171 q 289 40 219 40 q 387 84 342 40 q 467 210 432 128 q 504 192 488 203 q 533 165 521 181 q 437 24 511 82 q 271 -35 363 -35 q 98 47 158 -35 q 38 275 38 128 q 121 615 38 479 q 332 751 204 751 q 483 688 429 751 q 538 511 538 624 m 469 1022 q 440 903 463 963 q 381 782 418 844 q 347 785 364 782 q 308 793 331 788 q 345 915 332 857 q 364 1028 358 972 q 418 1029 389 1031 q 469 1022 447 1028 z "},"Č":{"ha":760,"x_min":64,"x_max":683,"o":"m 589 308 q 637 306 615 310 q 679 290 658 301 q 594 38 671 124 q 381 -49 518 -49 q 147 65 229 -49 q 64 390 64 179 q 170 804 64 646 q 449 963 276 963 q 626 884 569 963 q 679 646 683 806 q 633 627 660 633 q 571 622 606 621 q 547 821 581 760 q 429 882 514 882 q 253 751 325 882 q 181 414 181 621 q 236 131 181 229 q 396 32 292 32 q 542 106 490 32 q 589 308 593 181 m 265 1204 q 294 1229 282 1221 q 322 1244 307 1238 q 393 1185 365 1213 q 444 1125 421 1158 q 495 1186 467 1158 q 567 1246 524 1214 q 595 1229 582 1239 q 622 1206 608 1219 q 538 1117 567 1156 q 485 1028 508 1079 q 467 1025 478 1026 q 444 1024 456 1024 q 426 1024 438 1024 q 404 1026 415 1025 q 356 1110 385 1072 q 265 1204 328 1147 z "},"č":{"ha":589,"x_min":38,"x_max":538,"o":"m 538 511 q 489 495 515 500 q 432 490 463 490 q 406 631 432 583 q 331 678 381 678 q 199 558 254 678 q 143 283 143 438 q 181 106 143 171 q 289 40 219 40 q 387 84 342 40 q 467 210 432 128 q 504 192 488 203 q 533 165 521 181 q 437 24 511 82 q 271 -35 363 -35 q 98 47 158 -35 q 38 275 38 128 q 121 615 38 479 q 332 751 204 751 q 483 688 429 751 q 538 511 538 624 m 171 967 q 200 992 188 983 q 228 1007 213 1000 q 299 948 271 975 q 350 888 326 921 q 401 949 372 921 q 472 1008 429 976 q 501 992 488 1001 q 528 968 514 982 q 443 880 472 918 q 390 790 414 842 q 372 788 383 789 q 350 786 361 786 q 332 787 343 786 q 310 789 321 788 q 262 872 290 835 q 171 967 233 910 z "},"Ď":{"ha":800,"x_min":89,"x_max":743,"o":"m 743 617 q 597 233 743 406 q 206 -15 451 61 q 158 -11 196 -15 q 111 -4 121 -7 q 94 381 99 218 q 89 706 89 544 q 90 826 89 763 q 93 938 92 889 q 217 981 153 967 q 354 996 281 996 q 644 899 544 996 q 743 617 743 801 m 211 893 q 201 672 204 774 q 197 318 197 569 q 198 187 197 246 q 201 68 199 128 q 521 288 413 149 q 629 619 629 428 q 553 840 629 764 q 333 915 478 915 q 273 910 303 915 q 211 893 243 904 m 183 1233 q 213 1258 200 1250 q 240 1274 225 1267 q 311 1215 283 1242 q 363 1154 339 1188 q 413 1215 385 1188 q 485 1275 442 1243 q 513 1258 500 1268 q 540 1235 526 1249 q 456 1147 485 1185 q 403 1057 426 1108 q 385 1054 396 1056 q 363 1053 374 1053 q 344 1053 356 1053 q 322 1056 333 1054 q 274 1139 303 1101 q 183 1233 246 1176 z "},"ď":{"ha":640,"x_min":46,"x_max":757,"o":"m 546 -46 q 506 -55 529 -51 q 467 -58 483 -58 q 460 31 463 -14 q 456 121 457 76 q 386 -2 429 38 q 278 -42 343 -42 q 108 58 171 -42 q 46 324 46 158 q 128 615 46 506 q 349 724 211 724 q 394 721 371 724 q 438 713 418 718 q 435 897 436 843 q 435 994 435 951 q 467 1006 447 1001 q 504 1010 486 1010 q 528 1008 515 1010 q 556 1003 540 1006 q 545 756 549 917 q 542 169 542 596 q 542 60 542 107 q 546 -46 543 14 m 151 339 q 189 117 151 196 q 293 39 226 39 q 394 108 354 39 q 447 310 433 176 q 442 471 444 388 q 439 639 440 554 q 403 647 422 644 q 361 649 383 649 q 209 566 267 649 q 151 339 151 483 m 757 939 q 728 778 747 847 q 676 643 710 710 q 640 647 657 644 q 601 656 622 650 q 635 799 624 729 q 649 946 647 868 q 705 947 675 949 q 757 939 735 944 z "},"Đ":{"ha":800,"x_min":-36,"x_max":743,"o":"m 197 479 q 197 399 197 439 q 197 318 197 358 q 198 187 197 246 q 201 68 199 128 q 521 288 413 149 q 629 619 629 428 q 553 840 629 764 q 333 915 478 915 q 271 910 301 915 q 211 894 240 904 q 201 708 204 789 q 197 550 199 626 q 299 558 247 553 q 408 572 350 563 q 409 535 410 553 q 406 500 408 517 q 299 485 351 490 q 197 479 247 481 m 743 617 q 597 233 743 406 q 206 -15 451 61 q 158 -11 196 -15 q 111 -4 121 -7 q 98 274 103 164 q 92 478 93 385 q 28 481 60 479 q -35 486 -4 483 q -35 530 -36 513 q -32 560 -35 547 q 31 555 1 557 q 90 551 61 553 q 89 610 89 579 q 89 706 89 642 q 90 826 89 763 q 93 938 92 889 q 217 981 154 967 q 336 996 279 996 q 640 900 538 996 q 743 617 743 804 z "},"đ":{"ha":640,"x_min":46,"x_max":699,"o":"m 546 -46 q 506 -55 529 -51 q 467 -58 483 -58 q 460 31 463 -14 q 456 121 457 76 q 386 -2 429 38 q 278 -42 343 -42 q 108 58 171 -42 q 46 324 46 158 q 128 615 46 506 q 349 724 211 724 q 394 721 371 724 q 438 713 418 718 q 436 746 436 728 q 436 800 436 764 q 349 801 396 799 q 242 808 303 803 q 242 858 242 843 q 244 882 243 872 q 340 874 293 876 q 435 872 386 872 q 435 933 435 903 q 435 994 435 964 q 467 1006 447 1001 q 504 1010 486 1010 q 528 1008 515 1010 q 556 1003 540 1006 q 551 939 553 971 q 549 876 550 907 q 611 882 578 878 q 697 894 644 886 q 698 862 699 881 q 694 822 697 843 q 624 813 661 817 q 546 804 588 808 q 543 637 544 731 q 542 169 542 543 q 542 60 542 107 q 546 -46 543 14 m 151 339 q 189 117 151 196 q 293 39 226 39 q 393 108 353 39 q 447 310 433 178 q 442 471 444 388 q 439 639 440 554 q 403 647 422 644 q 361 649 383 649 q 209 566 267 649 q 151 339 151 483 z "},"Ē":{"ha":722,"x_min":81,"x_max":669,"o":"m 667 -18 q 437 -44 557 -35 q 175 -57 317 -53 q 109 485 135 210 q 81 960 83 761 q 390 1006 274 993 q 635 1021 507 1018 q 633 973 635 996 q 626 931 631 950 q 408 920 513 929 q 201 894 303 911 q 201 722 199 811 q 211 531 204 633 q 417 565 344 554 q 563 581 490 575 q 570 540 568 561 q 571 494 572 519 q 388 477 465 486 q 217 453 311 468 q 238 232 226 339 q 265 28 250 125 q 476 42 381 31 q 660 72 571 53 q 667 26 665 53 q 667 -18 669 0 m 483 1093 q 328 1086 397 1083 q 213 1104 258 1089 q 213 1144 211 1121 q 217 1182 214 1167 q 352 1167 285 1169 q 485 1174 419 1165 q 486 1137 486 1156 q 483 1093 486 1118 z "},"ē":{"ha":604,"x_min":42,"x_max":560,"o":"m 165 435 q 252 413 206 421 q 350 406 299 406 q 383 407 364 406 q 410 411 401 408 q 426 485 421 451 q 431 547 431 519 q 410 635 431 608 q 346 661 390 661 q 239 599 288 661 q 165 435 190 536 m 475 236 q 520 219 497 232 q 560 190 543 207 q 452 48 533 111 q 283 -15 371 -15 q 106 72 171 -15 q 42 307 42 160 q 134 604 42 472 q 354 736 226 736 q 484 684 436 736 q 532 543 532 632 q 523 448 532 496 q 499 357 514 400 q 431 342 471 347 q 333 338 392 338 q 242 345 289 338 q 153 368 196 353 q 149 335 150 351 q 149 304 149 319 q 187 127 149 194 q 289 60 225 60 q 400 112 344 60 q 475 236 456 164 m 510 808 q 354 801 424 799 q 239 819 285 804 q 239 859 238 836 q 243 897 240 882 q 378 883 311 885 q 511 889 446 881 q 513 852 513 871 q 510 808 513 833 z "},"Ė":{"ha":722,"x_min":81,"x_max":669,"o":"m 667 -18 q 437 -44 557 -35 q 175 -57 317 -53 q 109 485 135 210 q 81 960 83 761 q 390 1006 274 993 q 635 1021 507 1018 q 633 973 635 996 q 626 931 631 950 q 408 920 513 929 q 201 894 303 911 q 201 722 199 811 q 211 531 204 633 q 417 565 344 554 q 563 581 490 575 q 570 540 568 561 q 571 494 572 519 q 388 477 465 486 q 217 453 311 468 q 238 232 226 339 q 265 28 250 125 q 476 42 381 31 q 660 72 571 53 q 667 26 665 53 q 667 -18 669 0 m 390 1251 q 424 1247 410 1250 q 451 1236 439 1243 q 423 1163 438 1206 q 400 1081 408 1121 q 365 1078 388 1079 q 313 1079 343 1078 q 309 1101 310 1090 q 308 1122 308 1111 q 315 1185 308 1151 q 332 1242 321 1219 q 360 1251 347 1249 q 390 1251 372 1253 z "},"ė":{"ha":604,"x_min":42,"x_max":560,"o":"m 165 435 q 252 413 206 421 q 350 406 299 406 q 383 407 364 406 q 410 411 401 408 q 426 485 421 451 q 431 547 431 519 q 410 635 431 608 q 346 661 390 661 q 239 599 288 661 q 165 435 190 536 m 475 236 q 520 219 497 232 q 560 190 543 207 q 452 48 533 111 q 283 -15 371 -15 q 106 72 171 -15 q 42 307 42 160 q 134 604 42 472 q 354 736 226 736 q 484 684 436 736 q 532 543 532 632 q 523 448 532 496 q 499 357 514 400 q 431 342 471 347 q 333 338 392 338 q 242 345 289 338 q 153 368 196 353 q 149 335 150 351 q 149 304 149 319 q 187 127 149 194 q 289 60 225 60 q 400 112 344 60 q 475 236 456 164 m 424 947 q 458 942 443 946 q 485 932 472 939 q 456 859 471 901 q 433 776 442 817 q 399 774 421 775 q 346 775 376 774 q 342 797 343 786 q 342 818 342 807 q 348 881 342 847 q 365 938 354 915 q 393 947 381 944 q 424 947 406 949 z "},"Ę":{"ha":722,"x_min":81,"x_max":739,"o":"m 739 -224 q 677 -284 711 -265 q 599 -303 643 -303 q 517 -274 547 -303 q 486 -199 486 -246 q 513 -110 486 -153 q 592 -28 539 -68 q 403 -46 503 -39 q 175 -57 304 -53 q 109 485 135 210 q 81 960 83 761 q 390 1006 274 993 q 635 1021 507 1018 q 633 973 635 996 q 626 931 631 950 q 408 920 513 929 q 201 894 303 911 q 201 722 199 811 q 211 531 204 633 q 417 565 344 554 q 563 581 490 575 q 570 540 568 561 q 571 494 572 519 q 388 477 465 486 q 217 453 311 468 q 238 232 226 339 q 265 28 250 125 q 476 42 381 31 q 660 72 571 53 q 667 26 665 53 q 667 -18 669 0 q 597 -99 619 -61 q 575 -176 575 -137 q 587 -216 575 -203 q 622 -229 599 -229 q 668 -215 649 -229 q 704 -168 688 -200 q 725 -192 717 -179 q 739 -224 733 -206 z "},"ę":{"ha":604,"x_min":42,"x_max":560,"o":"m 165 428 q 252 406 206 414 q 350 399 299 399 q 383 400 364 399 q 410 404 401 401 q 426 478 421 444 q 431 540 431 513 q 410 627 431 601 q 346 653 390 653 q 239 590 288 653 q 165 428 190 528 m 501 -106 q 521 -128 513 -115 q 536 -160 529 -140 q 477 -217 511 -197 q 400 -236 443 -236 q 316 -206 347 -236 q 285 -126 285 -176 q 295 -72 285 -97 q 328 -19 306 -46 q 299 -22 307 -21 q 283 -22 290 -22 q 106 65 171 -22 q 42 300 42 153 q 134 597 42 464 q 354 729 226 729 q 484 676 436 729 q 532 536 532 624 q 523 439 532 488 q 499 350 514 390 q 428 334 469 339 q 333 329 388 329 q 241 338 288 329 q 153 361 194 346 q 149 328 150 344 q 149 297 149 313 q 187 120 149 188 q 289 53 225 53 q 400 105 344 53 q 475 229 456 157 q 520 213 497 225 q 560 183 543 200 q 515 101 540 135 q 447 35 489 67 q 392 -28 411 10 q 372 -104 372 -65 q 385 -149 372 -132 q 419 -167 399 -167 q 465 -152 446 -167 q 501 -106 485 -137 z "},"Ě":{"ha":722,"x_min":81,"x_max":669,"o":"m 667 -18 q 437 -44 557 -35 q 175 -57 317 -53 q 109 485 135 210 q 81 960 83 761 q 390 1006 274 993 q 635 1021 507 1018 q 633 973 635 996 q 626 931 631 950 q 408 920 513 929 q 201 894 303 911 q 201 722 199 811 q 211 531 204 633 q 417 565 344 554 q 563 581 490 575 q 570 540 568 561 q 571 494 572 519 q 388 477 465 486 q 217 453 311 468 q 238 232 226 339 q 265 28 250 125 q 476 42 381 31 q 660 72 571 53 q 667 26 665 53 q 667 -18 669 0 m 178 1256 q 207 1281 194 1272 q 235 1296 219 1289 q 306 1237 278 1264 q 357 1176 333 1210 q 408 1238 379 1210 q 479 1297 436 1265 q 508 1281 494 1290 q 535 1257 521 1271 q 450 1169 479 1207 q 397 1079 421 1131 q 379 1076 390 1078 q 357 1075 368 1075 q 339 1076 350 1075 q 317 1078 328 1076 q 269 1161 297 1124 q 178 1256 240 1199 z "},"ě":{"ha":604,"x_min":42,"x_max":560,"o":"m 165 435 q 252 413 206 421 q 350 406 299 406 q 383 407 364 406 q 410 411 401 408 q 426 485 421 451 q 431 547 431 519 q 410 635 431 608 q 346 661 390 661 q 239 599 288 661 q 165 435 190 536 m 475 236 q 520 219 497 232 q 560 190 543 207 q 452 48 533 111 q 283 -15 371 -15 q 106 72 171 -15 q 42 307 42 160 q 134 604 42 472 q 354 736 226 736 q 484 684 436 736 q 532 543 532 632 q 523 448 532 496 q 499 357 514 400 q 431 342 471 347 q 333 338 392 338 q 242 345 289 338 q 153 368 196 353 q 149 335 150 351 q 149 304 149 319 q 187 127 149 194 q 289 60 225 60 q 400 112 344 60 q 475 236 456 164 m 196 964 q 225 989 213 981 q 253 1004 238 997 q 324 945 296 972 q 375 885 351 918 q 426 946 397 918 q 497 1006 454 974 q 526 989 513 999 q 553 965 539 979 q 468 877 497 915 q 415 788 439 839 q 397 785 408 786 q 375 783 386 783 q 357 784 368 783 q 335 786 346 785 q 287 869 315 832 q 196 964 258 907 z "},"Ğ":{"ha":789,"x_min":64,"x_max":747,"o":"m 675 483 q 690 224 672 349 q 747 -29 708 100 q 708 -36 731 -33 q 663 -40 686 -39 q 628 56 643 8 q 600 154 613 104 q 487 15 551 60 q 336 -29 422 -29 q 138 90 211 -29 q 64 415 64 210 q 164 842 64 678 q 428 1006 264 1006 q 604 918 540 1006 q 668 681 668 831 q 615 669 642 674 q 557 664 588 665 q 515 859 554 793 q 401 925 475 925 q 241 790 304 925 q 178 449 178 656 q 226 162 178 264 q 360 60 274 60 q 488 118 433 60 q 574 288 543 176 q 563 373 568 328 q 556 471 558 418 q 612 480 581 476 q 675 483 643 483 m 274 1121 q 253 1165 260 1142 q 249 1219 247 1189 q 285 1228 265 1225 q 324 1229 304 1231 q 337 1154 318 1176 q 404 1132 356 1132 q 469 1158 451 1132 q 475 1232 488 1183 q 510 1236 490 1236 q 550 1233 531 1236 q 548 1169 553 1197 q 531 1118 543 1140 q 482 1076 514 1090 q 403 1063 450 1063 q 328 1077 361 1063 q 274 1121 296 1092 z "},"ğ":{"ha":628,"x_min":49,"x_max":546,"o":"m 171 357 q 207 158 171 231 q 303 86 243 86 q 381 133 349 86 q 438 278 414 179 q 423 469 435 382 q 389 631 411 556 q 362 637 376 635 q 332 639 347 639 q 211 569 251 639 q 171 357 171 499 m 546 235 q 472 -194 546 -46 q 269 -343 399 -343 q 122 -283 181 -343 q 49 -121 64 -224 q 95 -94 69 -106 q 147 -78 121 -83 q 192 -221 161 -176 q 276 -265 222 -265 q 388 -167 346 -265 q 438 118 429 -69 q 373 33 410 61 q 288 6 336 6 q 120 99 182 6 q 58 353 58 193 q 134 620 58 522 q 338 718 210 718 q 420 708 378 718 q 499 681 463 699 q 533 466 519 590 q 546 235 546 342 m 169 819 q 149 864 156 840 q 144 918 143 888 q 181 926 161 924 q 219 928 200 929 q 233 853 214 875 q 300 831 251 831 q 365 856 347 831 q 371 931 383 882 q 406 935 386 935 q 446 932 426 935 q 444 867 449 896 q 426 817 439 839 q 378 775 410 789 q 299 761 346 761 q 224 776 257 761 q 169 819 192 790 z "},"Ģ":{"ha":789,"x_min":64,"x_max":747,"o":"m 675 483 q 690 224 672 349 q 747 -29 708 100 q 708 -36 731 -33 q 663 -40 686 -39 q 628 56 643 8 q 600 154 613 104 q 487 15 551 60 q 336 -29 422 -29 q 138 90 211 -29 q 64 415 64 210 q 164 842 64 678 q 428 1006 264 1006 q 604 918 540 1006 q 668 681 668 831 q 615 669 642 674 q 557 664 588 665 q 515 859 554 793 q 401 925 475 925 q 241 790 304 925 q 178 449 178 656 q 226 162 178 264 q 360 60 274 60 q 488 118 433 60 q 574 288 543 176 q 563 373 568 328 q 556 471 558 418 q 612 480 581 476 q 675 483 643 483 m 325 -89 q 370 -82 350 -83 q 414 -83 390 -81 q 404 -215 417 -147 q 363 -351 392 -283 q 325 -347 342 -350 q 293 -337 308 -344 q 320 -212 313 -271 q 325 -89 328 -153 z "},"ģ":{"ha":628,"x_min":49,"x_max":546,"o":"m 171 357 q 207 158 171 231 q 303 86 243 86 q 381 133 349 86 q 438 278 414 179 q 423 469 435 382 q 389 631 411 556 q 362 637 376 635 q 332 639 347 639 q 211 569 251 639 q 171 357 171 499 m 546 235 q 472 -194 546 -46 q 269 -343 399 -343 q 122 -283 181 -343 q 49 -121 64 -224 q 95 -94 69 -106 q 147 -78 121 -83 q 192 -221 161 -176 q 276 -265 222 -265 q 388 -167 346 -265 q 438 118 429 -69 q 373 33 410 61 q 288 6 336 6 q 120 99 182 6 q 58 353 58 193 q 134 620 58 522 q 338 718 210 718 q 420 708 378 718 q 499 681 463 699 q 533 466 519 590 q 546 235 546 342 m 343 807 q 295 802 318 803 q 250 803 272 801 q 260 937 247 867 q 303 1075 274 1007 q 341 1070 324 1074 q 374 1061 358 1067 q 347 932 354 993 q 343 807 340 871 z "},"Ī":{"ha":326,"x_min":10,"x_max":285,"o":"m 217 676 q 215 237 217 365 q 207 -28 213 108 q 168 -35 193 -32 q 115 -39 143 -37 q 113 479 118 238 q 92 926 107 721 q 127 940 108 936 q 165 944 146 944 q 187 944 176 944 q 210 940 197 943 q 215 821 214 882 q 217 676 217 760 m 282 1079 q 126 1072 196 1069 q 11 1090 57 1075 q 11 1130 10 1107 q 15 1168 13 1153 q 151 1153 83 1156 q 283 1160 218 1151 q 285 1123 285 1142 q 282 1079 285 1104 z "},"ī":{"ha":286,"x_min":65,"x_max":343,"o":"m 101 692 q 135 706 118 701 q 172 711 153 711 q 192 710 183 711 q 211 706 201 708 q 172 364 183 560 q 172 -1 161 168 q 147 -10 163 -7 q 117 -12 132 -12 q 103 -12 110 -12 q 89 -10 97 -11 q 69 350 65 156 q 101 692 74 544 m 340 810 q 185 803 254 800 q 69 821 115 806 q 69 860 68 838 q 74 899 71 883 q 209 884 142 886 q 342 890 276 882 q 343 853 343 872 q 340 810 343 835 z "},"Į":{"ha":326,"x_min":21,"x_max":272,"o":"m 272 -235 q 211 -295 244 -276 q 133 -314 178 -314 q 51 -285 82 -314 q 21 -210 21 -257 q 47 -122 21 -164 q 126 -39 74 -79 q 121 -39 124 -39 q 115 -39 118 -39 q 113 479 118 238 q 92 926 107 721 q 127 940 108 936 q 165 944 146 944 q 187 944 176 944 q 210 940 197 943 q 215 821 214 882 q 217 676 217 760 q 215 237 217 365 q 207 -28 213 108 q 203 -28 206 -28 q 200 -29 201 -29 q 131 -110 153 -72 q 108 -187 108 -149 q 120 -227 108 -214 q 156 -240 132 -240 q 201 -226 182 -240 q 238 -179 221 -211 q 258 -202 250 -189 q 272 -235 265 -215 z "},"į":{"ha":286,"x_min":-15,"x_max":269,"o":"m 269 1014 q 241 941 256 983 q 218 858 226 899 q 179 855 203 856 q 131 856 156 854 q 127 878 128 868 q 126 900 126 889 q 133 963 126 929 q 150 1019 139 996 q 178 1028 165 1026 q 208 1029 190 1031 q 242 1024 228 1028 q 269 1014 257 1021 m 235 -210 q 174 -270 207 -251 q 96 -289 140 -289 q 15 -260 46 -289 q -15 -186 -15 -232 q 12 -94 -15 -137 q 94 -11 39 -51 l 89 -10 q 69 355 65 167 q 101 692 72 543 q 135 706 118 701 q 172 711 153 711 q 192 710 183 711 q 211 706 201 708 q 172 364 183 560 q 172 -1 161 168 q 169 -3 171 -3 q 161 -6 167 -4 q 92 -87 114 -50 q 71 -164 71 -125 q 83 -203 71 -189 q 118 -217 96 -217 q 163 -202 143 -217 q 200 -156 182 -187 q 219 -177 211 -164 q 235 -210 228 -190 z "},"İ":{"ha":326,"x_min":92,"x_max":238,"o":"m 217 676 q 215 237 217 365 q 207 -28 213 108 q 168 -35 193 -32 q 115 -39 143 -37 q 113 479 118 238 q 92 926 107 721 q 127 940 108 936 q 165 944 146 944 q 187 944 176 944 q 210 940 197 943 q 215 821 214 882 q 217 676 217 760 m 176 1228 q 210 1223 196 1226 q 238 1213 225 1219 q 209 1140 224 1182 q 186 1057 194 1097 q 151 1055 174 1056 q 99 1056 129 1054 q 95 1077 96 1067 q 94 1099 94 1088 q 101 1162 94 1128 q 118 1218 107 1196 q 146 1227 133 1225 q 176 1228 158 1229 z "},"ı":{"ha":286,"x_min":65,"x_max":211,"o":"m 101 692 q 135 706 118 701 q 172 711 153 711 q 192 710 183 711 q 211 706 201 708 q 172 364 183 560 q 172 -1 161 168 q 147 -10 163 -7 q 117 -12 132 -12 q 103 -12 110 -12 q 89 -10 97 -11 q 69 350 65 156 q 101 692 74 544 z "},"Ķ":{"ha":781,"x_min":92,"x_max":768,"o":"m 768 -43 q 729 -87 750 -69 q 682 -117 708 -104 q 501 159 585 51 q 296 385 418 267 q 235 335 251 349 q 203 311 218 322 q 213 117 206 207 q 235 -86 221 26 q 186 -94 214 -90 q 139 -97 158 -97 q 102 255 113 99 q 92 611 92 411 q 95 778 92 690 q 106 965 99 867 q 149 975 133 972 q 179 978 165 978 q 207 976 193 978 q 236 969 221 974 q 210 735 218 854 q 201 460 201 617 q 201 428 201 444 q 201 397 201 413 q 422 631 340 521 q 601 951 503 742 q 645 925 624 942 q 688 883 667 908 q 533 635 607 735 q 365 446 460 536 q 567 239 486 338 q 768 -43 647 140 m 361 -96 q 406 -89 386 -90 q 450 -90 426 -87 q 440 -222 453 -154 q 399 -358 428 -290 q 361 -354 378 -357 q 329 -344 344 -351 q 356 -219 349 -278 q 361 -96 364 -160 z "},"ķ":{"ha":621,"x_min":71,"x_max":593,"o":"m 171 339 q 176 142 171 236 q 194 -47 182 47 q 144 -56 171 -53 q 99 -58 118 -58 q 76 213 82 107 q 71 433 71 318 q 81 742 71 586 q 111 1031 92 897 q 174 1031 142 1033 q 226 1021 206 1028 q 189 730 203 874 q 172 444 175 586 q 340 610 271 531 q 488 814 408 690 q 527 788 508 804 q 560 754 546 772 q 426 576 489 647 q 272 431 363 506 q 406 272 335 339 q 593 125 476 204 q 553 74 569 90 q 519 47 538 57 q 364 188 431 117 q 208 379 297 260 q 190 365 199 372 q 171 350 181 357 q 171 344 171 347 q 171 339 171 342 m 289 -68 q 334 -61 314 -62 q 378 -62 354 -60 q 368 -194 381 -126 q 326 -331 356 -262 q 289 -326 306 -329 q 257 -317 272 -324 q 284 -191 276 -250 q 289 -68 292 -132 z "},"Ĺ":{"ha":667,"x_min":93,"x_max":653,"o":"m 643 -8 q 650 -58 647 -32 q 653 -100 653 -83 q 414 -109 524 -101 q 163 -136 304 -117 q 109 406 125 133 q 99 921 93 679 q 140 933 121 929 q 185 936 160 936 q 203 935 193 936 q 222 933 213 935 q 211 763 214 854 q 210 538 208 671 q 223 232 213 367 q 253 -40 233 97 q 453 -17 351 -25 q 643 -8 554 -8 m 271 1232 q 242 1113 264 1172 q 182 992 219 1054 q 149 994 165 992 q 110 1003 132 997 q 147 1124 133 1067 q 165 1238 160 1182 q 219 1239 190 1240 q 271 1232 249 1238 z "},"ĺ":{"ha":281,"x_min":68,"x_max":256,"o":"m 192 -74 q 148 -81 178 -78 q 97 -85 118 -85 q 72 484 75 225 q 83 1014 68 743 q 115 1026 97 1021 q 149 1031 132 1031 q 176 1028 163 1031 q 204 1022 189 1026 q 178 513 182 807 q 192 -74 175 219 m 256 1313 q 226 1194 249 1253 q 167 1072 204 1135 q 133 1075 150 1072 q 94 1083 117 1078 q 131 1205 118 1147 q 150 1318 144 1263 q 204 1319 175 1321 q 256 1313 233 1318 z "},"Ļ":{"ha":667,"x_min":93,"x_max":653,"o":"m 643 -8 q 650 -58 647 -32 q 653 -100 653 -83 q 414 -109 524 -101 q 163 -136 304 -117 q 109 406 125 133 q 99 921 93 679 q 140 933 121 929 q 185 936 160 936 q 203 935 193 936 q 222 933 213 935 q 211 763 214 854 q 210 538 208 671 q 223 232 213 367 q 253 -40 233 97 q 453 -17 351 -25 q 643 -8 554 -8 m 353 -172 q 398 -165 378 -167 q 442 -167 418 -164 q 432 -299 444 -231 q 390 -435 419 -367 q 353 -431 369 -433 q 321 -421 336 -428 q 348 -295 340 -354 q 353 -172 356 -236 z "},"ļ":{"ha":281,"x_min":64,"x_max":204,"o":"m 192 -74 q 148 -81 178 -78 q 97 -85 118 -85 q 72 484 75 225 q 83 1014 68 743 q 115 1026 97 1021 q 149 1031 132 1031 q 176 1028 163 1031 q 204 1022 189 1026 q 178 513 182 807 q 192 -74 175 219 m 96 -135 q 141 -128 121 -129 q 185 -129 161 -126 q 175 -261 188 -193 q 133 -397 163 -329 q 96 -393 113 -396 q 64 -383 79 -390 q 91 -258 83 -317 q 96 -135 99 -199 z "},"Ľ":{"ha":667,"x_min":93,"x_max":653,"o":"m 643 -8 q 650 -58 647 -32 q 653 -100 653 -83 q 414 -109 524 -101 q 163 -136 304 -117 q 109 406 125 133 q 99 921 93 679 q 140 933 121 929 q 185 936 160 936 q 203 935 193 936 q 222 933 213 935 q 211 763 214 854 q 210 538 208 671 q 223 232 213 367 q 253 -40 233 97 q 453 -17 351 -25 q 643 -8 554 -8 m 489 939 q 460 778 479 847 q 408 643 442 710 q 372 647 389 644 q 333 656 354 650 q 367 799 356 729 q 381 946 379 868 q 437 947 407 949 q 489 939 467 944 z "},"ľ":{"ha":281,"x_min":68,"x_max":383,"o":"m 192 -74 q 148 -81 178 -78 q 97 -85 118 -85 q 72 484 75 225 q 83 1014 68 743 q 115 1026 97 1021 q 149 1031 132 1031 q 176 1028 163 1031 q 204 1022 189 1026 q 178 513 182 807 q 192 -74 175 219 m 383 939 q 355 778 374 847 q 303 643 336 710 q 266 647 283 644 q 228 656 249 650 q 262 799 250 729 q 275 946 274 868 q 331 947 301 949 q 383 939 361 944 z "},"Ł":{"ha":647,"x_min":-75,"x_max":643,"o":"m 643 -100 q 403 -109 513 -101 q 154 -136 294 -117 q 128 71 139 -22 q 111 247 118 164 q 47 208 81 228 q -29 164 13 188 q -56 197 -44 179 q -75 239 -67 215 q 14 290 -31 264 q 104 344 58 315 q 90 642 93 496 q 89 921 86 788 q 131 933 111 929 q 176 936 150 936 q 194 935 185 936 q 213 933 203 935 q 203 769 206 857 q 200 538 200 681 q 201 490 200 515 q 203 410 201 465 q 318 491 258 447 q 449 589 378 535 q 474 560 463 576 q 497 517 485 543 q 354 410 425 461 q 208 308 283 358 q 221 140 213 226 q 243 -40 229 54 q 443 -17 342 -25 q 633 -8 544 -8 q 640 -58 638 -32 q 643 -100 643 -83 z "},"ł":{"ha":281,"x_min":-87,"x_max":353,"o":"m 192 -74 q 148 -81 178 -78 q 97 -85 118 -85 q 83 124 89 19 q 75 338 78 229 q 58 326 67 332 q 31 306 49 319 q -10 278 3 288 q -36 260 -24 268 q -62 289 -50 272 q -87 332 -74 306 q -10 385 -50 357 q 72 444 29 413 q 72 733 69 593 q 83 1014 75 872 q 115 1026 97 1021 q 149 1031 132 1031 q 176 1028 163 1031 q 204 1022 189 1026 q 187 794 193 919 q 178 525 181 668 q 238 574 208 549 q 299 625 268 599 q 325 598 313 614 q 353 556 338 582 q 271 486 314 521 q 178 413 228 451 q 181 178 178 300 q 192 -74 185 56 z "},"Ń":{"ha":875,"x_min":93,"x_max":769,"o":"m 208 460 q 216 248 210 365 q 235 -44 222 131 q 193 -51 217 -49 q 144 -56 169 -54 q 104 497 115 275 q 93 940 93 719 q 96 941 94 940 q 97 942 97 942 q 158 966 132 958 q 217 979 183 974 q 466 610 360 794 q 664 207 572 426 q 667 310 667 253 q 668 489 668 368 q 662 812 668 675 q 643 1031 656 949 q 705 1046 678 1042 q 761 1051 732 1050 q 768 874 767 933 q 769 763 769 815 q 763 381 769 544 q 740 33 756 217 q 698 27 719 29 q 650 24 676 25 q 438 458 549 263 q 206 808 326 653 q 206 611 204 735 q 208 460 208 488 m 542 1268 q 513 1149 535 1208 q 453 1028 490 1090 q 419 1031 436 1028 q 381 1039 403 1033 q 417 1160 404 1103 q 436 1274 431 1218 q 490 1275 461 1276 q 542 1268 519 1274 z "},"ń":{"ha":640,"x_min":69,"x_max":557,"o":"m 175 232 q 178 84 175 167 q 185 -36 181 1 q 142 -46 167 -42 q 93 -50 117 -50 q 76 328 83 96 q 69 721 69 560 q 103 732 83 728 q 143 736 122 736 q 170 735 157 736 q 197 731 183 733 q 191 651 194 706 q 186 579 188 596 q 283 693 232 656 q 392 731 335 731 q 517 667 478 731 q 557 469 557 604 q 540 226 557 361 q 503 15 522 92 q 453 22 481 17 q 404 33 426 26 q 440 275 429 169 q 451 474 451 381 q 430 600 451 561 q 360 639 408 639 q 263 590 311 639 q 181 457 215 542 q 176 311 178 357 q 175 232 175 265 m 417 1024 q 388 905 410 964 q 328 783 365 846 q 294 786 311 783 q 256 794 278 789 q 292 916 279 858 q 311 1029 306 974 q 365 1031 336 1032 q 417 1024 394 1029 z "},"Ņ":{"ha":875,"x_min":93,"x_max":769,"o":"m 208 460 q 216 248 210 365 q 235 -44 222 131 q 193 -51 217 -49 q 144 -56 169 -54 q 104 497 115 275 q 93 940 93 719 q 96 941 94 940 q 97 942 97 942 q 158 966 132 958 q 217 979 183 974 q 466 610 360 794 q 664 207 572 426 q 667 310 667 253 q 668 489 668 368 q 662 812 668 675 q 643 1031 656 949 q 705 1046 678 1042 q 761 1051 732 1050 q 768 874 767 933 q 769 763 769 815 q 763 381 769 544 q 740 33 756 217 q 698 27 719 29 q 650 24 676 25 q 438 458 549 263 q 206 808 326 653 q 206 611 204 735 q 208 460 208 488 m 415 -75 q 460 -68 440 -69 q 504 -69 481 -67 q 494 -201 507 -133 q 453 -337 482 -269 q 415 -333 432 -336 q 383 -324 399 -331 q 410 -198 403 -257 q 415 -75 418 -139 z "},"ņ":{"ha":640,"x_min":69,"x_max":557,"o":"m 175 232 q 178 84 175 167 q 185 -36 181 1 q 142 -46 167 -42 q 93 -50 117 -50 q 76 328 83 96 q 69 721 69 560 q 103 732 83 728 q 143 736 122 736 q 170 735 157 736 q 197 731 183 733 q 191 651 194 706 q 186 579 188 596 q 283 693 232 656 q 392 731 335 731 q 517 667 478 731 q 557 469 557 604 q 540 226 557 361 q 503 15 522 92 q 453 22 481 17 q 404 33 426 26 q 440 275 429 169 q 451 474 451 381 q 430 600 451 561 q 360 639 408 639 q 263 590 311 639 q 181 457 215 542 q 176 311 178 357 q 175 232 175 265 m 254 -74 q 299 -67 279 -68 q 343 -68 319 -65 q 333 -200 346 -132 q 292 -336 321 -268 q 254 -332 271 -335 q 222 -322 238 -329 q 249 -197 242 -256 q 254 -74 257 -137 z "},"Ň":{"ha":875,"x_min":93,"x_max":769,"o":"m 208 460 q 216 248 210 365 q 235 -44 222 131 q 193 -51 217 -49 q 144 -56 169 -54 q 104 497 115 275 q 93 940 93 719 q 96 941 94 940 q 97 942 97 942 q 158 966 132 958 q 217 979 183 974 q 466 610 360 794 q 664 207 572 426 q 667 310 667 253 q 668 489 668 368 q 662 812 668 675 q 643 1031 656 949 q 705 1046 678 1042 q 761 1051 732 1050 q 768 874 767 933 q 769 763 769 815 q 763 381 769 544 q 740 33 756 217 q 698 27 719 29 q 650 24 676 25 q 438 458 549 263 q 206 808 326 653 q 206 611 204 735 q 208 460 208 488 m 242 1214 q 271 1239 258 1231 q 299 1254 283 1247 q 369 1195 342 1222 q 421 1135 397 1168 q 472 1196 443 1168 q 543 1256 500 1224 q 572 1239 558 1249 q 599 1215 585 1229 q 514 1127 543 1165 q 461 1038 485 1089 q 443 1035 454 1036 q 421 1033 432 1033 q 403 1034 414 1033 q 381 1036 392 1035 q 333 1119 361 1082 q 242 1214 304 1157 z "},"ň":{"ha":640,"x_min":69,"x_max":557,"o":"m 175 232 q 178 84 175 167 q 185 -36 181 1 q 142 -46 167 -42 q 93 -50 117 -50 q 76 328 83 96 q 69 721 69 560 q 103 732 83 728 q 143 736 122 736 q 170 735 157 736 q 197 731 183 733 q 191 651 194 706 q 186 579 188 596 q 283 693 232 656 q 392 731 335 731 q 517 667 478 731 q 557 469 557 604 q 540 226 557 361 q 503 15 522 92 q 453 22 481 17 q 404 33 426 26 q 440 275 429 169 q 451 474 451 381 q 430 600 451 561 q 360 639 408 639 q 263 590 311 639 q 181 457 215 542 q 176 311 178 357 q 175 232 175 265 m 151 981 q 181 1006 168 997 q 208 1021 193 1014 q 279 962 251 989 q 331 901 307 935 q 381 963 353 935 q 453 1022 410 990 q 481 1006 468 1015 q 508 982 494 996 q 424 894 453 932 q 371 804 394 856 q 353 801 364 803 q 331 800 342 800 q 313 801 324 800 q 290 803 301 801 q 242 886 271 849 q 151 981 214 924 z "},"Ō":{"ha":832,"x_min":61,"x_max":767,"o":"m 453 1018 q 687 898 607 1018 q 767 547 767 778 q 745 349 767 447 q 683 175 724 251 q 555 24 632 75 q 381 -28 478 -28 q 149 111 238 -28 q 61 471 61 250 q 171 864 61 710 q 453 1018 281 1018 m 392 54 q 583 185 513 54 q 653 524 653 317 q 600 834 653 735 q 435 933 547 933 q 249 809 321 933 q 176 488 176 685 q 234 176 176 299 q 392 54 292 54 m 575 1133 q 419 1126 489 1124 q 304 1144 350 1129 q 304 1184 303 1161 q 308 1222 306 1207 q 444 1208 376 1210 q 576 1214 511 1206 q 578 1177 578 1196 q 575 1133 578 1158 z "},"ō":{"ha":624,"x_min":42,"x_max":569,"o":"m 42 336 q 124 631 42 517 q 338 744 207 744 q 507 663 444 744 q 569 444 569 582 q 491 115 569 243 q 283 -14 413 -14 q 107 83 172 -14 q 42 336 42 179 m 458 386 q 422 597 458 528 q 313 667 386 667 q 197 575 246 667 q 147 350 147 483 q 189 145 147 228 q 301 63 231 63 q 411 158 364 63 q 458 386 458 253 m 458 856 q 303 849 372 846 q 188 867 233 851 q 188 906 186 883 q 192 944 189 929 q 327 930 260 932 q 460 936 394 928 q 461 899 461 918 q 458 856 461 881 z "},"Ő":{"ha":832,"x_min":61,"x_max":767,"o":"m 453 1018 q 687 898 607 1018 q 767 547 767 778 q 745 349 767 447 q 683 175 724 251 q 555 24 632 75 q 381 -28 478 -28 q 149 111 238 -28 q 61 471 61 250 q 171 864 61 710 q 453 1018 281 1018 m 392 54 q 583 185 513 54 q 653 524 653 317 q 600 834 653 735 q 435 933 547 933 q 249 809 321 933 q 176 488 176 685 q 234 176 176 299 q 392 54 292 54 z "},"ő":{"ha":624,"x_min":42,"x_max":569,"o":"m 42 336 q 124 631 42 517 q 338 744 207 744 q 507 663 444 744 q 569 444 569 582 q 491 115 569 243 q 283 -14 413 -14 q 107 83 172 -14 q 42 336 42 179 m 458 386 q 422 597 458 528 q 313 667 386 667 q 197 575 246 667 q 147 350 147 483 q 189 145 147 228 q 301 63 231 63 q 411 158 364 63 q 458 386 458 253 z "},"Œ":{"ha":1238,"x_min":63,"x_max":1185,"o":"m 1182 -14 q 952 -40 1072 -31 q 690 -53 832 -49 q 678 29 685 -15 q 660 163 672 74 q 551 5 619 58 q 393 -49 483 -49 q 153 90 244 -49 q 63 450 63 229 q 160 846 63 696 q 424 996 258 996 q 518 979 475 996 q 596 929 561 963 q 596 944 596 936 q 596 958 596 951 q 914 1006 801 994 q 1150 1019 1026 1017 q 1148 972 1150 994 q 1142 929 1146 949 q 926 919 1031 928 q 717 894 821 911 q 717 722 714 811 q 726 531 719 633 q 933 565 860 554 q 1078 581 1006 575 q 1085 540 1083 561 q 1086 494 1088 519 q 903 477 981 486 q 732 453 826 468 q 753 237 742 343 q 781 32 765 131 q 991 46 896 35 q 1175 76 1086 57 q 1183 31 1181 57 q 1182 -14 1185 4 m 404 33 q 560 157 506 33 q 611 501 614 281 q 557 809 608 706 q 406 913 506 913 q 237 794 297 913 q 176 465 176 675 q 238 156 176 278 q 404 33 299 33 z "},"œ":{"ha":1061,"x_min":40,"x_max":972,"o":"m 300 46 q 410 141 363 46 q 457 369 457 236 q 421 581 457 511 q 311 650 385 650 q 195 558 244 650 q 146 333 146 467 q 188 128 146 211 q 300 46 229 46 m 578 417 q 665 394 618 401 q 764 386 711 386 q 797 388 779 386 q 824 393 815 390 q 840 467 835 435 q 844 528 844 500 q 824 615 844 589 q 758 642 804 642 q 652 579 701 642 q 578 417 603 517 m 889 218 q 934 201 911 214 q 972 171 957 188 q 865 29 947 93 q 700 -35 782 -35 q 575 3 628 -35 q 492 115 522 42 q 399 6 453 43 q 281 -31 346 -31 q 106 66 171 -31 q 40 319 40 163 q 122 613 40 500 q 333 726 204 726 q 460 685 406 726 q 542 569 514 644 q 647 678 588 640 q 769 717 706 717 q 899 665 851 717 q 946 524 946 613 q 937 430 946 478 q 911 338 928 382 q 844 323 883 328 q 746 318 804 318 q 655 326 701 318 q 565 349 608 333 q 563 317 564 333 q 561 286 561 301 q 599 108 561 176 q 703 40 638 40 q 813 93 758 40 q 889 218 868 146 z "},"Ŕ":{"ha":781,"x_min":92,"x_max":753,"o":"m 753 8 q 710 -19 739 -4 q 656 -39 681 -33 q 519 243 576 139 q 392 442 461 347 q 317 413 358 426 q 229 388 276 400 q 219 179 225 276 q 206 -7 214 82 q 158 -8 185 -10 q 114 -1 131 -6 q 123 176 121 108 q 125 317 125 243 q 118 671 125 540 q 92 976 111 801 q 231 1044 153 1019 q 386 1069 310 1069 q 603 997 524 1069 q 683 804 683 925 q 632 622 683 701 q 476 482 581 542 q 613 284 543 403 q 753 8 682 165 m 213 950 q 226 733 222 826 q 231 547 231 640 q 231 506 231 526 q 231 465 231 486 q 488 586 404 508 q 571 785 571 664 q 520 937 571 883 q 375 990 469 990 q 292 980 333 990 q 213 950 251 969 m 428 1353 q 399 1234 421 1293 q 339 1113 376 1175 q 306 1115 322 1113 q 267 1124 289 1118 q 303 1245 290 1188 q 322 1358 317 1303 q 376 1360 347 1361 q 428 1353 406 1358 z "},"ŕ":{"ha":499,"x_min":53,"x_max":467,"o":"m 206 -3 q 179 -10 194 -7 q 149 -12 164 -12 q 128 -12 138 -14 q 111 -8 119 -11 q 65 361 76 168 q 63 750 53 554 q 86 756 72 754 q 128 758 100 758 q 155 756 142 758 q 182 750 168 754 q 169 649 174 690 q 164 569 165 607 q 249 740 196 678 q 358 803 301 803 q 440 762 414 803 q 467 636 467 721 q 465 600 467 619 q 463 558 464 581 q 423 552 446 554 q 374 551 400 550 q 378 591 376 572 q 379 628 379 610 q 368 694 379 672 q 335 715 357 715 q 240 616 288 715 q 165 358 193 517 q 179 190 169 279 q 206 -3 189 100 m 343 1051 q 314 933 336 992 q 254 811 292 874 q 221 814 238 811 q 182 822 204 817 q 219 944 206 886 q 238 1057 232 1001 q 292 1058 263 1060 q 343 1051 321 1057 z "},"Ŗ":{"ha":781,"x_min":92,"x_max":753,"o":"m 753 8 q 710 -19 739 -4 q 656 -39 681 -33 q 519 243 576 139 q 392 442 461 347 q 317 413 358 426 q 229 388 276 400 q 219 179 225 276 q 206 -7 214 82 q 158 -8 185 -10 q 114 -1 131 -6 q 123 176 121 108 q 125 317 125 243 q 118 671 125 540 q 92 976 111 801 q 231 1044 153 1019 q 386 1069 310 1069 q 603 997 524 1069 q 683 804 683 925 q 632 622 683 701 q 476 482 581 542 q 613 284 543 403 q 753 8 682 165 m 213 950 q 226 733 222 826 q 231 547 231 640 q 231 506 231 526 q 231 465 231 486 q 488 586 404 508 q 571 785 571 664 q 520 937 571 883 q 375 990 469 990 q 292 980 333 990 q 213 950 251 969 m 357 -56 q 402 -49 382 -50 q 446 -50 422 -47 q 436 -182 449 -114 q 394 -318 424 -250 q 357 -314 374 -317 q 325 -304 340 -311 q 352 -178 344 -237 q 357 -56 360 -119 z "},"ŗ":{"ha":499,"x_min":53,"x_max":467,"o":"m 206 -3 q 179 -10 194 -7 q 149 -12 164 -12 q 128 -12 138 -14 q 111 -8 119 -11 q 65 361 76 168 q 63 750 53 554 q 86 756 72 754 q 128 758 100 758 q 155 756 142 758 q 182 750 168 754 q 169 649 174 690 q 164 569 165 607 q 249 740 196 678 q 358 803 301 803 q 440 762 414 803 q 467 636 467 721 q 465 600 467 619 q 463 558 464 581 q 423 552 446 554 q 374 551 400 550 q 378 591 376 572 q 379 628 379 610 q 368 694 379 672 q 335 715 357 715 q 240 616 288 715 q 165 358 193 517 q 179 190 169 279 q 206 -3 189 100 m 115 -74 q 160 -67 140 -68 q 204 -68 181 -65 q 194 -200 207 -132 q 153 -336 182 -268 q 115 -332 132 -335 q 83 -322 99 -329 q 110 -197 103 -256 q 115 -74 118 -137 z "},"Ř":{"ha":781,"x_min":92,"x_max":753,"o":"m 753 8 q 710 -19 739 -4 q 656 -39 681 -33 q 519 243 576 139 q 392 442 461 347 q 317 413 358 426 q 229 388 276 400 q 219 179 225 276 q 206 -7 214 82 q 158 -8 185 -10 q 114 -1 131 -6 q 123 176 121 108 q 125 317 125 243 q 118 671 125 540 q 92 976 111 801 q 231 1044 153 1019 q 386 1069 310 1069 q 603 997 524 1069 q 683 804 683 925 q 632 622 683 701 q 476 482 581 542 q 613 284 543 403 q 753 8 682 165 m 213 950 q 226 733 222 826 q 231 547 231 640 q 231 506 231 526 q 231 465 231 486 q 488 586 404 508 q 571 785 571 664 q 520 937 571 883 q 375 990 469 990 q 292 980 333 990 q 213 950 251 969 m 168 1306 q 197 1331 185 1322 q 225 1346 210 1339 q 296 1287 268 1314 q 347 1226 324 1260 q 398 1288 369 1260 q 469 1347 426 1315 q 498 1331 485 1340 q 525 1307 511 1321 q 440 1219 469 1257 q 388 1129 411 1181 q 369 1126 381 1128 q 347 1125 358 1125 q 329 1126 340 1125 q 307 1128 318 1126 q 259 1211 288 1174 q 168 1306 231 1249 z "},"ř":{"ha":499,"x_min":51,"x_max":467,"o":"m 206 -3 q 179 -10 194 -7 q 149 -12 164 -12 q 128 -12 138 -14 q 111 -8 119 -11 q 65 361 76 168 q 63 750 53 554 q 86 756 72 754 q 128 758 100 758 q 155 756 142 758 q 182 750 168 754 q 169 649 174 690 q 164 569 165 607 q 249 740 196 678 q 358 803 301 803 q 440 762 414 803 q 467 636 467 721 q 465 600 467 619 q 463 558 464 581 q 423 552 446 554 q 374 551 400 550 q 378 591 376 572 q 379 628 379 610 q 368 694 379 672 q 335 715 357 715 q 240 616 288 715 q 165 358 193 517 q 179 190 169 279 q 206 -3 189 100 m 51 989 q 81 1014 68 1006 q 108 1029 93 1022 q 179 970 151 997 q 231 910 207 943 q 281 971 253 943 q 353 1031 310 999 q 381 1014 368 1024 q 408 990 394 1004 q 324 902 353 940 q 271 813 294 864 q 253 810 264 811 q 231 808 242 808 q 213 809 224 808 q 190 811 201 810 q 142 894 171 857 q 51 989 114 932 z "},"Ś":{"ha":660,"x_min":43,"x_max":611,"o":"m 547 400 q 588 310 575 358 q 601 206 601 263 q 528 17 601 90 q 339 -56 454 -56 q 122 47 200 -56 q 43 313 43 149 q 92 332 65 324 q 143 342 118 340 q 192 108 142 193 q 335 24 243 24 q 447 70 404 24 q 489 193 489 117 q 456 324 489 267 q 311 464 422 382 q 214 544 244 514 q 163 606 183 574 q 121 696 135 647 q 107 801 107 744 q 176 994 107 922 q 360 1065 244 1065 q 524 1005 465 1065 q 611 800 583 944 q 569 783 592 789 q 511 776 546 778 q 463 935 499 886 q 356 983 426 983 q 256 940 290 983 q 221 815 221 897 q 255 681 221 740 q 400 539 289 622 q 497 460 467 489 q 547 400 526 431 m 463 1351 q 433 1233 456 1292 q 374 1111 411 1174 q 340 1114 357 1111 q 301 1122 324 1117 q 338 1244 325 1186 q 357 1357 351 1301 q 411 1358 382 1360 q 463 1351 440 1357 z "},"ś":{"ha":519,"x_min":32,"x_max":471,"o":"m 308 400 q 440 277 408 328 q 471 165 471 226 q 410 7 471 69 q 254 -56 349 -56 q 94 15 156 -56 q 32 203 32 86 q 76 213 53 210 q 121 215 99 217 q 153 69 118 122 q 256 17 189 17 q 335 51 306 17 q 365 143 365 85 q 339 231 365 190 q 225 336 313 272 q 90 465 122 411 q 58 583 58 518 q 111 723 58 671 q 254 775 164 775 q 390 725 340 775 q 458 565 439 675 q 416 551 438 556 q 371 543 394 546 q 331 663 360 625 q 253 700 303 700 q 187 672 211 700 q 163 597 163 644 q 190 507 163 549 q 308 400 218 465 m 378 1047 q 349 928 371 988 q 289 807 326 869 q 256 810 272 807 q 217 818 239 813 q 253 940 240 882 q 272 1053 267 997 q 326 1054 297 1056 q 378 1047 356 1053 z "},"Ş":{"ha":660,"x_min":43,"x_max":611,"o":"m 547 400 q 588 310 575 358 q 601 206 601 263 q 528 17 601 90 q 339 -56 454 -56 q 122 47 200 -56 q 43 313 43 149 q 92 332 65 324 q 143 342 118 340 q 192 108 142 193 q 335 24 243 24 q 447 70 404 24 q 489 193 489 117 q 456 324 489 267 q 311 464 422 382 q 214 544 244 514 q 163 606 183 574 q 121 696 135 647 q 107 801 107 744 q 176 994 107 922 q 360 1065 244 1065 q 524 1005 465 1065 q 611 800 583 944 q 569 783 592 789 q 511 776 546 778 q 463 935 499 886 q 356 983 426 983 q 256 940 290 983 q 221 815 221 897 q 255 681 221 740 q 400 539 289 622 q 497 460 467 489 q 547 400 526 431 m 483 -207 q 442 -303 483 -267 q 333 -339 401 -339 q 244 -313 281 -339 q 189 -237 207 -287 q 222 -217 210 -224 q 247 -206 235 -211 q 281 -256 258 -237 q 331 -275 303 -275 q 380 -259 363 -275 q 397 -214 397 -243 q 380 -172 397 -189 q 336 -156 363 -156 q 310 -159 322 -156 q 286 -169 299 -162 q 265 -151 275 -161 q 250 -133 254 -140 q 279 -74 268 -104 q 294 -14 290 -44 l 361 -26 q 353 -65 358 -46 q 339 -103 349 -83 q 357 -101 351 -101 q 368 -100 363 -100 q 452 -129 421 -100 q 483 -207 483 -158 z "},"ş":{"ha":519,"x_min":32,"x_max":471,"o":"m 308 400 q 440 277 408 328 q 471 165 471 226 q 410 7 471 69 q 254 -56 349 -56 q 94 15 156 -56 q 32 203 32 86 q 76 213 53 210 q 121 215 99 217 q 153 69 118 122 q 256 17 189 17 q 335 51 306 17 q 365 143 365 85 q 339 231 365 190 q 225 336 313 272 q 90 465 122 411 q 58 583 58 518 q 111 723 58 671 q 254 775 164 775 q 390 725 340 775 q 458 565 439 675 q 416 551 438 556 q 371 543 394 546 q 331 663 360 625 q 253 700 303 700 q 187 672 211 700 q 163 597 163 644 q 190 507 163 549 q 308 400 218 465 m 417 -211 q 376 -307 417 -271 q 267 -343 335 -343 q 177 -317 214 -343 q 122 -242 140 -292 q 156 -222 143 -228 q 181 -210 168 -215 q 214 -260 192 -242 q 264 -279 236 -279 q 313 -263 296 -279 q 331 -218 331 -247 q 313 -176 331 -193 q 269 -160 296 -160 q 244 -163 256 -160 q 219 -174 232 -167 q 198 -155 208 -165 q 183 -137 188 -144 q 213 -78 201 -108 q 228 -18 224 -49 l 294 -31 q 287 -69 292 -50 q 272 -107 282 -87 q 290 -105 285 -106 q 301 -104 296 -104 q 385 -133 354 -104 q 417 -211 417 -162 z "},"Š":{"ha":660,"x_min":43,"x_max":611,"o":"m 547 400 q 588 310 575 358 q 601 206 601 263 q 528 17 601 90 q 339 -56 454 -56 q 122 47 200 -56 q 43 313 43 149 q 92 332 65 324 q 143 342 118 340 q 192 108 142 193 q 335 24 243 24 q 447 70 404 24 q 489 193 489 117 q 456 324 489 267 q 311 464 422 382 q 214 544 244 514 q 163 606 183 574 q 121 696 135 647 q 107 801 107 744 q 176 994 107 922 q 360 1065 244 1065 q 524 1005 465 1065 q 611 800 583 944 q 569 783 592 789 q 511 776 546 778 q 463 935 499 886 q 356 983 426 983 q 256 940 290 983 q 221 815 221 897 q 255 681 221 740 q 400 539 289 622 q 497 460 467 489 q 547 400 526 431 m 190 1288 q 219 1313 207 1304 q 247 1328 232 1321 q 318 1269 290 1296 q 369 1208 346 1242 q 420 1269 392 1242 q 492 1329 449 1297 q 520 1313 507 1322 q 547 1289 533 1303 q 463 1201 492 1239 q 410 1111 433 1163 q 392 1108 403 1110 q 369 1107 381 1107 q 351 1108 363 1107 q 329 1110 340 1108 q 281 1193 310 1156 q 190 1288 253 1231 z "},"š":{"ha":519,"x_min":32,"x_max":471,"o":"m 308 400 q 440 277 408 328 q 471 165 471 226 q 410 7 471 69 q 254 -56 349 -56 q 94 15 156 -56 q 32 203 32 86 q 76 213 53 210 q 121 215 99 217 q 153 69 118 122 q 256 17 189 17 q 335 51 306 17 q 365 143 365 85 q 339 231 365 190 q 225 336 313 272 q 90 465 122 411 q 58 583 58 518 q 111 723 58 671 q 254 775 164 775 q 390 725 340 775 q 458 565 439 675 q 416 551 438 556 q 371 543 394 546 q 331 663 360 625 q 253 700 303 700 q 187 672 211 700 q 163 597 163 644 q 190 507 163 549 q 308 400 218 465 m 88 989 q 117 1014 104 1006 q 144 1029 129 1022 q 215 970 188 997 q 267 910 243 943 q 317 971 289 943 q 389 1031 346 999 q 417 1014 404 1024 q 444 990 431 1004 q 360 902 389 940 q 307 813 331 864 q 289 810 300 811 q 267 808 278 808 q 249 809 260 808 q 226 811 238 810 q 178 894 207 857 q 88 989 150 932 z "},"Ţ":{"ha":819,"x_min":29,"x_max":779,"o":"m 501 47 q 456 38 483 42 q 399 33 428 35 q 393 511 406 257 q 350 981 381 765 q 203 963 279 974 q 40 940 128 953 q 32 988 35 964 q 31 1031 29 1011 q 401 1081 239 1065 q 769 1099 563 1096 q 776 1076 774 1089 q 779 1049 778 1064 q 779 1036 779 1043 q 776 1003 779 1029 q 619 999 693 1001 q 474 990 546 996 q 500 651 492 810 q 508 319 508 492 q 507 193 508 260 q 501 47 506 126 m 607 -131 q 566 -226 607 -190 q 457 -262 525 -262 q 367 -237 404 -262 q 313 -161 331 -211 q 346 -141 333 -147 q 371 -129 358 -135 q 404 -180 382 -161 q 454 -199 426 -199 q 503 -183 486 -199 q 521 -137 521 -167 q 503 -96 521 -112 q 460 -79 486 -79 q 434 -83 446 -79 q 410 -93 422 -86 q 388 -74 399 -85 q 374 -57 378 -64 q 403 2 392 -28 q 418 63 414 32 l 485 50 q 477 12 482 31 q 463 -26 472 -7 q 481 -24 475 -25 q 492 -24 486 -24 q 576 -53 544 -24 q 607 -131 607 -82 z "},"ţ":{"ha":515,"x_min":29,"x_max":463,"o":"m 378 288 q 422 278 400 285 q 458 263 443 272 q 412 80 456 146 q 293 14 368 14 q 161 113 206 14 q 117 407 117 213 q 121 535 117 471 q 133 665 125 599 q 81 671 107 667 q 29 681 56 675 q 35 718 31 700 q 46 751 39 736 q 96 742 72 746 q 143 736 119 738 q 158 815 149 772 q 182 919 167 857 q 240 913 211 918 q 294 900 268 908 q 269 811 281 854 q 251 728 258 768 q 360 728 307 726 q 463 735 413 731 q 459 703 463 721 q 450 667 456 686 q 345 659 399 661 q 239 658 292 657 q 224 525 229 593 q 218 392 218 457 q 240 167 218 244 q 301 90 261 90 q 358 138 339 90 q 378 288 376 186 m 440 -131 q 399 -226 440 -190 q 290 -262 358 -262 q 201 -237 238 -262 q 146 -161 164 -211 q 179 -141 167 -147 q 204 -129 192 -135 q 238 -180 215 -161 q 288 -199 260 -199 q 337 -183 319 -199 q 354 -137 354 -167 q 337 -96 354 -112 q 293 -79 319 -79 q 267 -83 279 -79 q 243 -93 256 -86 q 222 -74 232 -85 q 207 -57 211 -64 q 236 2 225 -28 q 251 63 247 32 l 318 50 q 310 12 315 31 q 296 -26 306 -7 q 314 -24 308 -25 q 325 -24 319 -24 q 409 -53 378 -24 q 440 -131 440 -82 z "},"Ť":{"ha":819,"x_min":29,"x_max":779,"o":"m 501 47 q 456 38 483 42 q 399 33 428 35 q 393 511 406 257 q 350 981 381 765 q 203 963 279 974 q 40 940 128 953 q 32 988 35 964 q 31 1031 29 1011 q 401 1081 239 1065 q 769 1099 563 1096 q 776 1076 774 1089 q 779 1049 778 1064 q 779 1036 779 1043 q 776 1003 779 1029 q 619 999 693 1001 q 474 990 546 996 q 500 651 492 810 q 508 319 508 492 q 507 193 508 260 q 501 47 506 126 m 210 1317 q 239 1342 226 1333 q 267 1357 251 1350 q 338 1298 310 1325 q 389 1238 365 1271 q 440 1299 411 1271 q 511 1358 468 1326 q 540 1342 526 1351 q 567 1318 553 1332 q 482 1230 511 1268 q 429 1140 453 1192 q 411 1138 422 1139 q 389 1136 400 1136 q 371 1137 382 1136 q 349 1139 360 1138 q 301 1222 329 1185 q 210 1317 272 1260 z "},"ť":{"ha":515,"x_min":29,"x_max":481,"o":"m 378 288 q 422 278 400 285 q 458 263 443 272 q 412 80 456 146 q 293 14 368 14 q 161 113 206 14 q 117 407 117 213 q 121 535 117 471 q 133 665 125 599 q 81 671 107 667 q 29 681 56 675 q 35 718 31 700 q 46 751 39 736 q 96 742 72 746 q 143 736 119 738 q 158 815 149 772 q 182 919 167 857 q 240 913 211 918 q 294 900 268 908 q 269 811 281 854 q 251 728 258 768 q 360 728 307 726 q 463 735 413 731 q 459 703 463 721 q 450 667 456 686 q 345 659 399 661 q 239 658 292 657 q 224 525 229 593 q 218 392 218 457 q 240 167 218 244 q 301 90 261 90 q 358 138 339 90 q 378 288 376 186 m 481 1082 q 452 922 471 990 q 400 786 433 853 q 363 790 381 788 q 325 799 346 793 q 359 942 347 872 q 372 1089 371 1011 q 428 1090 399 1092 q 481 1082 458 1088 z "},"Ū":{"ha":760,"x_min":75,"x_max":679,"o":"m 615 981 q 664 733 649 846 q 679 514 679 619 q 593 44 679 199 q 333 -111 507 -111 q 139 10 203 -111 q 75 378 75 131 q 96 646 75 506 q 146 872 117 786 q 175 878 157 876 q 208 881 193 881 q 232 879 221 881 q 253 875 243 878 q 207 629 222 747 q 192 408 192 511 q 229 77 192 179 q 353 -25 267 -25 q 509 99 454 -25 q 564 446 564 222 q 549 701 564 581 q 497 960 533 821 q 552 973 522 968 q 615 981 582 978 m 468 994 q 313 988 382 985 q 197 1006 243 990 q 197 1045 196 1022 q 201 1083 199 1068 q 337 1069 269 1071 q 469 1075 404 1067 q 471 1038 471 1057 q 468 994 471 1019 z "},"ū":{"ha":569,"x_min":54,"x_max":515,"o":"m 260 -14 q 106 85 158 -14 q 54 375 54 183 q 70 570 54 472 q 110 711 86 668 q 135 717 122 715 q 160 719 147 719 q 183 717 172 719 q 203 710 193 715 q 171 557 182 643 q 160 371 160 471 q 191 150 160 236 q 275 64 222 64 q 374 164 340 64 q 408 444 408 264 q 403 560 408 500 q 392 644 397 621 q 443 660 413 654 q 501 665 474 665 q 512 589 508 633 q 515 499 515 544 q 451 118 515 250 q 260 -14 386 -14 m 451 800 q 296 793 365 790 q 181 811 226 796 q 181 851 179 828 q 185 889 182 874 q 320 874 253 876 q 453 881 388 872 q 454 844 454 863 q 451 800 454 825 z "},"Ů":{"ha":760,"x_min":75,"x_max":679,"o":"m 615 981 q 664 733 649 846 q 679 514 679 619 q 593 44 679 199 q 333 -111 507 -111 q 139 10 203 -111 q 75 378 75 131 q 96 646 75 506 q 146 872 117 786 q 175 878 157 876 q 208 881 193 881 q 232 879 221 881 q 253 875 243 878 q 207 629 222 747 q 192 408 192 511 q 229 77 192 179 q 353 -25 267 -25 q 509 99 454 -25 q 564 446 564 222 q 549 701 564 581 q 497 960 533 821 q 552 973 522 968 q 615 981 582 978 m 214 1072 q 254 1174 214 1136 q 363 1211 294 1211 q 451 1181 418 1211 q 483 1100 483 1151 q 444 990 483 1031 q 339 950 406 950 q 249 985 285 950 q 214 1072 214 1019 m 404 1090 q 390 1144 404 1125 q 353 1164 376 1164 q 308 1139 325 1164 q 290 1072 290 1114 q 306 1021 290 1040 q 346 1001 322 1001 q 388 1026 372 1001 q 404 1090 404 1050 z "},"ů":{"ha":569,"x_min":54,"x_max":515,"o":"m 260 -14 q 106 85 158 -14 q 54 375 54 183 q 70 570 54 472 q 110 711 86 668 q 135 717 122 715 q 160 719 147 719 q 183 717 172 719 q 203 710 193 715 q 171 557 182 643 q 160 371 160 471 q 191 150 160 236 q 275 64 222 64 q 374 164 340 64 q 408 444 408 264 q 403 560 408 500 q 392 644 397 621 q 443 660 413 654 q 501 665 474 665 q 512 589 508 633 q 515 499 515 544 q 451 118 515 250 q 260 -14 386 -14 m 185 868 q 225 969 185 932 q 333 1007 265 1007 q 422 977 389 1007 q 454 896 454 947 q 415 786 454 826 q 310 746 376 746 q 220 781 256 746 q 185 868 185 815 m 375 886 q 361 940 375 921 q 324 960 347 960 q 278 935 296 960 q 261 868 261 910 q 277 817 261 836 q 317 797 293 797 q 359 822 343 797 q 375 886 375 846 z "},"Ű":{"ha":760,"x_min":75,"x_max":679,"o":"m 615 981 q 664 733 649 846 q 679 514 679 619 q 593 44 679 199 q 333 -111 507 -111 q 139 10 203 -111 q 75 378 75 131 q 96 646 75 506 q 146 872 117 786 q 175 878 157 876 q 208 881 193 881 q 232 879 221 881 q 253 875 243 878 q 207 629 222 747 q 192 408 192 511 q 229 77 192 179 q 353 -25 267 -25 q 509 99 454 -25 q 564 446 564 222 q 549 701 564 581 q 497 960 533 821 q 552 973 522 968 q 615 981 582 978 z "},"ű":{"ha":569,"x_min":54,"x_max":515,"o":"m 260 -14 q 106 85 158 -14 q 54 375 54 183 q 70 570 54 472 q 110 711 86 668 q 135 717 122 715 q 160 719 147 719 q 183 717 172 719 q 203 710 193 715 q 171 557 182 643 q 160 371 160 471 q 191 150 160 236 q 275 64 222 64 q 374 164 340 64 q 408 444 408 264 q 403 560 408 500 q 392 644 397 621 q 443 660 413 654 q 501 665 474 665 q 512 589 508 633 q 515 499 515 544 q 451 118 515 250 q 260 -14 386 -14 z "},"Ų":{"ha":760,"x_min":75,"x_max":679,"o":"m 519 -297 q 460 -353 494 -335 q 382 -372 426 -372 q 298 -343 329 -372 q 267 -264 267 -314 q 286 -185 267 -221 q 349 -111 306 -149 q 341 -111 344 -111 q 333 -111 338 -111 q 139 10 203 -111 q 75 378 75 131 q 96 646 75 506 q 146 872 117 786 q 175 878 157 876 q 208 881 193 881 q 232 879 221 881 q 253 875 243 878 q 207 629 222 747 q 192 408 192 511 q 229 77 192 179 q 353 -25 267 -25 q 509 99 454 -25 q 564 446 564 222 q 549 701 564 581 q 497 960 533 821 q 552 973 522 968 q 615 981 582 978 q 664 733 649 846 q 679 514 679 619 q 628 119 679 263 q 464 -83 576 -25 q 383 -153 413 -111 q 354 -239 354 -196 q 367 -286 354 -268 q 403 -304 381 -304 q 447 -290 426 -304 q 485 -243 467 -275 q 503 -265 496 -253 q 519 -297 511 -278 z "},"ų":{"ha":569,"x_min":54,"x_max":515,"o":"m 426 -194 q 367 -251 401 -232 q 289 -271 332 -271 q 204 -244 235 -271 q 174 -167 174 -217 q 195 -90 174 -128 q 260 -14 217 -53 l 260 -14 q 106 85 158 -14 q 54 375 54 183 q 70 570 54 472 q 110 711 86 668 q 135 717 122 715 q 160 719 147 719 q 183 717 172 719 q 203 710 193 715 q 171 557 182 643 q 160 371 160 471 q 191 150 160 236 q 275 64 222 64 q 374 164 340 64 q 408 444 408 264 q 403 560 408 500 q 392 644 397 621 q 443 660 413 654 q 501 665 474 665 q 512 589 508 633 q 515 499 515 544 q 478 189 515 310 q 371 19 442 68 q 290 -60 319 -17 q 261 -147 261 -104 q 275 -186 261 -171 q 310 -201 289 -201 q 354 -187 335 -201 q 390 -140 374 -172 q 410 -162 401 -150 q 426 -194 418 -175 z "},"Ÿ":{"ha":713,"x_min":19,"x_max":665,"o":"m 665 950 q 460 305 558 535 q 221 -115 361 75 q 172 -99 196 -108 q 132 -76 149 -89 q 242 93 193 10 q 331 261 292 176 q 150 575 222 410 q 19 978 78 740 q 76 1001 47 993 q 136 1011 104 1010 q 229 673 171 828 q 378 367 288 518 q 474 653 433 500 q 546 993 515 806 q 608 975 579 986 q 665 950 638 964 m 283 1243 q 317 1238 303 1242 q 344 1228 332 1235 q 316 1155 331 1197 q 293 1072 301 1113 q 258 1070 281 1071 q 206 1071 236 1069 q 202 1092 203 1082 q 201 1114 201 1103 q 208 1177 201 1143 q 225 1233 214 1211 q 253 1242 240 1240 q 283 1243 265 1244 m 458 1243 q 492 1238 478 1242 q 519 1228 507 1235 q 491 1155 506 1197 q 468 1072 476 1113 q 433 1070 456 1071 q 381 1071 411 1069 q 377 1092 378 1082 q 376 1114 376 1103 q 383 1177 376 1143 q 400 1233 389 1211 q 428 1242 415 1240 q 458 1243 440 1244 z "},"Ź":{"ha":813,"x_min":31,"x_max":775,"o":"m 725 64 q 717 8 724 35 q 699 -47 711 -19 q 360 -32 536 -46 q 32 7 185 -18 q 33 53 31 29 q 39 96 35 76 q 401 505 250 317 q 643 854 551 693 q 375 884 500 868 q 125 922 250 900 q 133 976 126 951 q 156 1025 140 1001 q 413 976 282 999 q 775 921 544 954 q 769 877 774 906 q 761 842 764 849 q 499 483 650 668 q 140 76 349 299 q 444 58 297 61 q 725 64 590 54 m 583 1274 q 554 1155 576 1214 q 494 1033 532 1096 q 461 1036 478 1033 q 422 1044 444 1039 q 459 1166 446 1108 q 478 1279 472 1224 q 532 1281 503 1282 q 583 1274 561 1279 z "},"ź":{"ha":613,"x_min":19,"x_max":569,"o":"m 533 68 q 526 23 532 46 q 510 -25 521 0 q 248 -11 364 -24 q 21 29 132 1 q 21 68 19 50 q 25 101 22 86 q 246 381 143 260 q 461 617 349 503 q 307 641 382 632 q 90 661 232 650 q 97 710 93 692 q 111 751 101 728 q 345 722 244 740 q 569 667 446 704 q 566 628 569 649 q 557 593 563 608 q 327 342 428 460 q 119 82 226 225 q 331 64 238 67 q 533 68 425 61 m 471 996 q 442 877 464 936 q 382 756 419 818 q 349 758 365 756 q 310 767 332 761 q 347 888 333 831 q 365 1001 360 946 q 419 1003 390 1004 q 471 996 449 1001 z "},"Ż":{"ha":813,"x_min":31,"x_max":775,"o":"m 725 64 q 717 8 724 35 q 699 -47 711 -19 q 360 -32 536 -46 q 32 7 185 -18 q 33 53 31 29 q 39 96 35 76 q 401 505 250 317 q 643 854 551 693 q 375 884 500 868 q 125 922 250 900 q 133 976 126 951 q 156 1025 140 1001 q 413 976 282 999 q 775 921 544 954 q 769 877 774 906 q 761 842 764 849 q 499 483 650 668 q 140 76 349 299 q 444 58 297 61 q 725 64 590 54 m 506 1214 q 540 1209 525 1213 q 567 1199 554 1206 q 538 1126 553 1168 q 515 1043 524 1083 q 481 1041 503 1042 q 428 1042 458 1040 q 424 1063 425 1053 q 424 1085 424 1074 q 430 1148 424 1114 q 447 1204 436 1182 q 475 1213 463 1211 q 506 1214 488 1215 z "},"ż":{"ha":613,"x_min":19,"x_max":569,"o":"m 533 68 q 526 23 532 46 q 510 -25 521 0 q 248 -11 364 -24 q 21 29 132 1 q 21 68 19 50 q 25 101 22 86 q 246 381 143 260 q 461 617 349 503 q 307 641 382 632 q 90 661 232 650 q 97 710 93 692 q 111 751 101 728 q 345 722 244 740 q 569 667 446 704 q 566 628 569 649 q 557 593 563 608 q 327 342 428 460 q 119 82 226 225 q 331 64 238 67 q 533 68 425 61 m 386 947 q 420 942 406 946 q 447 932 435 939 q 419 859 433 901 q 396 776 404 817 q 361 774 383 775 q 308 775 339 774 q 305 797 306 786 q 304 818 304 807 q 310 881 304 847 q 328 938 317 915 q 356 947 343 944 q 386 947 368 949 z "},"Ž":{"ha":813,"x_min":31,"x_max":775,"o":"m 725 64 q 717 8 724 35 q 699 -47 711 -19 q 360 -32 536 -46 q 32 7 185 -18 q 33 53 31 29 q 39 96 35 76 q 401 505 250 317 q 643 854 551 693 q 375 884 500 868 q 125 922 250 900 q 133 976 126 951 q 156 1025 140 1001 q 413 976 282 999 q 775 921 544 954 q 769 877 774 906 q 761 842 764 849 q 499 483 650 668 q 140 76 349 299 q 444 58 297 61 q 725 64 590 54 m 294 1214 q 324 1239 311 1231 q 351 1254 336 1247 q 422 1195 394 1222 q 474 1135 450 1168 q 524 1196 496 1168 q 596 1256 553 1224 q 624 1239 611 1249 q 651 1215 638 1229 q 567 1127 596 1165 q 514 1038 538 1089 q 496 1035 507 1036 q 474 1033 485 1033 q 456 1034 467 1033 q 433 1036 444 1035 q 385 1119 414 1082 q 294 1214 357 1157 z "},"ž":{"ha":613,"x_min":19,"x_max":569,"o":"m 533 68 q 526 23 532 46 q 510 -25 521 0 q 248 -11 364 -24 q 21 29 132 1 q 21 68 19 50 q 25 101 22 86 q 246 381 143 260 q 461 617 349 503 q 307 641 382 632 q 90 661 232 650 q 97 710 93 692 q 111 751 101 728 q 345 722 244 740 q 569 667 446 704 q 566 628 569 649 q 557 593 563 608 q 327 342 428 460 q 119 82 226 225 q 331 64 238 67 q 533 68 425 61 m 126 982 q 156 1007 143 999 q 183 1022 168 1015 q 254 963 226 990 q 306 903 282 936 q 356 964 328 936 q 428 1024 385 992 q 456 1007 443 1017 q 483 983 469 997 q 399 895 428 933 q 346 806 369 857 q 328 803 339 804 q 306 801 317 801 q 288 802 299 801 q 265 804 276 803 q 217 888 246 850 q 126 982 189 925 z "},"ƒ":{"ha":492,"x_min":-18,"x_max":494,"o":"m 314 75 q 263 -143 310 -71 q 125 -215 215 -215 q 21 -167 60 -215 q -18 -40 -18 -119 q -13 4 -18 -19 q 0 43 -8 28 q 42 39 21 43 q 85 28 64 35 q 76 -7 79 13 q 72 -49 72 -26 q 89 -115 72 -90 q 135 -139 106 -139 q 200 -90 179 -139 q 221 61 221 -42 q 183 351 221 183 q 144 526 146 519 q 78 537 111 531 q 15 553 44 543 q 19 583 15 564 q 26 615 22 603 q 79 608 53 611 q 133 603 106 604 q 129 655 131 638 q 128 688 128 672 q 181 926 126 843 q 338 1008 236 1008 q 452 961 410 1010 q 494 835 494 913 q 490 788 494 813 q 478 751 485 764 q 435 753 457 750 q 392 765 413 757 q 401 800 397 781 q 404 843 404 819 q 384 908 404 883 q 331 932 364 932 q 258 879 282 932 q 233 721 233 826 q 235 660 233 690 q 240 596 236 629 q 275 594 256 594 q 335 594 294 594 q 396 597 368 594 q 449 604 424 599 q 446 563 449 586 q 440 524 443 539 q 397 517 425 519 q 333 515 368 515 q 282 515 299 515 q 251 517 265 515 q 288 345 256 496 q 314 75 319 194 z "},"Ș":{"ha":660,"x_min":43,"x_max":611,"o":"m 547 400 q 588 310 575 358 q 601 206 601 263 q 528 17 601 90 q 339 -56 454 -56 q 122 47 200 -56 q 43 313 43 149 q 92 332 65 324 q 143 342 118 340 q 192 108 142 193 q 335 24 243 24 q 447 70 404 24 q 489 193 489 117 q 456 324 489 267 q 311 464 422 382 q 214 544 244 514 q 163 606 183 574 q 121 696 135 647 q 107 801 107 744 q 176 994 107 922 q 360 1065 244 1065 q 524 1005 465 1065 q 611 800 583 944 q 569 783 592 789 q 511 776 546 778 q 463 935 499 886 q 356 983 426 983 q 256 940 290 983 q 221 815 221 897 q 255 681 221 740 q 400 539 289 622 q 497 460 467 489 q 547 400 526 431 m 294 -96 q 340 -89 319 -90 q 383 -90 360 -87 q 374 -222 386 -154 q 332 -358 361 -290 q 294 -354 311 -357 q 263 -344 278 -351 q 290 -219 282 -278 q 294 -96 297 -160 z "},"ș":{"ha":519,"x_min":32,"x_max":471,"o":"m 308 400 q 440 277 408 328 q 471 165 471 226 q 410 7 471 69 q 254 -56 349 -56 q 94 15 156 -56 q 32 203 32 86 q 76 213 53 210 q 121 215 99 217 q 153 69 118 122 q 256 17 189 17 q 335 51 306 17 q 365 143 365 85 q 339 231 365 190 q 225 336 313 272 q 90 465 122 411 q 58 583 58 518 q 111 723 58 671 q 254 775 164 775 q 390 725 340 775 q 458 565 439 675 q 416 551 438 556 q 371 543 394 546 q 331 663 360 625 q 253 700 303 700 q 187 672 211 700 q 163 597 163 644 q 190 507 163 549 q 308 400 218 465 m 217 -100 q 262 -93 242 -94 q 306 -94 282 -92 q 296 -226 308 -158 q 254 -362 283 -294 q 217 -358 233 -361 q 185 -349 200 -356 q 212 -223 204 -282 q 217 -100 219 -164 z "},"Ț":{"ha":819,"x_min":29,"x_max":779,"o":"m 501 47 q 456 38 483 42 q 399 33 428 35 q 393 511 406 257 q 350 981 381 765 q 203 963 279 974 q 40 940 128 953 q 32 988 35 964 q 31 1031 29 1011 q 401 1081 239 1065 q 769 1099 563 1096 q 776 1076 774 1089 q 779 1049 778 1064 q 779 1036 779 1043 q 776 1003 779 1029 q 619 999 693 1001 q 474 990 546 996 q 500 651 492 810 q 508 319 508 492 q 507 193 508 260 q 501 47 506 126 m 403 -21 q 448 -14 428 -15 q 492 -15 468 -12 q 482 -147 494 -79 q 440 -283 469 -215 q 403 -279 419 -282 q 371 -269 386 -276 q 398 -144 390 -203 q 403 -21 406 -85 z "},"ț":{"ha":515,"x_min":29,"x_max":463,"o":"m 378 288 q 422 278 400 285 q 458 263 443 272 q 412 80 456 146 q 293 14 368 14 q 161 113 206 14 q 117 407 117 213 q 121 535 117 471 q 133 665 125 599 q 81 671 107 667 q 29 681 56 675 q 35 718 31 700 q 46 751 39 736 q 96 742 72 746 q 143 736 119 738 q 158 815 149 772 q 182 919 167 857 q 240 913 211 918 q 294 900 268 908 q 269 811 281 854 q 251 728 258 768 q 360 728 307 726 q 463 735 413 731 q 459 703 463 721 q 450 667 456 686 q 345 659 399 661 q 239 658 292 657 q 224 525 229 593 q 218 392 218 457 q 240 167 218 244 q 301 90 261 90 q 358 138 339 90 q 378 288 376 186 m 222 -40 q 267 -33 247 -35 q 311 -35 288 -32 q 301 -167 314 -99 q 260 -303 289 -235 q 222 -299 239 -301 q 190 -289 206 -296 q 217 -163 210 -222 q 222 -40 225 -104 z "},"ˆ":{"ha":361,"x_min":0,"x_max":357,"o":"m 357 847 q 328 822 340 831 q 300 807 315 814 q 229 866 257 839 q 178 926 201 893 q 127 865 156 893 q 56 806 99 838 q 27 822 40 813 q 0 846 14 832 q 85 934 56 896 q 138 1024 114 972 q 156 1026 144 1025 q 178 1028 167 1028 q 196 1027 185 1028 q 218 1025 207 1026 q 266 942 238 979 q 357 847 294 904 z "},"ˇ":{"ha":361,"x_min":1,"x_max":358,"o":"m 1 982 q 31 1007 18 999 q 58 1022 43 1015 q 129 963 101 990 q 181 903 157 936 q 231 964 203 936 q 303 1024 260 992 q 331 1007 318 1017 q 358 983 344 997 q 274 895 303 933 q 221 806 244 857 q 203 803 214 804 q 181 801 192 801 q 163 802 174 801 q 140 804 151 803 q 92 888 121 850 q 1 982 64 925 z "},"ˉ":{"ha":360,"x_min":42,"x_max":317,"o":"m 43 896 q 43 935 42 913 q 47 974 44 958 q 183 959 115 961 q 315 965 250 957 q 317 928 317 947 q 314 885 317 910 q 158 878 228 875 q 43 896 89 881 z "},"˘":{"ha":361,"x_min":28,"x_max":333,"o":"m 54 911 q 34 956 40 932 q 29 1010 28 979 q 65 1018 46 1015 q 104 1019 85 1021 q 117 944 99 967 q 185 922 136 922 q 250 948 232 922 q 256 1022 268 974 q 291 1026 271 1026 q 331 1024 311 1026 q 328 959 333 988 q 311 908 324 931 q 263 867 294 881 q 183 853 231 853 q 109 867 142 853 q 54 911 76 882 z "},"˙":{"ha":363,"x_min":131,"x_max":274,"o":"m 213 1035 q 247 1030 232 1033 q 274 1019 261 1026 q 245 947 260 989 q 222 864 231 904 q 188 862 210 863 q 135 863 165 861 q 131 884 132 874 q 131 906 131 894 q 137 969 131 935 q 154 1025 143 1003 q 182 1034 169 1032 q 213 1035 194 1036 z "},"˚":{"ha":361,"x_min":44,"x_max":314,"o":"m 44 924 q 85 1025 44 988 q 193 1063 125 1063 q 281 1033 249 1063 q 314 951 314 1003 q 275 842 314 882 q 169 801 236 801 q 80 836 115 801 q 44 924 44 871 m 235 942 q 221 996 235 976 q 183 1015 207 1015 q 138 990 156 1015 q 121 924 121 965 q 137 872 121 892 q 176 853 153 853 q 219 877 203 853 q 235 942 235 901 z "},"˛":{"ha":363,"x_min":42,"x_max":294,"o":"m 181 11 l 222 -1 q 151 -83 174 -44 q 129 -161 129 -121 q 142 -200 129 -186 q 178 -214 154 -214 q 222 -199 201 -214 q 260 -153 242 -185 q 278 -174 271 -161 q 294 -207 286 -186 q 233 -268 267 -249 q 156 -287 199 -287 q 73 -259 104 -287 q 42 -183 42 -231 q 76 -84 42 -132 q 181 11 110 -36 z "},"˜":{"ha":361,"x_min":19,"x_max":340,"o":"m 185 982 q 218 966 207 969 q 239 963 229 963 q 267 975 260 963 q 272 1015 274 988 q 305 1014 290 1017 q 336 1003 319 1011 q 318 916 340 946 q 250 886 296 886 q 214 892 232 886 q 168 914 196 897 q 138 930 147 926 q 119 933 128 933 q 94 921 101 933 q 88 883 86 908 q 55 885 72 882 q 24 893 38 888 q 42 978 19 947 q 108 1008 64 1008 q 141 1003 125 1008 q 185 982 157 999 z "},"˝":{"ha":361,"x_min":36,"x_max":361,"o":"m 197 1033 q 168 915 190 974 q 108 793 146 856 q 75 796 92 793 q 36 804 58 799 q 73 926 60 868 q 92 1039 86 983 q 146 1040 117 1042 q 197 1033 175 1039 m 361 1033 q 332 915 354 974 q 272 793 310 856 q 239 796 256 793 q 200 804 222 799 q 237 926 224 868 q 256 1039 250 983 q 310 1040 281 1042 q 361 1033 339 1039 z "},"π":{"ha":840,"x_min":28,"x_max":804,"o":"m 306 450 q 294 238 307 332 q 244 10 281 143 q 191 11 222 7 q 140 24 160 15 q 192 231 178 147 q 208 421 207 314 q 207 531 210 483 q 197 625 204 579 q 137 619 169 622 q 39 610 104 617 q 29 670 31 642 q 33 725 28 699 q 403 734 169 732 q 796 733 636 736 q 803 680 803 710 q 797 619 804 650 q 729 624 768 622 q 617 629 690 626 q 598 487 603 542 q 593 386 593 432 q 613 167 593 243 q 671 90 633 90 q 706 124 696 90 q 719 244 717 157 q 760 237 739 243 q 800 219 782 231 q 761 67 796 119 q 663 14 726 14 q 535 115 579 14 q 492 403 492 215 q 497 506 492 451 q 511 633 501 561 q 464 635 489 635 q 393 635 439 635 q 356 634 376 635 q 292 632 336 633 q 301 544 297 592 q 306 450 304 497 z "},"–":{"ha":582,"x_min":40,"x_max":542,"o":"m 532 346 q 281 335 407 332 q 40 358 156 339 q 44 399 42 381 q 49 438 46 418 q 190 421 114 426 q 344 415 267 415 q 441 417 392 415 q 542 424 490 419 q 539 388 542 408 q 532 346 536 368 z "},"—":{"ha":875,"x_min":40,"x_max":835,"o":"m 825 335 q 418 314 624 311 q 40 347 213 317 q 44 388 42 369 q 49 426 46 407 q 269 402 171 408 q 499 396 367 396 q 668 400 583 396 q 835 413 753 404 q 833 378 835 397 q 825 335 831 360 z "},"‘":{"ha":204,"x_min":15,"x_max":156,"o":"m 83 675 q 31 854 47 774 q 15 1017 15 935 q 66 1026 40 1024 q 118 1028 92 1029 q 123 856 114 938 q 156 681 132 774 q 122 676 139 678 q 83 675 104 675 z "},"’":{"ha":204,"x_min":49,"x_max":179,"o":"m 78 1022 q 131 1024 106 1025 q 179 1019 157 1024 q 166 860 179 935 q 118 676 153 786 q 83 681 101 678 q 49 689 64 685 q 75 881 68 799 q 78 1022 82 964 z "},"‚":{"ha":196,"x_min":18,"x_max":150,"o":"m 47 110 q 101 112 75 113 q 150 107 128 111 q 137 -48 150 25 q 88 -235 124 -121 q 53 -231 72 -233 q 18 -222 35 -228 q 44 -35 38 -118 q 47 110 51 49 z "},"“":{"ha":382,"x_min":15,"x_max":333,"o":"m 83 675 q 31 854 47 774 q 15 1017 15 935 q 66 1026 40 1024 q 118 1028 92 1029 q 123 856 114 938 q 156 681 132 774 q 122 676 139 678 q 83 675 104 675 m 261 675 q 209 854 225 774 q 193 1017 193 935 q 244 1026 218 1024 q 296 1028 269 1029 q 301 856 292 938 q 333 681 310 774 q 299 676 317 678 q 261 675 282 675 z "},"”":{"ha":386,"x_min":49,"x_max":361,"o":"m 78 1022 q 131 1024 106 1025 q 179 1019 157 1024 q 166 860 179 935 q 118 676 153 786 q 83 681 101 678 q 49 689 64 685 q 75 881 68 799 q 78 1022 82 964 m 260 1022 q 313 1024 288 1025 q 361 1019 339 1024 q 348 860 361 935 q 300 676 335 786 q 265 681 283 678 q 231 689 246 685 q 257 881 250 799 q 260 1022 264 964 z "},"„":{"ha":374,"x_min":18,"x_max":328,"o":"m 47 110 q 101 112 75 113 q 150 107 128 111 q 137 -48 150 25 q 88 -235 124 -121 q 53 -231 72 -233 q 18 -222 35 -228 q 44 -35 38 -118 q 47 110 51 49 m 225 110 q 279 112 253 113 q 328 107 306 111 q 315 -48 328 25 q 265 -235 301 -121 q 231 -231 250 -233 q 196 -222 213 -228 q 222 -35 215 -118 q 225 110 229 49 z "},"†":{"ha":644,"x_min":40,"x_max":601,"o":"m 351 674 q 362 117 364 457 q 360 -290 360 -224 q 319 -294 342 -293 q 276 -292 297 -294 q 275 -61 276 -224 q 275 192 274 101 q 277 458 275 340 q 285 675 279 575 q 169 672 224 675 q 47 663 114 669 q 42 697 43 682 q 42 724 40 713 q 42 736 42 731 q 46 756 43 742 q 130 755 85 757 q 286 743 175 753 q 278 892 281 844 q 275 986 276 940 q 299 991 285 989 q 329 993 314 993 q 348 992 339 993 q 367 989 357 992 q 363 876 365 933 q 356 740 361 819 q 483 744 428 742 q 594 751 538 747 q 600 717 599 731 q 600 692 601 703 q 599 676 600 683 q 596 660 599 669 q 507 660 556 658 q 351 674 458 663 z "},"‡":{"ha":644,"x_min":40,"x_max":604,"o":"m 358 -43 q 366 -188 364 -137 q 368 -285 368 -239 q 339 -289 351 -287 q 315 -290 326 -290 q 301 -289 308 -290 q 275 -283 293 -287 q 284 -130 281 -190 q 290 -40 288 -69 q 151 -46 204 -43 q 49 -53 99 -49 q 48 -45 49 -50 q 46 -32 47 -40 q 44 -10 44 -17 q 43 3 43 -3 q 44 17 43 10 q 49 39 44 24 q 149 36 97 39 q 290 25 201 33 q 276 366 278 213 q 283 675 275 519 q 168 672 222 675 q 47 663 114 669 q 42 697 43 682 q 42 724 40 713 q 42 736 42 731 q 46 756 43 742 q 130 755 85 757 q 286 743 175 753 q 278 892 281 844 q 275 986 276 940 q 299 991 285 989 q 329 993 314 993 q 348 992 339 993 q 367 989 357 992 q 363 876 365 933 q 356 740 361 819 q 483 744 428 742 q 594 751 538 747 q 600 717 599 731 q 600 692 601 703 q 599 676 600 683 q 596 658 599 669 q 505 660 554 657 q 351 674 456 664 q 367 369 365 497 q 357 25 368 240 q 497 31 415 26 q 599 38 579 36 q 601 14 599 35 q 603 -18 604 -7 q 602 -32 603 -25 q 597 -54 601 -39 q 521 -53 561 -54 q 358 -43 481 -51 z "},"•":{"ha":311,"x_min":49,"x_max":265,"o":"m 49 467 q 150 481 96 479 q 265 475 204 483 q 258 362 263 401 q 249 286 254 322 q 147 281 192 281 q 57 286 101 281 q 50 392 51 358 q 49 467 49 426 z "},"…":{"ha":678,"x_min":53,"x_max":629,"o":"m 53 106 q 121 115 89 114 q 185 110 153 115 q 181 42 183 65 q 175 -3 179 19 q 113 -7 140 -7 q 57 -3 86 -7 q 56 15 57 6 q 56 40 56 24 q 53 79 54 65 q 53 106 53 93 m 275 106 q 343 115 311 114 q 407 110 375 115 q 403 42 406 65 q 397 -3 401 19 q 335 -7 363 -7 q 279 -3 308 -7 q 278 15 279 6 q 278 40 278 24 q 276 79 276 65 q 275 106 275 93 m 497 106 q 565 115 533 114 q 629 110 597 115 q 626 42 628 65 q 619 -3 624 19 q 558 -7 585 -7 q 501 -3 531 -7 q 501 15 501 6 q 500 40 500 24 q 498 79 499 65 q 497 106 497 93 z "},"‰":{"ha":1592,"x_min":51,"x_max":1540,"o":"m 708 1085 q 753 1067 732 1078 q 792 1040 774 1056 q 568 527 683 771 q 278 -42 453 283 q 259 -35 268 -39 q 240 -25 250 -32 q 222 -13 233 -21 q 207 -3 211 -6 q 473 535 360 290 q 708 1085 586 781 m 51 729 q 117 963 51 878 q 294 1049 182 1049 q 428 983 379 1049 q 476 804 476 918 q 416 540 476 636 q 247 444 356 444 q 105 524 158 444 q 51 729 51 603 m 379 764 q 353 931 379 878 q 274 985 328 985 q 182 918 217 985 q 147 742 147 851 q 179 574 147 639 q 264 508 211 508 q 348 578 317 508 q 379 764 379 649 m 1114 268 q 1179 502 1114 417 q 1357 588 1244 588 q 1492 522 1443 588 q 1540 343 1540 457 q 1480 80 1540 175 q 1311 -15 1419 -15 q 1167 63 1221 -15 q 1114 268 1114 142 m 624 268 q 689 502 624 417 q 867 588 754 588 q 1001 522 953 588 q 1050 343 1050 457 q 990 80 1050 175 q 821 -15 929 -15 q 677 63 731 -15 q 624 268 624 142 m 1443 303 q 1417 470 1443 417 q 1338 524 1392 524 q 1245 457 1281 524 q 1210 281 1210 390 q 1242 113 1210 178 q 1328 47 1275 47 q 1412 117 1381 47 q 1443 303 1443 188 m 953 303 q 927 470 953 417 q 847 524 901 524 q 755 457 790 524 q 719 281 719 390 q 752 113 719 178 q 838 47 785 47 q 922 117 890 47 q 953 303 953 188 z "},"‹":{"ha":364,"x_min":13,"x_max":326,"o":"m 326 154 q 294 114 310 129 q 260 88 279 99 q 117 218 178 150 q 13 367 57 286 q 137 469 76 407 q 253 614 197 532 q 297 581 281 596 q 322 551 313 567 q 224 440 274 489 q 115 350 174 390 q 207 248 154 297 q 326 154 260 199 z "},"›":{"ha":364,"x_min":36,"x_max":351,"o":"m 351 367 q 247 218 307 286 q 104 88 186 150 q 69 113 85 99 q 36 154 54 128 q 156 248 103 199 q 249 350 210 297 q 138 441 189 392 q 40 551 88 490 q 68 583 51 568 q 113 615 85 597 q 226 471 167 533 q 351 367 286 408 z "},"⁄":{"ha":414,"x_min":-85,"x_max":500,"o":"m 417 1089 q 461 1071 440 1082 q 500 1044 482 1060 q 276 531 392 775 q -14 -37 161 288 q -33 -31 -24 -35 q -51 -21 -42 -28 q -69 -9 -58 -17 q -85 1 -81 -1 q 181 540 68 294 q 417 1089 294 785 z "},"€":{"ha":715,"x_min":18,"x_max":676,"o":"m 669 264 q 584 22 649 100 q 406 -56 519 -56 q 235 28 301 -56 q 150 265 168 111 q 88 266 119 265 q 24 269 57 267 q 21 310 21 290 q 24 344 21 331 q 71 342 46 343 q 144 339 96 340 q 143 356 143 347 q 143 383 143 365 q 143 397 143 390 q 144 418 143 404 q 144 439 144 432 q 144 451 144 446 q 85 452 115 451 q 21 456 54 453 q 19 497 18 478 q 22 531 19 517 q 112 526 90 526 q 153 525 133 525 q 266 819 178 711 q 481 928 354 928 q 630 850 583 928 q 668 614 676 772 q 624 600 646 604 q 571 594 601 596 q 557 788 583 726 q 463 850 531 850 q 334 763 390 850 q 261 529 278 675 q 367 538 314 532 q 478 553 419 544 q 477 517 479 536 q 471 482 475 497 q 357 466 410 472 q 256 456 304 460 q 254 435 254 446 q 254 400 254 424 q 254 365 254 376 q 256 343 254 353 q 355 352 301 346 q 479 368 408 358 q 478 331 481 351 q 472 297 476 311 q 344 279 390 285 q 261 271 299 274 q 317 85 275 149 q 428 22 360 22 q 541 94 500 22 q 582 292 582 165 q 628 283 607 290 q 669 264 650 276 z "},"₺":{"ha":713,"x_min":19,"x_max":686,"o":"m 686 422 q 542 112 650 208 q 200 0 435 15 q 174 203 185 111 q 154 381 163 296 q 92 381 124 381 q 24 385 60 382 q 22 430 22 413 q 25 460 22 447 q 72 457 47 458 q 149 454 97 456 q 144 524 146 500 q 142 567 143 547 q 85 567 114 567 q 22 571 56 568 q 20 613 19 593 q 24 646 21 632 q 67 643 44 644 q 139 640 90 642 q 137 799 136 724 q 140 947 138 874 q 185 959 164 956 q 228 963 207 963 q 247 961 238 963 q 264 958 256 960 q 254 808 257 883 q 253 643 251 732 q 352 652 299 646 q 479 668 406 658 q 478 631 481 651 q 472 597 476 611 q 336 578 382 583 q 253 571 290 574 q 253 526 253 550 q 256 457 254 503 q 353 465 300 460 q 481 482 406 471 q 478 443 481 461 q 474 413 476 425 q 362 396 414 403 q 258 385 310 389 q 270 250 263 319 q 289 101 278 181 q 501 197 428 113 q 600 458 574 282 q 648 444 628 453 q 686 422 668 436 z "},"₽":{"ha":797,"x_min":43,"x_max":729,"o":"m 313 893 q 296 681 301 776 q 290 494 290 585 q 290 490 290 492 q 290 485 290 488 q 534 563 451 500 q 617 732 617 626 q 562 860 617 815 q 406 906 507 906 q 359 903 382 906 q 313 893 336 900 m 297 224 q 303 108 299 169 q 314 -31 307 46 q 269 -32 293 -33 q 219 -26 244 -31 q 207 124 214 36 q 200 219 200 211 q 112 221 149 219 q 46 226 75 222 q 44 268 43 249 q 47 301 44 288 q 107 297 76 299 q 196 294 138 296 q 193 335 194 314 q 190 403 192 357 q 126 404 161 403 q 49 410 92 406 q 47 453 46 435 q 50 486 47 472 q 117 482 83 483 q 188 481 151 481 q 185 611 186 567 q 185 697 185 656 q 188 820 185 749 q 194 942 190 892 q 299 970 244 960 q 404 981 354 981 q 644 915 558 981 q 729 735 729 850 q 613 513 729 600 q 290 408 497 426 q 291 387 290 399 q 292 353 292 375 q 292 317 292 329 q 293 296 293 306 q 390 303 339 297 q 508 317 442 308 q 508 278 510 299 q 503 246 507 258 q 401 232 453 238 q 297 224 350 226 z "},"ℓ":{"ha":793,"x_min":15,"x_max":778,"o":"m 539 963 q 373 826 440 963 q 306 490 306 689 q 309 400 306 443 q 318 319 313 357 q 565 465 463 336 q 668 754 668 594 q 634 908 668 853 q 539 963 600 963 m 743 96 q 642 17 703 44 q 508 -10 581 -10 q 331 54 406 -10 q 219 236 256 118 q 115 258 165 242 q 15 301 65 274 q 32 351 21 328 q 57 389 43 374 q 130 349 96 364 q 199 326 164 333 q 191 391 193 357 q 189 465 189 425 q 288 880 189 717 q 544 1043 388 1043 q 715 970 651 1043 q 778 776 778 897 q 649 417 778 572 q 338 238 521 261 q 409 113 363 154 q 521 71 456 71 q 614 94 572 71 q 688 164 656 118 q 722 133 707 151 q 743 96 736 115 z "},"™":{"ha":1044,"x_min":14,"x_max":978,"o":"m 283 493 q 243 485 264 488 q 199 483 222 483 q 194 730 201 597 q 174 968 188 863 q 85 958 142 965 q 24 950 29 950 q 17 984 19 967 q 14 1019 14 1001 q 218 1049 128 1040 q 418 1058 308 1057 q 422 1045 419 1053 q 425 1019 424 1038 q 423 994 425 1008 q 421 981 421 981 q 344 980 381 981 q 275 976 308 979 q 285 828 282 903 q 289 668 289 754 q 288 574 289 618 q 283 493 286 531 m 975 457 q 931 445 953 449 q 882 442 910 442 q 891 654 888 546 q 896 869 894 763 q 833 754 865 810 q 764 640 801 699 q 738 637 754 639 q 711 635 721 635 q 649 782 681 715 q 581 907 617 849 q 581 880 581 893 q 581 853 581 867 q 590 674 581 767 q 617 493 599 582 q 579 487 608 490 q 533 483 550 483 q 506 747 515 597 q 500 1019 497 897 q 543 1041 514 1029 q 589 1054 572 1053 q 677 908 635 990 q 753 738 719 825 q 834 889 803 819 q 894 1050 865 958 q 934 1042 911 1049 q 972 1028 957 1035 q 977 797 976 933 q 975 457 978 660 z "},"Ω":{"ha":944,"x_min":14,"x_max":929,"o":"m 925 75 q 928 26 928 51 q 928 -15 929 0 q 716 -3 801 -6 q 536 -8 631 -1 q 531 35 532 18 q 531 68 529 53 q 713 324 661 210 q 764 569 764 438 q 681 832 764 731 q 468 933 599 933 q 260 832 342 933 q 179 569 179 731 q 230 326 179 439 q 411 69 281 213 q 411 32 413 50 q 407 -7 410 14 q 218 -3 304 -1 q 15 -14 132 -4 q 15 31 14 4 q 18 76 15 58 q 160 82 83 82 q 318 78 238 82 q 126 307 188 188 q 64 565 64 426 q 177 891 64 764 q 471 1018 290 1018 q 766 891 653 1018 q 879 564 879 764 q 817 307 879 426 q 625 76 756 188 q 783 81 707 81 q 925 75 860 81 z "},"℮":{"ha":965,"x_min":57,"x_max":907,"o":"m 907 381 l 907 371 l 218 371 q 214 370 215 371 q 213 367 213 369 l 213 158 q 215 145 213 151 q 222 133 217 139 q 341 51 274 79 q 483 22 408 22 q 635 55 564 22 q 757 147 706 88 l 818 147 q 668 38 756 76 q 482 -1 581 -1 q 181 110 306 -1 q 57 381 57 222 q 182 652 57 539 q 482 765 307 765 q 782 652 657 765 q 907 381 907 539 m 751 397 l 751 607 q 749 621 751 614 q 740 633 746 628 q 623 714 689 686 q 483 742 557 742 q 341 713 408 742 q 224 629 274 683 q 215 618 218 625 q 213 603 213 611 l 213 397 q 214 393 213 394 q 218 392 215 392 l 747 392 q 751 393 750 392 q 751 397 751 394 z "},"∂":{"ha":656,"x_min":54,"x_max":622,"o":"m 293 531 q 121 456 188 531 q 54 269 54 382 q 131 26 54 121 q 338 -68 208 -68 q 547 60 471 -68 q 622 408 622 188 q 533 814 622 667 q 285 961 443 961 q 133 898 189 961 q 58 707 76 835 q 105 687 82 694 q 157 675 128 679 q 201 831 168 781 q 294 881 235 881 q 453 755 392 881 q 514 421 514 629 q 514 405 514 413 q 514 389 514 397 q 419 494 475 458 q 293 531 363 531 m 503 267 q 438 77 485 144 q 325 10 392 10 q 209 74 256 10 q 163 229 163 139 q 206 392 163 332 q 322 451 249 451 q 427 402 379 451 q 503 267 475 353 z "},"∆":{"ha":849,"x_min":8,"x_max":832,"o":"m 506 1088 q 706 557 615 854 q 832 10 796 260 q 421 -6 635 -12 q 8 33 207 0 q 197 628 110 389 q 394 1101 283 867 q 460 1096 436 1099 q 506 1088 483 1093 m 444 981 q 280 574 356 789 q 136 111 204 360 q 411 88 251 92 q 704 97 571 85 q 600 544 668 314 q 444 981 532 774 z "},"∏":{"ha":797,"x_min":76,"x_max":721,"o":"m 721 -69 q 665 -66 697 -69 q 614 -57 633 -62 q 608 444 615 150 q 588 918 600 739 q 388 914 486 918 q 197 900 290 910 q 189 446 188 719 q 203 -42 190 172 q 156 -49 183 -47 q 106 -50 128 -51 q 84 455 92 193 q 76 974 76 717 q 374 1002 221 993 q 692 1008 526 1011 l 692 1007 l 692 1007 q 713 449 704 757 q 721 -69 721 142 z "},"∑":{"ha":656,"x_min":6,"x_max":646,"o":"m 644 -6 q 359 -42 510 -29 q 67 -57 208 -56 q 60 -25 63 -42 q 56 13 57 -8 q 242 263 169 157 q 390 500 315 368 q 167 704 260 611 q 11 882 75 797 q 6 919 7 900 q 8 960 6 939 q 316 1006 200 993 q 560 1021 432 1018 q 559 974 561 997 q 553 931 557 951 q 337 920 443 929 q 115 893 231 911 q 282 712 186 804 q 500 521 378 619 q 365 297 439 407 q 168 28 292 186 q 406 45 285 31 q 638 83 528 60 q 644 41 642 67 q 644 -6 646 15 z "},"−":{"ha":507,"x_min":43,"x_max":474,"o":"m 43 410 q 45 449 43 431 q 51 485 47 467 q 247 473 149 474 q 474 482 344 472 q 472 446 474 464 q 465 410 469 428 q 255 397 364 397 q 43 410 146 397 z "},"∕":{"ha":414,"x_min":-85,"x_max":500,"o":"m 417 1089 q 461 1071 440 1082 q 500 1044 482 1060 q 276 531 392 775 q -14 -37 161 288 q -33 -31 -24 -35 q -51 -21 -42 -28 q -69 -9 -58 -17 q -85 1 -81 -1 q 181 540 68 294 q 417 1089 294 785 z "},"∙":{"ha":254,"x_min":33,"x_max":221,"o":"m 33 522 q 125 535 78 533 q 221 531 172 538 q 215 435 218 468 q 206 369 211 401 q 119 364 158 364 q 40 369 81 364 q 36 438 39 389 q 33 522 33 486 z "},"√":{"ha":654,"x_min":65,"x_max":654,"o":"m 654 1038 q 547 458 618 708 q 324 -121 476 207 q 284 -130 300 -128 q 246 -132 268 -132 q 121 188 160 56 q 65 468 82 319 q 119 489 99 483 q 165 497 139 494 q 206 255 176 371 q 292 -3 235 139 q 465 514 408 279 q 550 1057 522 749 q 602 1052 578 1057 q 654 1038 626 1047 z "},"∞":{"ha":826,"x_min":35,"x_max":792,"o":"m 463 486 q 540 388 506 415 q 617 360 574 360 q 685 395 660 360 q 711 492 711 431 q 683 599 711 561 q 604 636 656 636 q 531 599 565 636 q 463 486 496 563 m 113 486 q 140 389 113 425 q 217 351 168 353 q 297 380 260 351 q 364 468 333 408 q 277 591 307 565 q 211 617 247 617 q 140 581 167 617 q 113 486 113 546 m 792 497 q 740 336 792 399 q 604 274 688 274 q 506 302 553 274 q 415 388 460 331 q 333 297 379 326 q 226 267 286 267 q 87 326 139 267 q 35 482 35 385 q 86 640 35 578 q 214 703 138 703 q 316 672 269 703 q 413 568 363 642 q 501 683 457 649 q 601 718 546 718 q 739 656 686 718 q 792 497 792 594 z "},"∫":{"ha":492,"x_min":-18,"x_max":494,"o":"m 276 390 q 310 206 304 271 q 314 75 317 140 q 263 -143 310 -71 q 125 -215 215 -215 q 21 -167 60 -215 q -18 -40 -18 -119 q -13 4 -18 -19 q 0 43 -8 28 q 42 39 21 43 q 85 28 64 35 q 76 -7 79 13 q 72 -49 72 -26 q 89 -115 72 -90 q 135 -139 106 -139 q 200 -90 179 -139 q 221 61 221 -42 q 211 199 221 128 q 171 403 201 271 q 136 578 144 519 q 128 688 128 636 q 181 926 126 843 q 338 1008 236 1008 q 452 961 410 1010 q 494 835 494 913 q 490 788 494 813 q 478 751 485 764 q 435 753 457 750 q 392 765 413 757 q 401 800 397 781 q 404 843 404 819 q 384 908 404 883 q 331 932 364 932 q 258 879 282 932 q 233 721 233 826 q 242 579 233 649 q 276 390 250 510 z "},"≈":{"ha":492,"x_min":35,"x_max":457,"o":"m 254 386 q 304 368 289 372 q 332 364 319 364 q 376 380 361 364 q 389 425 392 396 q 419 424 406 426 q 451 414 433 421 q 426 327 457 361 q 343 293 396 293 q 296 299 321 293 q 226 322 271 304 q 179 340 193 336 q 154 343 165 343 q 110 329 124 343 q 100 285 97 315 q 75 286 89 283 q 42 294 61 289 q 65 381 36 347 q 147 414 94 414 q 189 408 167 414 q 254 386 211 403 m 253 567 q 303 549 288 553 q 331 544 318 544 q 375 560 360 544 q 388 606 390 576 q 418 604 404 607 q 450 594 432 601 q 425 508 456 542 q 342 474 394 474 q 294 479 319 474 q 225 503 269 485 q 178 520 192 517 q 153 524 164 524 q 109 510 122 524 q 99 465 96 496 q 74 467 88 464 q 40 475 60 469 q 64 561 35 528 q 146 594 93 594 q 188 589 165 594 q 253 567 210 583 z "}}}
